<svg width="80" height="80" viewBox="0 0 80 80" fill="none" xmlns="http://www.w3.org/2000/svg">
<path d="M15.6524 36.5217C15.308 36.5223 14.9711 36.4206 14.6845 36.2296C14.398 36.0385 14.1746 35.7666 14.0427 35.4485C13.9108 35.1303 13.8764 34.7801 13.9437 34.4424C14.0111 34.1046 14.1772 33.7944 14.4211 33.5512L31.8124 16.16C32.5032 15.4929 33.6043 15.5119 34.2716 16.2027C34.9225 16.8768 34.9225 17.9452 34.2716 18.619L16.8803 36.0104C16.5549 36.3368 16.1133 36.5207 15.6524 36.5217ZM64.348 36.5217C64.1195 36.5221 63.8931 36.4775 63.6818 36.3903C63.4706 36.3032 63.2785 36.1752 63.1167 36.0138L45.7254 18.6226C45.0582 17.9318 45.0773 16.8308 45.7681 16.1634C46.4421 15.5126 47.5106 15.5126 48.1844 16.1634L65.5758 33.5548C66.2539 34.235 66.2522 35.3362 65.5718 36.0143C65.2469 36.3383 64.807 36.5207 64.348 36.5217Z" fill="#455A64"/>
<path d="M8.69559 33.0435H71.3042C76.1067 33.0435 79.9998 36.9366 79.9998 41.739V62.6086C79.9998 67.411 76.1067 71.3042 71.3042 71.3042H8.69559C3.89315 71.3042 0 67.411 0 62.6086V41.739C0 36.9366 3.89315 33.0435 8.69559 33.0435Z" fill="#4CAF50"/>
<path d="M8.69573 64.3479C7.73524 64.3479 6.95654 63.5692 6.95654 62.6087V41.7392C6.95654 40.7787 7.73524 40 8.69573 40H19.1305C20.091 40 20.8697 40.7787 20.8697 41.7392C20.8697 42.6997 20.091 43.4784 19.1305 43.4784H10.4349V62.6087C10.4349 63.5692 9.65622 64.3479 8.69573 64.3479Z" fill="#FAFAFA"/>
<path d="M15.6523 53.9131H8.69573C7.73524 53.9131 6.95654 53.1344 6.95654 52.174C6.95654 51.2135 7.73524 50.4348 8.69573 50.4348H15.6523C16.6128 50.4348 17.3915 51.2135 17.3915 52.174C17.3915 53.1344 16.6128 53.9131 15.6523 53.9131ZM36.5218 64.3479C36.2933 64.3484 36.0669 64.3037 35.8556 64.2166C35.6444 64.1294 35.4523 64.0015 35.2905 63.84L27.8263 56.3722V62.6087C27.8263 63.5692 27.0476 64.3479 26.0871 64.3479C25.1266 64.3479 24.3479 63.5692 24.3479 62.6087V41.7392C24.3479 40.7787 25.1266 40 26.0871 40H31.3045C35.1464 40 38.261 43.1146 38.261 46.9566C38.261 50.7985 35.1464 53.9131 31.3045 53.9131H30.2853L37.7496 61.3774C38.4296 62.0557 38.4309 63.1569 37.7527 63.8369C37.5912 63.9989 37.3994 64.1273 37.1882 64.215C36.977 64.3027 36.7505 64.3479 36.5218 64.3479ZM27.8263 50.4348H31.3045C33.2254 50.4348 34.7827 48.8775 34.7827 46.9566C34.7827 45.0356 33.2254 43.4784 31.3045 43.4784H27.8263V50.4348ZM53.9132 64.3479H43.4784C42.5179 64.3479 41.7392 63.5692 41.7392 62.6087V41.7392C41.7392 40.7787 42.5179 40 43.4784 40H53.9132C54.8737 40 55.6524 40.7787 55.6524 41.7392C55.6524 42.6997 54.8737 43.4784 53.9132 43.4784H45.2176V60.8697H53.9132C54.8737 60.8697 55.6524 61.6484 55.6524 62.6089C55.6522 63.5692 54.8737 64.3479 53.9132 64.3479Z" fill="#FAFAFA"/>
<path d="M50.4345 53.9131H43.478C42.5175 53.9131 41.7388 53.1344 41.7388 52.174C41.7388 51.2135 42.5175 50.4348 43.478 50.4348H50.4345C51.395 50.4348 52.1737 51.2135 52.1737 52.174C52.1737 53.1344 51.395 53.9131 50.4345 53.9131ZM71.3041 64.3479H60.8693C59.9088 64.3479 59.1301 63.5692 59.1301 62.6087V41.7392C59.1301 40.7787 59.9088 40 60.8693 40H71.3041C72.2646 40 73.0433 40.7787 73.0433 41.7392C73.0433 42.6997 72.2646 43.4784 71.3041 43.4784H62.6085V60.8697H71.3041C72.2646 60.8697 73.0433 61.6484 73.0433 62.6089C73.0433 63.5692 72.2646 64.3479 71.3041 64.3479Z" fill="#FAFAFA"/>
<path d="M67.8261 53.9129H60.8696C59.9091 53.9129 59.1304 53.1342 59.1304 52.1738C59.1304 51.2133 59.9091 50.4346 60.8696 50.4346H67.8261C68.7866 50.4346 69.5653 51.2133 69.5653 52.1738C69.5653 53.1342 68.7866 53.9129 67.8261 53.9129Z" fill="#FAFAFA"/>
<path d="M39.9998 26.087C35.1973 26.087 31.3042 22.1938 31.3042 17.3914C31.3042 12.589 35.1973 8.6958 39.9998 8.6958C44.8022 8.6958 48.6954 12.589 48.6954 17.3914C48.6954 22.1938 44.8024 26.087 39.9998 26.087Z" fill="#607D8B"/>
</svg>
