<svg width="80" height="80" viewBox="0 0 80 80" fill="none" xmlns="http://www.w3.org/2000/svg">
<path d="M77.6471 40.0001C77.6471 53.7648 70.7648 61.4119 70.1177 62.5295C66.5883 67.2354 62.5883 70.8236 56.0589 74.0001C54.706 74.6471 52.8824 75.353 51.5295 75.8236C50.8236 76.0589 49.1177 76.5295 48.1766 76.706C48.1177 76.7648 47.0589 76.9413 47.0001 76.9413C47.0001 76.9413 43.8824 77.5883 40.0001 77.5883C35.9413 77.5883 31.9413 76.9413 28.5295 75.8236C27.9413 75.5295 24.0001 74.6471 18.6471 70.9413L18.5883 70.8824C14.2942 67.9413 12.2354 65.2354 11.5883 64.5883C8.05891 60.5295 6.11773 56.2942 6.11773 56.2942C3.5295 51.0001 2.35303 45.5295 2.35303 40.0001C2.35303 19.1766 19.2354 2.35303 40.0001 2.35303C60.7648 2.35303 77.6471 19.1766 77.6471 40.0001Z" fill="#886C60"/>
<path d="M22.0591 38.4116C21.412 41.4116 21.412 44.4704 22.0591 47.5293H11.0591C11.7061 44.5293 11.7061 41.4704 11.0591 38.4116H22.0591Z" fill="#F1B97C"/>
<path d="M22.5881 44.6472L22.1175 54.2354L21.6469 65.2943H12.1175C11.9411 65.059 11.7058 64.8237 11.5293 64.6472L11.4705 64.5884L10.5293 44.5884L11.4116 44.8825L16.5293 46.4707L21.6469 44.8825L22.5881 44.6472Z" fill="#FCFCFC"/>
<path d="M18.8238 65.3533L17.3533 48.2944H15.8238L14.2944 65.3533H18.8238Z" fill="#E34D30"/>
<path d="M24.9413 33.3531C24.9413 35.4707 24.353 37.1766 23.5883 37.1766H23.4707C22.353 41.0589 19.706 43.7648 16.6471 43.7648C13.5883 43.7648 10.9413 41.0001 9.82362 37.1766H9.70597C8.94126 37.1766 8.35303 35.4707 8.35303 33.3531C8.35303 31.2354 8.94126 29.5295 9.70597 29.5295C10.706 25.4119 13.4707 22.4707 16.6471 22.4707C19.8236 22.4707 22.7648 24.1766 23.7648 28.2942L23.5883 29.5295C24.2942 29.5295 24.9413 31.2354 24.9413 33.3531Z" fill="#F8CFA3"/>
<path d="M16.5886 46.5293L14.2944 48.5293L16.5886 50.9999L18.8238 48.5293L16.5886 46.5293Z" fill="#D54232"/>
<path d="M38.5294 65.3529L37.7646 57.3529C36.7646 49.647 36.1176 49.8823 36.1176 49.8823L22.5882 44.647L20.7646 65.3529H38.5294Z" fill="#5E86C3"/>
<path d="M24.1178 65.3531L27.2943 58.2355L23.1766 54.1178L27.2943 51.0002L22.6472 44.7061C21.6472 49.6472 20.9413 59.1178 20.5884 65.4119H24.1178V65.3531Z" fill="#6FB1E1"/>
<path d="M34.7059 65.3531L35 57.8237L34 65.3531H34.7059Z" fill="#4C5AA5"/>
<path d="M22.5884 44.6471L21.5884 43.1177L16.5884 46.5294L21.3531 51L22.5884 44.6471Z" fill="#D1D1D3"/>
<path d="M12.3532 65.2943H12.1179C11.9414 65.059 11.7061 64.8237 11.5297 64.6472L11.4708 64.5884C9.58849 62.4119 7.94144 60.0001 6.58849 57.4119C4.94144 54.2943 3.76496 51.0001 3.05908 47.4707L10.5297 44.5884L12.0591 61.6472L12.3532 65.2943Z" fill="#5E86C3"/>
<path d="M12.5882 65.2943H12.1176C11.9411 65.059 11.7059 64.8237 11.5294 64.6472L11.4706 64.5884C9.58821 62.4119 7.94115 60.0001 6.58821 57.4119L9.99997 54.0001L5.88232 50.8825L10.5294 44.5884L10.647 45.059C11.3529 48.8825 11.8823 55.0001 12.2941 60.4119C12.4117 62.2354 12.5294 63.8237 12.5882 65.2943Z" fill="#6FB1E1"/>
<path d="M10.5293 44.6471L11.5293 43.1177L16.5881 46.5294L11.8234 51L10.5293 44.6471Z" fill="#D1D1D3"/>
<path d="M9.00029 31.7058C9.00029 31.0587 9.70617 30.294 10.0003 29.8234L11.2356 26.8234C11.2356 26.8234 11.765 25.5293 13.4121 26.1176C13.4121 26.1176 14.2944 26.7058 16.5885 26.2352C16.5885 26.2352 20.8238 25.8823 21.8238 26.5881C21.8238 26.5881 23.8826 27.2352 24.0003 31.7646H24.7062C24.8826 31.2352 25.2356 29.7058 24.9415 28.4705C24.9415 28.4705 26.1179 23.1176 23.0003 21.8823C23.0003 21.8823 23.1768 21.4705 23.3532 21.4705C23.3532 21.4705 22.3532 21.2352 21.5297 21.5881C21.5297 21.5881 21.1768 19.8823 18.8238 20.0587C18.8238 20.0587 14.8238 18.8823 14.0591 20.2352C14.0591 20.2352 12.2356 20.0587 12.2944 20.8234C12.2944 20.8234 8.76499 21.4117 8.23558 26.5293C8.23558 26.5293 8.00029 29.5293 8.47088 31.7646H9.00029V31.7058ZM71.6474 50.1764H60.1768C57.1768 42.9999 55.0003 34.9411 56.8826 27.7646H74.9415C76.8238 34.9999 74.6473 43.0587 71.6474 50.1764Z" fill="#343843"/>
<path d="M65.8825 41.4707C71.0804 41.4707 75.2942 36.5458 75.2942 30.4707C75.2942 24.3956 71.0804 19.4707 65.8825 19.4707C60.6845 19.4707 56.4707 24.3956 56.4707 30.4707C56.4707 36.5458 60.6845 41.4707 65.8825 41.4707Z" fill="#343843"/>
<path d="M77.0001 46.8823C74.4707 58.1176 71.1178 60.647 70.1178 62.5882C69.4119 63.5294 68.5295 64.5882 67.7648 65.4706H46.4707L47.5295 54.7059L47.6472 53.4117L47.706 53C47.7648 52.4706 47.8825 51.9411 48.0589 51.4706C48.2354 51 48.0589 51.4706 48.0589 51.4117C48.0589 51.2941 48.1178 51.2353 48.1766 51.1176V51.0588C48.2354 50.9412 48.2942 50.8235 48.2942 50.7647C48.2942 50.7059 48.3531 50.7059 48.3531 50.647C49.4707 48.4117 51.7648 46.8823 54.4119 46.8823H77.0001Z" fill="#5E86C3"/>
<path d="M72.1766 46.5882L68.7061 61.8823H63.1766L59.7061 46.5882C60.7649 46.1764 60.8237 45.1764 60.8237 45.1764L61.059 40.8823C63.0002 41.5294 68.8825 41.5294 70.8237 40.8823L71.059 45.1764C71.059 45.1176 71.1178 46.1176 72.1766 46.5882Z" fill="#F1B97C"/>
<path d="M65.9413 23.1768C61.7648 23.1768 58.353 26.5885 58.353 30.765V36.1179C58.353 40.2944 61.7648 43.7062 65.9413 43.7062C70.1177 43.7062 73.5295 40.2944 73.5295 36.1179V30.765C73.5295 26.5885 70.1177 23.1768 65.9413 23.1768Z" fill="#F8CFA3"/>
<path d="M72.5885 55L70.1179 62.5294C69.4121 63.4706 68.5297 64.5294 67.765 65.4118H62.3532L59.1768 55C59.8238 55.2353 60.4709 55.4118 61.1768 55.5294C61.3532 55.5882 61.5297 55.5882 61.7062 55.6471L62.765 55.8235C63.765 55.9412 64.8238 56.0588 65.8826 56.0588C66.9415 56.0588 68.0003 56 69.0003 55.8235L70.0591 55.6471C71.0003 55.4706 71.8238 55.2941 72.5885 55Z" fill="#F1582E"/>
<path d="M75.7649 51.7647C75.5885 52.2941 75.412 52.8235 75.2355 53.2353H72.2355L74.1767 55.8235C72.2355 60 70.4708 62 70.1179 62.5882C69.412 63.5294 68.5296 64.5882 67.7649 65.4706H66.7061L67.5885 61.8824L67.8238 61L69.0591 55.8824L70.412 50.2941L71.2355 46.9412L71.412 46.1176L73.1179 46.4706L75.3532 46.9412V47L75.7649 51.7647ZM56.7061 57.1176L62.2355 65.4118H65.1179L60.412 46L56.5296 46.8235L55.9414 53.2353H59.6473L56.7061 57.1176Z" fill="#6FB1E1"/>
<path d="M74.3531 32.5297C70.0001 31.0003 68.4707 26.2944 68.4707 26.2944C62.7648 32.1768 57.4707 31.2944 57.4707 31.2944L58.3531 28.0003C58.7648 26.4709 59.5884 25.1179 60.7648 24.1179C62.1766 22.8826 64.0001 22.1768 65.8825 22.1768H66.0001C67.5883 22.1768 69.1178 22.6473 70.4119 23.5297L70.6472 23.7062C71.7648 24.4709 72.6472 25.4709 73.2354 26.7062L73.5295 27.2356C74.0589 28.2944 74.3531 29.4709 74.3531 30.7062V32.5297Z" fill="#343843"/>
<path d="M47.5293 42.0591C46.6469 46.1767 46.6469 50.3532 47.5293 54.4708H32.5293C33.4116 50.3532 33.4116 46.1767 32.5293 42.0591H47.5293Z" fill="#F1B97C"/>
<path d="M48.2352 50.5293V50.9999L47.5882 65.4116L47.0588 76.9999C45.0588 77.4116 42.5294 77.6469 40.0588 77.6469C37.7058 77.6469 35.3529 77.4116 33.1176 76.9999L32.5294 65.294L31.7646 50.5293L32.9999 50.8822L36.9411 52.1175L39.9999 53.0587L46.9411 50.8822L48.2352 50.5293Z" fill="#FCFCFC"/>
<path d="M42.9414 77.5293C41.9414 77.5881 41.0003 77.6469 40.0003 77.6469C39.0003 77.6469 38.0003 77.5881 37.0591 77.5293L38.1179 65.294L38.3532 62.9411L38.8238 57.8234L39.0003 55.5293H41.1179L41.2944 57.8234L42.9414 77.5293Z" fill="#E34D30"/>
<path d="M51.3529 35.118C51.3529 38.0003 50.5294 40.2944 49.5294 40.2944H49.3529C47.8235 45.5886 44.2352 49.2944 40.0588 49.2944C35.8823 49.2944 32.2352 45.5886 30.7646 40.2944H30.5882C29.5882 40.2944 28.7646 37.9415 28.7646 35.118C28.7646 32.2356 29.5882 29.9415 30.5882 29.9415C31.9999 24.3533 35.7058 20.2944 40.0588 20.2944C44.4117 20.2944 48.3529 22.6474 49.7646 28.2356L49.5294 29.9415C50.5294 29.9415 51.3529 32.2944 51.3529 35.118Z" fill="#F8CFA3"/>
<path d="M40.0002 53.1177L36.9414 55.8824L40.0002 59.1765L43.0591 55.8824L40.0002 53.1177Z" fill="#D54232"/>
<path d="M68.4708 64.6469C64.7649 68.9411 61.1179 71.5881 56.1179 74.0587C54.7649 74.7058 52.9414 75.4116 51.5885 75.8822C50.8826 76.1175 49.1767 76.5881 48.2355 76.7646C48.1767 76.8234 47.1179 76.9999 47.0591 76.9999L45.9414 77.1764L47.0002 65.4116L48.2943 51.0587L48.3532 50.5293L48.5296 50.5881L58.8238 54.5293L61.412 55.5293L62.0002 55.7646L63.1179 56.1764L66.8826 57.6469C66.8826 57.6469 67.2943 57.4705 68.0002 60.9411L68.1767 61.8234C68.1179 62.6469 68.2943 63.5293 68.4708 64.6469Z" fill="#4C525E"/>
<path d="M50.9411 65.4116L54.5293 68.9999L51.5293 75.8234C49.5293 76.4705 47.5293 76.9411 45.5293 77.2352C45.9411 70.3528 46.6469 61.2352 47.5293 54.6469C47.7058 53.4705 47.8822 52.3528 48.0587 51.3528C48.1175 51.0587 48.1764 50.8234 48.2352 50.5293L48.3528 50.7058L54.5881 59.1175L48.9411 63.4117L50.9411 65.4116Z" fill="#646C79"/>
<path d="M48.2353 50.5295L46.8235 48.4707L40 53.1178L46.4706 59.1766L48.2353 50.5295Z" fill="#D1D1D3"/>
<path d="M34.1766 77.1766C26.1766 76.0001 18.1766 71.8825 12.1766 65.2942C12.0001 65.0589 11.7648 64.8236 11.5884 64.6472C11.7648 63.4707 11.9413 62.4707 12.1178 61.6472C12.1766 61.1766 12.2943 60.8236 12.3531 60.4707C13.0001 57.4707 13.4119 57.5883 13.4119 57.5883L15.1178 56.9413L18.059 55.8236L21.4119 54.5295L21.8237 54.3531L22.2354 54.1766L23.6472 53.6472L31.8825 50.4707L33.1766 65.2354L34.1766 77.1766Z" fill="#4C525E"/>
<path d="M34.5293 77.2352C32.5293 76.9411 30.5881 76.4705 28.5293 75.8234L25.5293 68.9999L29.2352 65.294L31.1764 63.3528L26.5881 59.8822L25.5293 59.1175L26.6469 57.5881L31.7646 50.5293C32.5293 54.1764 33.1175 59.7058 33.5881 65.294C33.9999 69.4705 34.294 73.6469 34.5293 77.2352Z" fill="#646C79"/>
<path d="M31.7646 50.5295L33.1764 48.4707L39.9999 53.1178L33.5294 59.1766L31.7646 50.5295Z" fill="#D1D1D3"/>
<path d="M29.6472 32.8823C29.6472 32 30.5884 30.9411 31.059 30.3529L32.7649 26.2353C32.7649 26.2353 33.5296 24.4117 35.7061 25.2353C35.7061 25.2353 36.9413 26.0588 40.059 25.4117C40.059 25.4117 45.8825 24.9411 47.2355 25.8235C47.2355 25.8235 50.059 26.7059 50.1766 32.8823H51.1766C51.4119 32.1764 51.9413 30.0588 51.4708 28.3529C51.4708 28.3529 53.059 21 48.7649 19.3529C48.7649 19.3529 49.059 18.7647 49.2943 18.7647C49.2943 18.7647 47.8825 18.4117 46.7649 18.9411C46.7649 18.9411 46.2355 16.5882 43.059 16.8823C43.059 16.8823 37.5884 15.2353 36.5296 17.1176C36.5296 17.1176 34.059 16.8235 34.059 17.8823C34.059 17.8823 29.2355 18.7059 28.5296 25.7059C28.5296 25.7059 28.2355 29.7647 28.8825 32.8823H29.6472Z" fill="#343843"/>
<path d="M50.0588 31.9999C47.8236 31.7057 45.9412 31.7646 45.9412 31.7646C44.8236 31.7646 43.9412 31.8822 43.2941 31.9999C42.7647 32.1175 42.2353 32.294 41.7059 32.5293C41.0589 32.8234 40.5883 32.8234 40.5883 32.8234H39.2941C39.2941 32.8234 38.8236 32.8234 38.1765 32.5293C37.6471 32.294 37.1765 32.1175 36.5883 31.9999C35.9412 31.8822 35.0589 31.7646 33.9412 31.7646C33.9412 31.7646 32.0589 31.7057 29.8236 31.9999C29.5883 32.0587 29.353 32.0587 29.1177 32.1175V33.3528C29.1177 33.3528 29.7647 33.4116 29.8824 34.2352C29.8824 34.2352 30.2353 37.4116 31.4118 38.2352C31.4118 38.2352 32.7059 39.5293 35.4706 38.8822C35.4706 38.8822 37.4706 38.6469 38.5294 36.294C38.5294 36.294 38.8236 35.6469 39 34.9999C39 34.9999 39.1177 33.8822 39.8824 33.9999C40.6471 33.8822 40.7647 34.9999 40.7647 34.9999C40.9412 35.6469 41.2353 36.294 41.2353 36.294C42.2941 38.6469 44.2941 38.8822 44.2941 38.8822C47.1177 39.5293 48.353 38.2352 48.353 38.2352C49.5294 37.4116 49.8824 34.2352 49.8824 34.2352C50 33.4116 50.6471 33.3528 50.6471 33.3528V32.1175C50.5883 32.0587 50.2941 32.0587 50.0588 31.9999ZM38.1177 35.7057C37.8824 36.7646 37.0589 37.5881 37.0589 37.5881C36.2353 38.4705 33.8824 38.5293 33.8824 38.5293C32.353 38.5293 31.6471 37.7057 31.4706 37.3528C31.4118 37.2352 31.353 37.1763 31.2941 37.0587C30.7059 36.2352 30.7059 34.4116 30.7059 34.4116C30.5883 33.294 31.8236 32.7057 31.8236 32.7057C33.4706 32.1175 36.5883 32.5293 36.5883 32.5293C38.2353 32.8234 38.2941 33.8822 38.2941 33.8822C38.2941 33.8822 38.4118 34.6469 38.1177 35.7057ZM48.7059 37.0587C48.6471 37.1763 48.5883 37.2352 48.5294 37.3528C48.2941 37.7057 47.6471 38.5293 46.1177 38.5293C46.1177 38.5293 43.7647 38.4705 42.9412 37.5881C42.9412 37.5881 42.1177 36.8234 41.8824 35.7057C41.6471 34.6469 41.7647 33.8822 41.7647 33.8822C41.7647 33.8822 41.8236 32.8234 43.4706 32.5293C43.4706 32.5293 46.5883 32.1175 48.2353 32.7057C48.2353 32.7057 49.4706 33.294 49.353 34.4116C49.2941 34.3528 49.2941 36.2352 48.7059 37.0587Z" fill="#343843"/>
<path d="M30.1178 32.9413C30.4751 32.9413 30.7648 32.8359 30.7648 32.706C30.7648 32.576 30.4751 32.4707 30.1178 32.4707C29.7604 32.4707 29.4707 32.576 29.4707 32.706C29.4707 32.8359 29.7604 32.9413 30.1178 32.9413Z" fill="#FCFCFC"/>
<path d="M49.8824 32.9413C50.2398 32.9413 50.5295 32.8359 50.5295 32.706C50.5295 32.576 50.2398 32.4707 49.8824 32.4707C49.5251 32.4707 49.2354 32.576 49.2354 32.706C49.2354 32.8359 49.5251 32.9413 49.8824 32.9413Z" fill="#FCFCFC"/>
</svg>
