<svg width="13" height="13" viewBox="0 0 16 17" fill="none" xmlns="http://www.w3.org/2000/svg">
<path d="M13.33 16.1002H2.66C2.66132 16.2166 2.63954 16.3321 2.59591 16.4401C2.55227 16.548 2.48766 16.6462 2.40582 16.729C2.32397 16.8117 2.22651 16.8775 2.11909 16.9223C2.01166 16.9672 1.89641 16.9902 1.78 16.9902H0.889999C0.653957 16.9902 0.427581 16.8965 0.260674 16.7296C0.0937662 16.5627 0 16.3363 0 16.1002V15.2102C0 14.9742 0.0937662 14.7478 0.260674 14.5809C0.427581 14.414 0.653957 14.3202 0.889999 14.3202V3.66023C0.653957 3.66023 0.427581 3.56647 0.260674 3.39956C0.0937662 3.23265 0 3.00628 0 2.77023V1.88023C0 1.64419 0.0937662 1.41782 0.260674 1.25091C0.427581 1.084 0.653957 0.990234 0.889999 0.990234H1.78C1.89641 0.990227 2.01166 1.01331 2.11909 1.05816C2.22651 1.10301 2.32397 1.16873 2.40582 1.2515C2.48766 1.33428 2.55227 1.43247 2.59591 1.5404C2.63954 1.64832 2.66132 1.76383 2.66 1.88023H13.33C13.33 1.64419 13.4238 1.41782 13.5907 1.25091C13.7576 1.084 13.984 0.990234 14.22 0.990234H15.11C15.2269 0.990234 15.3426 1.01326 15.4506 1.05798C15.5586 1.10271 15.6567 1.16826 15.7393 1.25091C15.822 1.33355 15.8875 1.43166 15.9323 1.53964C15.977 1.64762 16 1.76336 16 1.88023V2.77023C16 2.88711 15.977 3.00284 15.9323 3.11082C15.8875 3.2188 15.822 3.31691 15.7393 3.39956C15.6567 3.4822 15.5586 3.54776 15.4506 3.59248C15.3426 3.63721 15.2269 3.66023 15.11 3.66023V14.3202C15.2269 14.3202 15.3426 14.3433 15.4506 14.388C15.5586 14.4327 15.6567 14.4983 15.7393 14.5809C15.822 14.6636 15.8875 14.7617 15.9323 14.8696C15.977 14.9776 16 15.0934 16 15.2102V16.1002C16 16.2171 15.977 16.3328 15.9323 16.4408C15.8875 16.5488 15.822 16.6469 15.7393 16.7296C15.6567 16.8122 15.5586 16.8778 15.4506 16.9225C15.3426 16.9672 15.2269 16.9902 15.11 16.9902H14.22C13.984 16.9902 13.7576 16.8965 13.5907 16.7296C13.4238 16.5627 13.33 16.3363 13.33 16.1002ZM13.33 15.2102C13.33 14.9742 13.4238 14.7478 13.5907 14.5809C13.7576 14.414 13.984 14.3202 14.22 14.3202V3.66023C13.984 3.66023 13.7576 3.56647 13.5907 3.39956C13.4238 3.23265 13.33 3.00628 13.33 2.77023H2.66C2.66132 2.88664 2.63954 3.00215 2.59591 3.11007C2.55227 3.21799 2.48766 3.31619 2.40582 3.39896C2.32397 3.48174 2.22651 3.54745 2.11909 3.5923C2.01166 3.63715 1.89641 3.66024 1.78 3.66023V14.3202C1.89641 14.3202 2.01166 14.3433 2.11909 14.3882C2.22651 14.433 2.32397 14.4987 2.40582 14.5815C2.48766 14.6643 2.55227 14.7625 2.59591 14.8704C2.63954 14.9783 2.66132 15.0938 2.66 15.2102H13.33ZM0.889999 1.88023V2.77023H1.78V1.88023H0.889999ZM0.889999 15.2102V16.1002H1.78V15.2102H0.889999ZM14.22 1.88023V2.77023H15.11V1.88023H14.22ZM14.22 15.2102V16.1002H15.11V15.2102H14.22Z" fill="black" fill-opacity="0.85"/>
<path d="M3.65 12.9902C3.65 13.1835 3.8067 13.3402 4 13.3402L7.15 13.3402C7.3433 13.3402 7.5 13.1835 7.5 12.9902C7.5 12.7969 7.3433 12.6402 7.15 12.6402L4.35 12.6402L4.35 9.84023C4.35 9.64693 4.1933 9.49023 4 9.49023C3.8067 9.49023 3.65 9.64693 3.65 9.84023L3.65 12.9902ZM12.35 4.99023C12.35 4.79694 12.1933 4.64023 12 4.64023L8.85 4.64023C8.6567 4.64023 8.5 4.79693 8.5 4.99023C8.5 5.18353 8.6567 5.34023 8.85 5.34023L11.65 5.34023L11.65 8.14023C11.65 8.33353 11.8067 8.49023 12 8.49023C12.1933 8.49023 12.35 8.33353 12.35 8.14023L12.35 4.99023ZM4.24749 13.2377L12.2475 5.23772L11.7525 4.74275L3.75251 12.7427L4.24749 13.2377Z" fill="black" fill-opacity="0.85"/>
</svg>
