<svg width="14" height="15" viewBox="0 0 14 15" fill="none" xmlns="http://www.w3.org/2000/svg">
<path d="M10.9464 13.3387H2.18436C2.18544 13.4342 2.16755 13.5291 2.13172 13.6177C2.0959 13.7063 2.04284 13.787 1.97563 13.855C1.90841 13.9229 1.82838 13.9769 1.74017 14.0137C1.65195 14.0506 1.55731 14.0695 1.46171 14.0695H0.730856C0.537021 14.0695 0.351124 13.9925 0.214062 13.8554C0.0769996 13.7184 0 13.5325 0 13.3387V12.6078C0 12.414 0.0769996 12.2281 0.214062 12.091C0.351124 11.9539 0.537021 11.8769 0.730856 11.8769V3.12308C0.537021 3.12308 0.351124 3.04608 0.214062 2.90902C0.0769996 2.77196 0 2.58606 0 2.39222V1.66137C0 1.46753 0.0769996 1.28164 0.214062 1.14457C0.351124 1.00751 0.537021 0.930511 0.730856 0.930511H1.46171C1.55731 0.930505 1.65195 0.949461 1.74017 0.98629C1.82838 1.02312 1.90841 1.07709 1.97563 1.14506C2.04284 1.21304 2.0959 1.29367 2.13172 1.3823C2.16755 1.47092 2.18544 1.56578 2.18436 1.66137H10.9464C10.9464 1.46753 11.0234 1.28164 11.1605 1.14457C11.2976 1.00751 11.4834 0.930511 11.6773 0.930511H12.4081C12.5041 0.930511 12.5992 0.949417 12.6878 0.986146C12.7765 1.02288 12.8571 1.07671 12.9249 1.14457C12.9928 1.21244 13.0466 1.29301 13.0834 1.38168C13.1201 1.47035 13.139 1.56539 13.139 1.66137V2.39222C13.139 2.4882 13.1201 2.58324 13.0834 2.67191C13.0466 2.76059 12.9928 2.84115 12.9249 2.90902C12.8571 2.97688 12.7765 3.03072 12.6878 3.06745C12.5992 3.10417 12.5041 3.12308 12.4081 3.12308V11.8769C12.5041 11.8769 12.5992 11.8958 12.6878 11.9326C12.7765 11.9693 12.8571 12.0231 12.9249 12.091C12.9928 12.1589 13.0466 12.2394 13.0834 12.3281C13.1201 12.4168 13.139 12.5118 13.139 12.6078V13.3387C13.139 13.4346 13.1201 13.5297 13.0834 13.6183C13.0466 13.707 12.9928 13.7876 12.9249 13.8554C12.8571 13.9233 12.7765 13.9771 12.6878 14.0139C12.5992 14.0506 12.5041 14.0695 12.4081 14.0695H11.6773C11.4834 14.0695 11.2976 13.9925 11.1605 13.8554C11.0234 13.7184 10.9464 13.5325 10.9464 13.3387ZM10.9464 12.6078C10.9464 12.414 11.0234 12.2281 11.1605 12.091C11.2976 11.9539 11.4834 11.8769 11.6773 11.8769V3.12308C11.4834 3.12308 11.2976 3.04608 11.1605 2.90902C11.0234 2.77196 10.9464 2.58606 10.9464 2.39222H2.18436C2.18544 2.48781 2.16755 2.58267 2.13172 2.67129C2.0959 2.75992 2.04284 2.84055 1.97563 2.90853C1.90841 2.97651 1.82838 3.03047 1.74017 3.0673C1.65195 3.10412 1.55731 3.12309 1.46171 3.12308V11.8769C1.55731 11.8769 1.65195 11.8959 1.74017 11.9327C1.82838 11.9695 1.90841 12.0235 1.97563 12.0915C2.04284 12.1595 2.0959 12.2401 2.13172 12.3287C2.16755 12.4174 2.18544 12.5122 2.18436 12.6078H10.9464ZM0.730856 1.66137V2.39222H1.46171V1.66137H0.730856ZM0.730856 12.6078V13.3387H1.46171V12.6078H0.730856ZM11.6773 1.66137V2.39222H12.4081V1.66137H11.6773ZM11.6773 12.6078V13.3387H12.4081V12.6078H11.6773Z" fill="black" fill-opacity="0.85"/>
</svg>
