<svg width="14" height="14" viewBox="0 0 14 14" fill="none" xmlns="http://www.w3.org/2000/svg">
<path d="M13.4282 6.32603H2.97999L9.23356 0.897461C9.33356 0.809961 9.27285 0.647461 9.1407 0.647461H7.56035C7.4907 0.647461 7.42463 0.672461 7.37285 0.717104L0.624633 6.57246C0.562827 6.62604 0.513259 6.69227 0.479288 6.76667C0.445316 6.84108 0.427734 6.92192 0.427734 7.00371C0.427734 7.08551 0.445316 7.16634 0.479288 7.24075C0.513259 7.31515 0.562827 7.38139 0.624633 7.43496L7.41213 13.326C7.43892 13.3492 7.47106 13.3617 7.50499 13.3617H9.13892C9.27106 13.3617 9.33177 13.1975 9.23178 13.1117L2.97999 7.68318H13.4282C13.5068 7.68318 13.5711 7.61889 13.5711 7.54032V6.46889C13.5711 6.39032 13.5068 6.32603 13.4282 6.32603Z" fill="white"/>
</svg>
