<svg width="14" height="15" viewBox="0 0 14 15" fill="none" xmlns="http://www.w3.org/2000/svg">
<path d="M13.1279 7.45071H2.13215V3.28729C2.13758 3.11041 2.19394 2.93885 2.29444 2.79319C2.39495 2.64753 2.53533 2.53396 2.69877 2.46611C2.86531 2.39699 3.04862 2.37882 3.22549 2.4139C3.40236 2.44899 3.56484 2.53574 3.6924 2.66319C3.52933 2.94227 3.4434 3.25969 3.4434 3.58292C3.4434 3.90615 3.52933 4.22357 3.6924 4.50265C3.72077 4.55146 3.75995 4.59312 3.80693 4.62444C3.8539 4.65576 3.90744 4.6759 3.96341 4.68331C4.01889 4.69088 4.07537 4.68515 4.1282 4.66659C4.18103 4.64803 4.22869 4.61717 4.26724 4.57656L6.22167 2.62213C6.26175 2.58319 6.29224 2.53548 6.31076 2.48276C6.32929 2.43004 6.33532 2.37374 6.3284 2.31829C6.32101 2.26123 6.30095 2.20654 6.26969 2.15823C6.23843 2.10992 6.19679 2.06921 6.14777 2.03908C5.85928 1.87501 5.53115 1.79357 5.19942 1.80371C4.86769 1.81385 4.54517 1.91518 4.26724 2.09657C4.02598 1.86053 3.72075 1.70047 3.38939 1.63625C3.05804 1.57202 2.71511 1.60644 2.40313 1.73525C2.08991 1.86456 1.82249 2.08454 1.6352 2.36695C1.4479 2.64935 1.34928 2.98129 1.35201 3.32014V7.48356H0.793609C0.686891 7.48356 0.584557 7.52595 0.509096 7.60141C0.433634 7.67688 0.391235 7.77922 0.391235 7.88594C0.391224 7.9384 0.401689 7.99034 0.42201 8.0387C0.44233 8.08707 0.472095 8.13089 0.509572 8.1676C0.547048 8.20432 0.591463 8.23318 0.640238 8.2525C0.689013 8.27182 0.741159 8.2812 0.793609 8.28011H1.35201V9.96354C1.35278 10.6008 1.55832 11.2209 1.9383 11.7325C2.31829 12.2441 2.85261 12.62 3.46247 12.8049L2.55916 13.6999C2.48393 13.7767 2.4418 13.8799 2.4418 13.9874C2.4418 14.0948 2.48393 14.198 2.55916 14.2748C2.63721 14.3477 2.73977 14.3887 2.84658 14.3897C2.95104 14.3891 3.05116 14.3479 3.12578 14.2748L4.46432 12.9362H9.52283L10.8614 14.2748C10.9394 14.3477 11.042 14.3887 11.1488 14.3897C11.2533 14.3891 11.3534 14.3479 11.428 14.2748C11.5032 14.198 11.5454 14.0948 11.5454 13.9874C11.5454 13.8799 11.5032 13.7767 11.428 13.6999L10.5165 12.7884C11.1123 12.5933 11.6313 12.2152 11.9999 11.7081C12.3685 11.2009 12.5678 10.5905 12.5694 9.96354V8.25547H13.1279C13.1803 8.25657 13.2324 8.24718 13.2812 8.22786C13.33 8.20854 13.3744 8.17968 13.4119 8.14297C13.4494 8.10626 13.4791 8.06244 13.4995 8.01407C13.5198 7.9657 13.5302 7.91377 13.5302 7.86131C13.5302 7.75459 13.4878 7.65224 13.4124 7.57678C13.3369 7.50132 13.2346 7.45892 13.1279 7.45892V7.45071ZM11.7647 9.91427C11.7647 10.4892 11.5363 11.0407 11.1297 11.4472C10.7231 11.8538 10.1717 12.0822 9.59674 12.0822H4.32473C3.75457 12.0867 3.20541 11.8673 2.79538 11.471C2.38535 11.0748 2.14719 10.5335 2.13215 9.96354V8.44435C2.13215 8.41955 2.13704 8.39498 2.14653 8.37207C2.15603 8.34915 2.16992 8.32833 2.18746 8.31079C2.205 8.29326 2.22582 8.27934 2.24873 8.26985C2.27165 8.26036 2.29623 8.25547 2.32103 8.25547H11.5676C11.592 8.25545 11.6162 8.26038 11.6387 8.26997C11.6612 8.27956 11.6814 8.2936 11.6983 8.31126C11.7152 8.32891 11.7284 8.34981 11.7369 8.37269C11.7455 8.39556 11.7494 8.41994 11.7482 8.44435L11.7647 9.91427Z" fill="black" fill-opacity="0.85"/>
<path d="M5.59763 4.21533C5.65043 4.21427 5.70179 4.19781 5.74536 4.16797C5.78894 4.13812 5.82283 4.0962 5.8429 4.04734C5.86296 3.99849 5.86831 3.94483 5.85829 3.89298C5.84827 3.84112 5.82333 3.79333 5.78651 3.75546C5.73499 3.70814 5.66758 3.68188 5.59763 3.68188C5.52768 3.68188 5.46027 3.70814 5.40875 3.75546C5.37193 3.79333 5.34697 3.84112 5.33695 3.89298C5.32693 3.94483 5.3323 3.99849 5.35236 4.04734C5.37243 4.0962 5.40632 4.13812 5.4499 4.16797C5.49347 4.19781 5.54483 4.21427 5.59763 4.21533Z" fill="black" fill-opacity="0.85"/>
<path d="M6.51742 5.24175C6.56894 5.28907 6.63635 5.31533 6.70631 5.31533C6.77626 5.31533 6.84365 5.28907 6.89516 5.24175C6.93383 5.20416 6.96041 5.1559 6.9715 5.10313C6.98258 5.05035 6.97767 4.99547 6.95739 4.9455C6.93711 4.89553 6.90238 4.85275 6.85765 4.82263C6.81292 4.79251 6.76023 4.77643 6.70631 4.77643C6.65238 4.77643 6.59967 4.79251 6.55494 4.82263C6.51021 4.85275 6.47548 4.89553 6.4552 4.9455C6.43492 4.99547 6.43001 5.05035 6.44109 5.10313C6.45217 5.1559 6.47875 5.20416 6.51742 5.24175Z" fill="black" fill-opacity="0.85"/>
<path d="M6.34497 4.69159C6.39469 4.64677 6.42719 4.58601 6.43689 4.51978C6.4466 4.45355 6.43287 4.38602 6.3981 4.32882C6.36333 4.27163 6.30969 4.22836 6.24643 4.20648C6.18317 4.18461 6.11426 4.1855 6.05159 4.20901C5.98891 4.23251 5.93643 4.27715 5.90315 4.33522C5.86987 4.3933 5.85791 4.46117 5.86932 4.52712C5.88073 4.59308 5.9148 4.65298 5.96565 4.6965C6.01651 4.74002 6.08097 4.76442 6.1479 4.7655C6.22043 4.76588 6.29057 4.73957 6.34497 4.69159Z" fill="black" fill-opacity="0.85"/>
<path d="M6.99372 5.60315C6.99292 5.63796 6.99903 5.67258 7.01172 5.705C7.0244 5.73743 7.04341 5.76701 7.06763 5.79202C7.11782 5.84246 7.18536 5.87184 7.25648 5.87414C7.3277 5.87207 7.39544 5.84287 7.44582 5.79249C7.4962 5.74211 7.52542 5.67437 7.52749 5.60315C7.52519 5.53203 7.49581 5.46447 7.44537 5.41428C7.39385 5.36696 7.32644 5.3407 7.25648 5.3407C7.18653 5.3407 7.11914 5.36696 7.06763 5.41428C7.01947 5.46529 6.99298 5.533 6.99372 5.60315Z" fill="black" fill-opacity="0.85"/>
<path d="M4.91607 4.33023C4.8905 4.35544 4.87019 4.38548 4.85633 4.41861C4.84247 4.45174 4.83533 4.4873 4.83533 4.52321C4.83533 4.55912 4.84247 4.59468 4.85633 4.62781C4.87019 4.66094 4.8905 4.69098 4.91607 4.71619C4.94109 4.74041 4.97066 4.75941 5.00308 4.7721C5.03551 4.78479 5.07012 4.7909 5.10493 4.79009C5.17508 4.79083 5.24279 4.76434 5.29381 4.71619C5.31939 4.69098 5.3397 4.66094 5.35356 4.62781C5.36742 4.59468 5.37456 4.55912 5.37456 4.52321C5.37456 4.4873 5.36742 4.45174 5.35356 4.41861C5.3397 4.38548 5.31939 4.35544 5.29381 4.33023C5.24229 4.28291 5.17488 4.25665 5.10493 4.25665C5.03498 4.25665 4.96759 4.28291 4.91607 4.33023Z" fill="black" fill-opacity="0.85"/>
<path d="M5.30213 5.48813H5.37606C5.44422 5.46891 5.50213 5.42378 5.53743 5.36239C5.57273 5.301 5.5826 5.22823 5.56492 5.15965C5.54404 5.09117 5.49693 5.03374 5.43385 4.99989C5.37077 4.96604 5.29683 4.95853 5.22823 4.97899C5.19463 4.98843 5.16327 5.00446 5.13593 5.02616C5.1086 5.04785 5.08584 5.07477 5.06902 5.10535C5.0522 5.13593 5.04165 5.16955 5.03797 5.20425C5.03428 5.23895 5.03754 5.27404 5.04757 5.30747C5.06335 5.36322 5.0966 5.41244 5.14242 5.44791C5.18824 5.48338 5.24421 5.50323 5.30213 5.50455V5.48813Z" fill="black" fill-opacity="0.85"/>
<path d="M5.49904 6.17791H5.57294C5.60728 6.16936 5.63952 6.15398 5.66777 6.13266C5.69602 6.11135 5.71968 6.08456 5.73731 6.05389C5.75495 6.02321 5.76621 5.98929 5.77042 5.95416C5.77463 5.91903 5.77171 5.8834 5.76182 5.84943C5.74083 5.78065 5.6941 5.72262 5.63138 5.68743C5.56866 5.65225 5.49478 5.64262 5.42513 5.66056C5.35665 5.68144 5.2992 5.72856 5.26535 5.79165C5.2315 5.85473 5.224 5.92864 5.24447 5.99724C5.26056 6.05215 5.29411 6.1003 5.34005 6.13439C5.386 6.16848 5.44183 6.18664 5.49904 6.18612V6.17791Z" fill="black" fill-opacity="0.85"/>
<path d="M5.70453 6.87594C5.74008 6.87669 5.77536 6.86974 5.80796 6.85557C5.84056 6.84139 5.8697 6.82033 5.89339 6.79382C5.91761 6.76881 5.93661 6.73923 5.9493 6.70681C5.96199 6.67438 5.96813 6.63976 5.96732 6.60495C5.96806 6.5348 5.94154 6.46709 5.89339 6.41608C5.84187 6.36876 5.77448 6.3425 5.70453 6.3425C5.63458 6.3425 5.56717 6.36876 5.51565 6.41608C5.48915 6.43977 5.46808 6.46892 5.4539 6.50152C5.43973 6.53412 5.43278 6.56941 5.43353 6.60495C5.43559 6.67617 5.46482 6.7439 5.5152 6.79428C5.56558 6.84466 5.63331 6.87387 5.70453 6.87594Z" fill="black" fill-opacity="0.85"/>
<path d="M6.00818 3.28732C5.96002 3.33834 5.93353 3.40604 5.93427 3.47619C5.93347 3.511 5.93958 3.54562 5.95227 3.57805C5.96496 3.61047 5.98396 3.64005 6.00818 3.66507C6.05837 3.71551 6.12594 3.74488 6.19706 3.74719C6.26828 3.74512 6.33601 3.71591 6.38639 3.66553C6.43677 3.61515 6.46598 3.54741 6.46804 3.47619C6.46574 3.40507 6.43636 3.33752 6.38592 3.28732C6.3344 3.24 6.26701 3.21375 6.19706 3.21375C6.12711 3.21375 6.0597 3.24 6.00818 3.28732Z" fill="black" fill-opacity="0.85"/>
<path d="M7.48639 4.21527H7.56851C7.62439 4.21508 7.67884 4.19762 7.72441 4.16528C7.76999 4.13294 7.80445 4.0873 7.82308 4.03461C7.83463 4.00065 7.83934 3.96474 7.83691 3.92895C7.83448 3.89317 7.82496 3.85821 7.80892 3.82613C7.79288 3.79405 7.77063 3.76547 7.74346 3.74205C7.71629 3.71863 7.68474 3.70085 7.65064 3.68971C7.58311 3.66889 7.51011 3.67525 7.44722 3.70747C7.38432 3.73968 7.3365 3.79519 7.31395 3.86216C7.29982 3.8965 7.29314 3.93344 7.29432 3.97055C7.29551 4.00766 7.30454 4.0441 7.32084 4.07746C7.33713 4.11083 7.36032 4.14036 7.38885 4.16411C7.41739 4.18787 7.45062 4.2053 7.48639 4.21527Z" fill="black" fill-opacity="0.85"/>
<path d="M6.79658 3.96063H6.88693C6.94974 3.95826 7.00977 3.93411 7.05674 3.89234C7.10371 3.85057 7.1347 3.79377 7.1444 3.73167C7.15411 3.66956 7.14194 3.60602 7.10994 3.55191C7.07795 3.4978 7.02815 3.4565 6.96905 3.43507C6.90153 3.41425 6.82853 3.42062 6.76563 3.45283C6.70274 3.48504 6.65492 3.54056 6.63236 3.60752C6.6181 3.64132 6.61107 3.67773 6.61174 3.71441C6.6124 3.75108 6.62073 3.78722 6.6362 3.82048C6.65167 3.85374 6.67393 3.8834 6.70155 3.90754C6.72918 3.93167 6.76155 3.94976 6.79658 3.96063Z" fill="black" fill-opacity="0.85"/>
<path d="M8.25836 4.43699C8.32821 4.43612 8.39536 4.40986 8.44725 4.36309C8.49523 4.30868 8.52153 4.23854 8.52115 4.166C8.52189 4.09585 8.4954 4.02815 8.44725 3.97713C8.39438 3.92923 8.32559 3.90271 8.25425 3.90271C8.18292 3.90271 8.11415 3.92923 8.06129 3.97713C8.01313 4.02815 7.98664 4.09585 7.98738 4.166C7.98496 4.20222 7.99031 4.23853 8.00307 4.2725C8.01583 4.30648 8.0357 4.33733 8.06136 4.363C8.08703 4.38866 8.11788 4.40854 8.15186 4.4213C8.18583 4.43406 8.22215 4.43941 8.25836 4.43699Z" fill="black" fill-opacity="0.85"/>
</svg>
