<svg width="31" height="31" viewBox="0 0 31 31" fill="none" xmlns="http://www.w3.org/2000/svg">
<g clip-path="url(#clip0_841_10943)">
<path d="M30.5 11.465C30.4983 11.1512 30.3433 10.8581 30.085 10.68C29.8052 10.4912 29.4517 10.4484 29.135 10.565L24 12.5V9.63L24.155 9.735C24.4024 9.90869 24.6977 10.0013 25 10C25.4962 10.0002 25.9605 9.755 26.24 9.345C26.7046 8.66249 26.5303 7.73285 25.85 7.265L16.35 0.765C16.1 0.592676 15.8036 0.500271 15.5 0.5C15.1964 0.500271 14.9 0.592676 14.65 0.765L5.15 7.265C4.8196 7.48907 4.59214 7.83561 4.51801 8.22788C4.44387 8.62016 4.52916 9.0258 4.755 9.355C5.03779 9.76267 5.50387 10.0041 6 10C6.30139 10.0002 6.59585 9.90959 6.845 9.74L7 9.63V12.63L1.875 10.575C1.56708 10.4504 1.21742 10.4869 0.941821 10.6723C0.666225 10.8577 0.500672 11.1678 0.5 11.5V25C0.5 25.5523 0.947715 26 1.5 26H1.875C2.43403 25.9965 2.94472 25.6824 3.2 25.185L3.62 24.35L4.5 24.76C4.20585 25.5386 4.56397 26.412 5.32 26.76C5.52835 26.8565 5.75538 26.906 5.985 26.905C6.18015 26.9037 6.37339 26.8664 6.555 26.795C6.71821 27.2133 7.03723 27.552 7.445 27.74C7.67427 27.8444 7.92309 27.8989 8.175 27.9C8.3833 27.9004 8.58995 27.8631 8.785 27.79C8.94329 28.2327 9.27305 28.5931 9.7 28.79C9.92851 28.8967 10.1778 28.9513 10.43 28.95C10.61 28.949 10.7887 28.9203 10.96 28.865V28.89C11.0974 29.2641 11.3781 29.5681 11.74 29.735C12.3966 30.0353 13.1741 29.8252 13.59 29.235L14.775 30.19C15.2151 30.5226 15.7936 30.61 16.3123 30.4222C16.831 30.2345 17.2196 29.7972 17.345 29.26C17.8805 29.4159 18.4582 29.2618 18.845 28.86C19.0957 28.6129 19.2514 28.2854 19.285 27.935C19.3566 27.9396 19.4284 27.9396 19.5 27.935C20.4127 27.9371 21.1882 27.2681 21.32 26.365C21.5182 26.432 21.7258 26.4674 21.935 26.47C22.4433 26.4713 22.9312 26.27 23.2906 25.9106C23.65 25.5512 23.8513 25.0633 23.85 24.555C23.8486 24.3042 23.7976 24.0561 23.7 23.825L26.88 22.5L27.81 24.22C28.073 24.7006 28.5771 24.9997 29.125 25H29.5C30.0389 25.0003 30.4811 24.5736 30.5 24.035V11.465ZM6.28 8.915C6.05218 9.071 5.74103 9.0128 5.585 8.785C5.50996 8.67356 5.48293 8.5366 5.51 8.405C5.53477 8.27734 5.6083 8.16435 5.715 8.09L15.215 1.59C15.2977 1.52979 15.3977 1.49819 15.5 1.5C15.602 1.50024 15.7014 1.53164 15.785 1.59L25.285 8.09C25.5097 8.24577 25.5676 8.55314 25.415 8.78C25.259 9.0078 24.9478 9.066 24.72 8.91L15.785 2.8C15.6136 2.6811 15.3864 2.6811 15.215 2.8L6.28 8.915ZM15.5 3.815L23 8.95V13C22.4867 13.4213 22.3478 14.1493 22.67 14.73L23.17 15.66L21.82 16.16C21.3586 16.3393 20.8386 16.2794 20.43 16L18 14.205V11.5C18 10.9477 17.5523 10.5 17 10.5H14C13.4477 10.5 13 10.9477 13 11.5V14.765C12.811 15.0276 12.6437 15.3051 12.5 15.595C11.9596 15.6444 11.4233 15.7313 10.895 15.855C10.6012 15.928 10.3018 15.9765 10 16C9.33722 15.9209 8.69195 15.7334 8.09 15.445L8.33 14.945C8.64113 14.3396 8.50565 13.6006 8 13.145V8.95L15.5 3.815ZM17 13.525C16.0369 13.0314 14.8787 13.1183 14 13.75V11.5H17V13.525ZM1.875 25H1.5V11.5L7.19 13.81C7.31888 13.862 7.42033 13.9652 7.47 14.095C7.52231 14.2326 7.51134 14.3862 7.44 14.515L2.31 24.735C2.22423 24.8961 2.0575 24.9977 1.875 25ZM5.72 25.835C5.42521 25.6991 5.29562 25.3505 5.43 25.055L6 23.855C6.13595 23.5602 6.48449 23.4306 6.78 23.565C6.92292 23.6281 7.03333 23.7476 7.085 23.895C7.14474 24.0408 7.14474 24.2042 7.085 24.35L6.5 25.55C6.43482 25.6916 6.31579 25.8014 6.16934 25.8549C6.02289 25.9084 5.86114 25.9013 5.72 25.835ZM8.415 26.835C8.23285 26.9122 8.02715 26.9122 7.845 26.835C7.66318 26.754 7.52231 26.6023 7.455 26.415C7.38023 26.2306 7.38023 26.0244 7.455 25.84L8.315 24C8.39785 23.8195 8.54889 23.6793 8.735 23.61C8.81853 23.5805 8.90642 23.5653 8.995 23.565C9.10339 23.5644 9.2107 23.5865 9.31 23.63C9.4908 23.7149 9.6309 23.8676 9.7 24.055C9.77751 24.2388 9.77751 24.4462 9.7 24.63L8.84 26.45C8.75509 26.6308 8.60241 26.7709 8.415 26.84V26.835ZM10.115 27.835C9.7393 27.6586 9.57459 27.2134 9.745 26.835L10.375 25.5C10.4592 25.3205 10.6098 25.1807 10.795 25.11C10.8785 25.0805 10.9664 25.0653 11.055 25.065C11.1641 25.0631 11.272 25.0871 11.37 25.135C11.5515 25.2165 11.6922 25.368 11.76 25.555C11.8296 25.7422 11.8206 25.9496 11.735 26.13L11.155 27.4L11.115 27.485C11.0323 27.6674 10.88 27.8092 10.6922 27.8787C10.5044 27.9482 10.2965 27.9396 10.115 27.855V27.835ZM12.16 28.775C12.0397 28.7198 11.9462 28.6191 11.9 28.495C11.8486 28.3718 11.8486 28.2332 11.9 28.11L12.055 27.775L12.52 26.775C12.6101 26.5951 12.7992 26.4867 13 26.5C13.0724 26.4996 13.1441 26.515 13.21 26.545C13.3331 26.5995 13.429 26.7013 13.476 26.8274C13.5231 26.9535 13.5173 27.0932 13.46 27.215L12.835 28.57C12.7778 28.6917 12.6739 28.7852 12.5469 28.8295C12.4199 28.8737 12.2804 28.8649 12.16 28.805V28.775ZM22.58 25.18C22.2419 25.5212 21.6968 25.541 21.335 25.225L18.905 23.095L18.33 22.595C18.2796 22.5494 18.2199 22.5153 18.155 22.495C18.1301 22.4926 18.1049 22.4926 18.08 22.495C17.9788 22.4755 17.874 22.4877 17.78 22.53C17.722 22.5611 17.6696 22.6016 17.625 22.65C17.537 22.7445 17.4918 22.8711 17.5 23C17.4979 23.0149 17.4979 23.0301 17.5 23.045C17.5164 23.1582 17.5711 23.2623 17.655 23.34L20.04 25.43C20.3797 25.7476 20.3976 26.2803 20.08 26.62C19.7624 26.9597 19.2297 26.9776 18.89 26.66L18.835 26.605L16.835 24.605C16.6389 24.4089 16.3211 24.4089 16.125 24.605C15.9289 24.8011 15.9289 25.1189 16.125 25.315L18.125 27.315C18.2307 27.4193 18.2901 27.5616 18.2901 27.71C18.2901 27.8585 18.2307 28.0007 18.125 28.105C17.9017 28.3152 17.5533 28.3152 17.33 28.105L16.9 27.67L16.34 27.11C16.2461 27.0153 16.1183 26.9621 15.985 26.9621C15.8517 26.9621 15.7239 27.0153 15.63 27.11C15.5353 27.2039 15.4821 27.3317 15.4821 27.465C15.4821 27.5983 15.5353 27.7261 15.63 27.82L16.19 28.38C16.3127 28.4973 16.3815 28.6602 16.38 28.83C16.3696 29.0619 16.2345 29.2699 16.0269 29.3737C15.8193 29.4775 15.5717 29.4608 15.38 29.33L14.05 28.3L14.36 27.62C14.5296 27.2576 14.5474 26.8424 14.4093 26.4668C14.2713 26.0912 13.9889 25.7864 13.625 25.62C13.3589 25.4998 13.0635 25.4598 12.775 25.505C12.7577 25.4049 12.7326 25.3062 12.7 25.21C12.4057 24.4034 11.567 23.932 10.725 24.1C10.6615 23.5701 10.3589 23.0984 9.90376 22.8196C9.4486 22.5409 8.89091 22.4858 8.39 22.67C8.14633 22.7625 7.92609 22.9076 7.745 23.095C7.59636 22.9055 7.40428 22.7546 7.185 22.655C6.38832 22.2867 5.44387 22.6336 5.075 23.43L4.89 23.84L4.07 23.45L7.64 16.34C8.38258 16.6948 9.18108 16.9181 10 17C10.3662 16.9778 10.7295 16.9209 11.085 16.83C11.365 16.77 11.665 16.71 11.98 16.66L11.16 18.5C10.7781 19.3708 11.148 20.3879 12 20.81H12.05C12.2841 20.9222 12.5404 20.9803 12.8 20.98C13.3133 20.9822 13.8022 20.7614 14.14 20.375L16.115 18.175L22.54 23.88C22.7295 24.0465 22.8414 24.2842 22.849 24.5363C22.8566 24.7885 22.7592 25.0324 22.58 25.21V25.18ZM23.08 22.985L15.83 16.625C15.6215 16.4571 15.3178 16.4831 15.141 16.6841C14.9642 16.885 14.977 17.1896 15.17 17.375L15.35 17.535L13.38 19.73C13.1453 19.998 12.7603 20.0758 12.44 19.92H12.405C12.0546 19.7209 11.9103 19.29 12.07 18.92L13.23 16.35C13.5035 15.743 13.8963 15.1971 14.385 14.745C15.0484 14.13 16.0546 14.0713 16.785 14.605L19.83 16.825C20.5078 17.3115 21.3837 17.4278 22.165 17.135L23.665 16.58L26.4 21.635L23.08 22.985ZM29.135 23.985C28.9559 23.9896 28.7881 23.898 28.695 23.745L23.56 14.245C23.5046 14.1455 23.4955 14.0268 23.535 13.92C23.5829 13.7982 23.6815 13.7033 23.805 13.66L29.5 11.465V24L29.135 23.985Z" fill="#1D4279"/>
<path d="M15.5 9.5C16.6046 9.5 17.5 8.60457 17.5 7.5C17.5 6.39543 16.6046 5.5 15.5 5.5C14.3954 5.5 13.5 6.39543 13.5 7.5C13.5 8.60457 14.3954 9.5 15.5 9.5ZM15.5 6.5C16.0523 6.5 16.5 6.94772 16.5 7.5C16.5 8.05229 16.0523 8.5 15.5 8.5C14.9477 8.5 14.5 8.05229 14.5 7.5C14.5 6.94772 14.9477 6.5 15.5 6.5Z" fill="#EDA749"/>
</g>
<defs>
<clipPath id="clip0_841_10943">
<rect width="30" height="30" fill="white" transform="translate(0.5 0.5)"/>
</clipPath>
</defs>
</svg>
