<svg width="14" height="15" viewBox="0 0 14 15" fill="none" xmlns="http://www.w3.org/2000/svg">
<path d="M1.06607 3.39407C0.84828 3.39407 0.639395 3.48059 0.485393 3.63459C0.33139 3.7886 0.244873 3.99747 0.244873 4.21526V12.0987H1.82155V10.7848H11.8072V12.0987H13.3839V7.10584C13.3839 6.93329 13.3499 6.76244 13.2839 6.60303C13.2178 6.44362 13.121 6.29878 12.999 6.17677C12.877 6.05476 12.7322 5.95799 12.5728 5.89196C12.4134 5.82593 12.2425 5.79194 12.07 5.79194H5.23769C5.168 5.79194 5.10115 5.81963 5.05187 5.86891C5.00259 5.91819 4.97491 5.98503 4.97491 6.05472V8.41974H1.85441V4.21526C1.85458 4.00304 1.77257 3.79899 1.6256 3.6459C1.47863 3.49281 1.27812 3.40256 1.06607 3.39407ZM3.43107 8.38689C3.69094 8.38689 3.94497 8.30983 4.16104 8.16546C4.37711 8.02109 4.54551 7.81588 4.64496 7.5758C4.74441 7.33572 4.77044 7.07153 4.71974 6.81666C4.66904 6.56179 4.5439 6.32767 4.36015 6.14392C4.17639 5.96017 3.94229 5.83504 3.68742 5.78434C3.43255 5.73364 3.16836 5.75966 2.92828 5.85911C2.6882 5.95855 2.48298 6.12696 2.3386 6.34303C2.19423 6.5591 2.11719 6.81312 2.11719 7.07299C2.11719 7.42146 2.25562 7.75566 2.50202 8.00206C2.74843 8.24847 3.0826 8.38689 3.43107 8.38689ZM1.06607 3.91963C1.13577 3.91963 1.20259 3.94732 1.25187 3.9966C1.30115 4.04588 1.32883 4.11272 1.32883 4.18241V8.91245H12.8583V11.5403H12.3327V10.2264H1.36169V11.5403H0.836116V4.14956C0.843077 4.09099 0.869541 4.03647 0.911248 3.99476C0.952955 3.95306 1.0075 3.92659 1.06607 3.91963ZM3.43107 6.28465C3.60164 6.3344 3.7515 6.43813 3.8581 6.58028C3.96471 6.72242 4.02233 6.89531 4.02233 7.07299C4.02233 7.25067 3.96471 7.42356 3.8581 7.56571C3.7515 7.70785 3.60164 7.81158 3.43107 7.86133C3.30869 7.89703 3.17969 7.90374 3.05426 7.88093C2.92883 7.85813 2.81044 7.80643 2.70845 7.72994C2.60646 7.65345 2.52368 7.55427 2.46666 7.44024C2.40965 7.32621 2.37995 7.20047 2.37995 7.07299C2.37995 6.9455 2.40965 6.81977 2.46666 6.70574C2.52368 6.59172 2.60646 6.49253 2.70845 6.41604C2.81044 6.33955 2.92883 6.28786 3.05426 6.26505C3.17969 6.24225 3.30869 6.24895 3.43107 6.28465ZM5.53331 6.28465H12.1028C12.3206 6.28465 12.5295 6.37117 12.6835 6.52517C12.8375 6.67917 12.924 6.88805 12.924 7.10584V8.41974H5.53331V6.28465Z" fill="black" fill-opacity="0.85"/>
</svg>
