<svg width="20" height="21" viewBox="0 0 20 21" fill="none" xmlns="http://www.w3.org/2000/svg">
<g clip-path="url(#clip0_696_62092)">
<path d="M16.7857 16.2116H16.25V8.62227C16.25 5.47272 13.9219 2.87004 10.8929 2.437V1.5687C10.8929 1.0754 10.4933 0.675842 10 0.675842C9.5067 0.675842 9.10714 1.0754 9.10714 1.5687V2.437C6.07813 2.87004 3.75 5.47272 3.75 8.62227V16.2116H3.21429C2.8192 16.2116 2.5 16.5308 2.5 16.9258V17.6401C2.5 17.7383 2.58036 17.8187 2.67857 17.8187H7.5C7.5 19.1982 8.62054 20.3187 10 20.3187C11.3795 20.3187 12.5 19.1982 12.5 17.8187H17.3214C17.4196 17.8187 17.5 17.7383 17.5 17.6401V16.9258C17.5 16.5308 17.1808 16.2116 16.7857 16.2116ZM10 18.8901C9.40848 18.8901 8.92857 18.4102 8.92857 17.8187H11.0714C11.0714 18.4102 10.5915 18.8901 10 18.8901ZM5.35714 16.2116V8.62227C5.35714 7.3812 5.83929 6.21602 6.71652 5.33879C7.59375 4.46156 8.75893 3.97941 10 3.97941C11.2411 3.97941 12.4062 4.46156 13.2835 5.33879C14.1607 6.21602 14.6429 7.3812 14.6429 8.62227V16.2116H5.35714Z" fill="#EDA749"/>
</g>
<defs>
<clipPath id="clip0_696_62092">
<rect width="20" height="20" fill="white" transform="translate(0 0.5)"/>
</clipPath>
</defs>
</svg>
