<svg width="12" height="12" viewBox="0 0 12 12" fill="none" xmlns="http://www.w3.org/2000/svg">
<path d="M2.68927 4.11475H4.5224V4.88441H2.68927V4.11475Z" fill="black"/>
<path d="M2.68933 5.86523H4.52246V6.6349H2.68933V5.86523Z" fill="black"/>
<path d="M2.68933 7.61475H4.52246V8.38441H2.68933V7.61475Z" fill="black"/>
<path d="M2.68933 9.36523H4.52246V10.1349H2.68933V9.36523Z" fill="black"/>
<path d="M6.39641 11.1596V4.87072L10.4154 4.86603V9.10857H11.1846V4.48075C11.1846 4.2708 11.0092 4.0959 10.7995 4.0959L6.01133 4.10149C5.7991 4.10175 5.62718 4.27395 5.62718 4.48634V11.1596H1.58462V3.54434L5.62718 2.45682V3.33054H6.39641V1.95485C6.39641 1.70588 6.15254 1.51849 5.91192 1.58321L1.10013 2.87764C0.932154 2.92285 0.815385 3.07523 0.815385 3.24929V11.1596H0V11.9293H12V11.1596H6.39641Z" fill="black"/>
<path d="M10.4154 9.80127H11.1846V10.5182H10.4154V9.80127Z" fill="black"/>
<path d="M7.47748 5.86426H9.31061V6.63392H7.47748V5.86426Z" fill="black"/>
<path d="M7.47742 7.61475H9.31055V8.38441H7.47742V7.61475Z" fill="black"/>
<path d="M7.47742 9.36426H9.31055V10.1339H7.47742V9.36426Z" fill="black"/>
</svg>
