<svg width="31" height="31" viewBox="0 0 31 31" fill="none" xmlns="http://www.w3.org/2000/svg">
<path d="M15.8787 1.87812C15.6556 1.70812 15.3449 1.70812 15.1212 1.87812L9.24994 6.35125V2.375C9.24994 2.03 8.96994 1.75 8.62494 1.75H4.87494C4.52994 1.75 4.24994 2.03 4.24994 2.375V10.1606L1.99619 11.8775C1.84119 11.9963 1.74994 12.18 1.74994 12.375V15.5C1.74994 15.845 2.02994 16.125 2.37494 16.125H4.24994V28.625C4.24994 28.97 4.52994 29.25 4.87494 29.25H26.1249C26.4699 29.25 26.7499 28.97 26.7499 28.625C26.7499 28.625 26.7481 27.9931 26.7481 27.99C28.2637 26.8481 29.2499 25.0394 29.2499 23C29.2499 20.9606 28.2637 19.1519 26.7481 18.01C26.7481 18.0069 26.7499 18.0038 26.7499 18V16.125H28.6249C28.9699 16.125 29.2499 15.845 29.2499 15.5V12.375C29.2499 12.18 29.1587 11.9963 29.0037 11.8781L15.8787 1.87812ZM5.49994 3H7.99994V7.30375L5.49994 9.20875V3ZM19.2518 18.01C17.7362 19.1519 16.7499 20.9606 16.7499 23C16.7499 25.0456 17.7424 26.8594 19.2656 28H11.7499V16.125H19.2499C19.2499 16.125 19.2518 18.0069 19.2518 18.01ZM27.9999 23C27.9999 25.7569 25.7568 28 22.9999 28C20.2431 28 17.9999 25.7569 17.9999 23C17.9999 20.2431 20.2431 18 22.9999 18C25.7568 18 27.9999 20.2431 27.9999 23ZM27.9999 14.875H26.1249C25.7799 14.875 25.4999 15.155 25.4999 15.5V17.2756C24.7337 16.9394 22.7974 16.2913 20.4999 17.2756V15.5C20.4999 15.155 20.2199 14.875 19.8749 14.875H11.1249C10.7799 14.875 10.4999 15.155 10.4999 15.5V28H5.49994V15.5C5.49994 15.155 5.21994 14.875 4.87494 14.875H2.99994V12.6844L15.4999 3.16063L27.9999 12.6844V14.875Z" fill="#1D4279"/>
<path d="M12.9999 9.24997C12.9999 10.6287 14.1211 11.75 15.4999 11.75C16.8786 11.75 17.9999 10.6287 17.9999 9.24997C17.9999 7.87122 16.8786 6.74997 15.4999 6.74997C14.1211 6.74997 12.9999 7.87122 12.9999 9.24997ZM16.7499 9.24997C16.7499 9.93934 16.1893 10.5 15.4999 10.5C14.8105 10.5 14.2499 9.93934 14.2499 9.24997C14.2499 8.56059 14.8105 7.99997 15.4999 7.99997C16.1893 7.99997 16.7499 8.56059 16.7499 9.24997Z" fill="#1D4279"/>
<path d="M23.6261 19.9656C23.6261 19.9656 23.6892 19.25 23.0011 19.25C22.3023 19.25 22.3761 19.9656 22.3761 19.9656C21.6542 20.1944 21.1286 20.8625 21.1261 21.6588C21.1217 23.0331 22.2698 23.3019 23.3305 23.8631C23.5105 23.9588 23.6261 24.1375 23.6261 24.3413C23.6261 24.6356 23.3861 24.865 23.0923 24.875C22.2723 24.9019 22.3761 24.25 22.3761 24.25C22.3761 23.905 22.0961 23.625 21.7511 23.625C21.4061 23.625 21.1261 23.905 21.1261 24.25C21.1261 24.25 20.9798 25.5088 22.3761 26.0344C22.3761 26.0344 22.3111 26.75 23.0011 26.75C23.6942 26.75 23.6261 26.0344 23.6261 26.0344C24.348 25.8056 24.8761 25.1375 24.8761 24.3413C24.8761 23.6619 24.5542 23.1175 23.8898 22.7456C23.0323 22.265 22.3761 22.1981 22.3761 21.6588C22.3761 21.3644 22.6161 21.14 22.9098 21.125C23.6942 21.0844 23.6261 21.75 23.6261 21.75C23.6261 22.095 23.9061 22.375 24.2511 22.375C24.5961 22.375 24.8761 22.095 24.8761 21.75C24.8761 21.75 24.9767 20.4531 23.6261 19.9656Z" fill="#EDA749"/>
</svg>
