<svg width="18" height="19" viewBox="0 0 18 19" fill="none" xmlns="http://www.w3.org/2000/svg">
<path d="M3.17891 7.05392H4.71462V8.58963C4.71462 8.62981 4.7548 8.66106 4.80391 8.66106H5.87533C5.92444 8.66106 5.96462 8.62981 5.96462 8.5874V7.05392H7.50033C7.54051 7.05392 7.57176 7.01374 7.57176 6.96464V5.89321C7.57176 5.8441 7.54051 5.80392 7.4981 5.80392H5.96462V4.26821C5.96462 4.22803 5.92444 4.19678 5.87533 4.19678H4.80391C4.7548 4.19678 4.71462 4.22803 4.71462 4.26821V5.80392H3.17891C3.13873 5.80392 3.10748 5.8441 3.10748 5.89321V6.96464C3.10748 7.01374 3.13873 7.05392 3.17891 7.05392ZM10.5003 7.05392H14.8218C14.8619 7.05392 14.8932 7.01374 14.8932 6.96464V5.89321C14.8932 5.8441 14.8619 5.80392 14.8195 5.80392H10.5003C10.4602 5.80392 10.4289 5.8441 10.4289 5.89321V6.96464C10.4289 7.01374 10.4602 7.05392 10.5003 7.05392ZM10.5003 12.9691H14.8218C14.8619 12.9691 14.8932 12.9289 14.8932 12.8798V11.8084C14.8932 11.7593 14.8619 11.7191 14.8195 11.7191H10.5003C10.4602 11.7191 10.4289 11.7593 10.4289 11.8084V12.8798C10.4289 12.9289 10.4602 12.9691 10.5003 12.9691ZM10.5003 15.2905H14.8218C14.8619 15.2905 14.8932 15.2503 14.8932 15.2012V14.1298C14.8932 14.0807 14.8619 14.0405 14.8195 14.0405H10.5003C10.4602 14.0405 10.4289 14.0807 10.4289 14.1298V15.2012C10.4289 15.2503 10.4602 15.2905 10.5003 15.2905ZM6.13203 13.4825L7.4981 11.8106C7.59408 11.6945 7.51373 11.5182 7.36641 11.5182H6.23248C6.18114 11.5182 6.13203 11.5405 6.10078 11.5829L5.34185 12.5115L4.58292 11.5829C4.56696 11.5633 4.54691 11.5473 4.52418 11.5361C4.50144 11.5249 4.47655 11.5188 4.45123 11.5182H3.31507C3.16774 11.5182 3.08739 11.6945 3.18337 11.8106L4.54944 13.4825L3.14989 15.1968C3.05167 15.3128 3.13203 15.4892 3.27935 15.4892H4.41328C4.46462 15.4892 4.51373 15.4669 4.54498 15.4245L5.33739 14.4535L6.1298 15.4245C6.16328 15.4646 6.21239 15.4892 6.26149 15.4892H7.39542C7.54275 15.4892 7.6231 15.3128 7.52712 15.1968L6.13203 13.4825ZM17.2146 0.915527H0.786048C0.390959 0.915527 0.0717621 1.23472 0.0717621 1.62981V18.0584C0.0717621 18.4535 0.390959 18.7727 0.786048 18.7727H17.2146C17.6097 18.7727 17.9289 18.4535 17.9289 18.0584V1.62981C17.9289 1.23472 17.6097 0.915527 17.2146 0.915527ZM16.411 17.2548H1.58962V2.43338H16.411V17.2548Z" fill="#D46B08"/>
</svg>
