<svg width="31" height="31" viewBox="0 0 31 31" fill="none" xmlns="http://www.w3.org/2000/svg">
<g clip-path="url(#clip0_841_10977)">
<path d="M4.97476 1.4375H22.156C22.9315 1.4375 23.5623 2.0683 23.5623 2.84375V13.1265C23.5623 13.3853 23.3524 13.5952 23.0935 13.5952C22.8346 13.5952 22.6248 13.3853 22.6248 13.1265V2.84375C22.6248 2.58534 22.4144 2.375 22.156 2.375H4.97476C4.71635 2.375 4.50601 2.58534 4.50601 2.84375V23.7565C4.50601 24.0149 4.71635 24.2252 4.97476 24.2252H8.43662C8.69549 24.2252 8.90537 24.4351 8.90537 24.694C8.90537 24.9528 8.69549 25.1627 8.43662 25.1627H4.97476C4.19931 25.1627 3.56851 24.5319 3.56851 23.7565V2.84375C3.56851 2.0683 4.19931 1.4375 4.97476 1.4375Z" fill="#1D4279"/>
<path d="M20.1928 5.1875H6.93784C6.67897 5.1875 6.46909 4.97762 6.46909 4.71875C6.46909 4.45988 6.67897 4.25 6.93784 4.25H20.1928C20.4517 4.25 20.6616 4.45988 20.6616 4.71875C20.6616 4.97762 20.4517 5.1875 20.1928 5.1875Z" fill="#1D4279"/>
<path d="M20.1928 8.31564H6.93784C6.67897 8.31564 6.46909 8.10576 6.46909 7.84689C6.46909 7.58803 6.67897 7.37814 6.93784 7.37814H20.1928C20.4517 7.37814 20.6616 7.58803 20.6616 7.84689C20.6616 8.10576 20.4517 8.31564 20.1928 8.31564Z" fill="#1D4279"/>
<path d="M20.1928 11.4438H6.93784C6.67897 11.4438 6.46909 11.2339 6.46909 10.975C6.46909 10.7161 6.67897 10.5063 6.93784 10.5063H20.1928C20.4517 10.5063 20.6616 10.7161 20.6616 10.975C20.6616 11.2339 20.4517 11.4438 20.1928 11.4438Z" fill="#1D4279"/>
<path d="M6.93785 13.6344H12.3356C12.5944 13.6344 12.8043 13.8443 12.8043 14.1031C12.8043 14.362 12.5944 14.5719 12.3356 14.5719H6.93785C6.67898 14.5719 6.4691 14.362 6.4691 14.1031C6.4691 13.8443 6.67898 13.6344 6.93785 13.6344Z" fill="#1D4279"/>
<path d="M25.8312 15.225H18.0335C17.9904 15.225 17.9554 15.26 17.9554 15.3031C17.9554 15.3463 17.9904 15.3813 18.0335 15.3813H25.8312C25.8744 15.3813 25.9094 15.3463 25.9094 15.3031C25.9094 15.26 25.8744 15.225 25.8312 15.225Z" fill="#1D4279" stroke="#EDA749" stroke-width="0.78125"/>
<rect x="10.85" y="18.05" width="14.7" height="11.7" rx="2.25" stroke="#EDA749" stroke-width="1.5"/>
<rect x="13.2" y="20.4" width="3.4" height="3.4" rx="1.7" stroke="#EDA749" stroke-width="1.4"/>
<rect x="19.8" y="24" width="3.4" height="3.4" rx="1.7" stroke="#EDA749" stroke-width="1.4"/>
</g>
<defs>
<clipPath id="clip0_841_10977">
<rect width="30" height="30" fill="white" transform="translate(0.5 0.5)"/>
</clipPath>
</defs>
</svg>
