<svg width="15" height="14" viewBox="0 0 15 14" fill="none" xmlns="http://www.w3.org/2000/svg">
<path d="M8.30901 6.99927L12.4106 2.11021C12.4793 2.02896 12.4215 1.90552 12.3153 1.90552H11.0684C10.9949 1.90552 10.9246 1.93833 10.8762 1.99458L7.49339 6.02739L4.11057 1.99458C4.0637 1.93833 3.99339 1.90552 3.91839 1.90552H2.67151C2.56526 1.90552 2.50745 2.02896 2.5762 2.11021L6.67776 6.99927L2.5762 11.8883C2.5608 11.9064 2.55092 11.9286 2.54773 11.9521C2.54454 11.9757 2.54818 11.9997 2.55822 12.0212C2.56826 12.0428 2.58426 12.061 2.60435 12.0737C2.62443 12.0865 2.64774 12.0931 2.67151 12.093H3.91839C3.99182 12.093 4.06214 12.0602 4.11057 12.004L7.49339 7.97114L10.8762 12.004C10.9231 12.0602 10.9934 12.093 11.0684 12.093H12.3153C12.4215 12.093 12.4793 11.9696 12.4106 11.8883L8.30901 6.99927Z" fill="black" fill-opacity="0.25"/>
</svg>
