<svg width="4" height="16" viewBox="0 0 4 16" fill="none" xmlns="http://www.w3.org/2000/svg">
<path d="M0.75 1.73511C0.75 2.06663 0.881696 2.38457 1.11612 2.61899C1.35054 2.85341 1.66848 2.98511 2 2.98511C2.33152 2.98511 2.64946 2.85341 2.88388 2.61899C3.1183 2.38457 3.25 2.06663 3.25 1.73511C3.25 1.40359 3.1183 1.08564 2.88388 0.851224C2.64946 0.616804 2.33152 0.485107 2 0.485107C1.66848 0.485107 1.35054 0.616804 1.11612 0.851224C0.881696 1.08564 0.75 1.40359 0.75 1.73511ZM0.75 7.98511C0.75 8.31663 0.881696 8.63457 1.11612 8.86899C1.35054 9.10341 1.66848 9.23511 2 9.23511C2.33152 9.23511 2.64946 9.10341 2.88388 8.86899C3.1183 8.63457 3.25 8.31663 3.25 7.98511C3.25 7.65359 3.1183 7.33564 2.88388 7.10122C2.64946 6.8668 2.33152 6.73511 2 6.73511C1.66848 6.73511 1.35054 6.8668 1.11612 7.10122C0.881696 7.33564 0.75 7.65359 0.75 7.98511ZM0.75 14.2351C0.75 14.5666 0.881696 14.8846 1.11612 15.119C1.35054 15.3534 1.66848 15.4851 2 15.4851C2.33152 15.4851 2.64946 15.3534 2.88388 15.119C3.1183 14.8846 3.25 14.5666 3.25 14.2351C3.25 13.9036 3.1183 13.5856 2.88388 13.3512C2.64946 13.1168 2.33152 12.9851 2 12.9851C1.66848 12.9851 1.35054 13.1168 1.11612 13.3512C0.881696 13.5856 0.75 13.9036 0.75 14.2351Z" fill="white"/>
</svg>
