<svg width="15" height="14" viewBox="0 0 15 14" fill="none" xmlns="http://www.w3.org/2000/svg">
<path d="M3.52656 10.7485C3.55781 10.7485 3.58906 10.7454 3.62031 10.7407L6.24844 10.2798C6.27969 10.2735 6.30938 10.2595 6.33125 10.236L12.9547 3.6126C12.9692 3.59814 12.9807 3.58097 12.9885 3.56207C12.9963 3.54317 13.0004 3.52291 13.0004 3.50244C13.0004 3.48198 12.9963 3.46171 12.9885 3.44281C12.9807 3.42391 12.9692 3.40674 12.9547 3.39229L10.3578 0.793848C10.3281 0.76416 10.2891 0.748535 10.2469 0.748535C10.2047 0.748535 10.1656 0.76416 10.1359 0.793848L3.5125 7.41729C3.48906 7.44072 3.475 7.46885 3.46875 7.5001L3.00781 10.1282C2.99261 10.2119 2.99804 10.2981 3.02364 10.3792C3.04923 10.4603 3.09421 10.534 3.15469 10.5938C3.25781 10.6938 3.3875 10.7485 3.52656 10.7485ZM4.57969 8.02354L10.2469 2.35791L11.3922 3.50322L5.725 9.16885L4.33594 9.41416L4.57969 8.02354ZM13.25 12.061H1.75C1.47344 12.061 1.25 12.2845 1.25 12.561V13.1235C1.25 13.1923 1.30625 13.2485 1.375 13.2485H13.625C13.6938 13.2485 13.75 13.1923 13.75 13.1235V12.561C13.75 12.2845 13.5266 12.061 13.25 12.061Z" fill="black" fill-opacity="0.25"/>
</svg>
