<svg width="13" height="11" viewBox="0 0 13 11" fill="none" xmlns="http://www.w3.org/2000/svg">
<path d="M12.7418 5.12658C11.3664 2.22914 9.28725 0.770996 6.50008 0.770996C3.71147 0.770996 1.63379 2.22914 0.258343 5.12803C0.203173 5.24485 0.174561 5.37244 0.174561 5.50163C0.174561 5.63083 0.203173 5.75842 0.258343 5.87524C1.63379 8.77267 3.71292 10.2308 6.50008 10.2308C9.2887 10.2308 11.3664 8.77267 12.7418 5.87379C12.8535 5.63874 12.8535 5.36597 12.7418 5.12658ZM6.50008 9.18618C4.15979 9.18618 2.44629 7.99934 1.2377 5.50091C2.44629 3.00247 4.15979 1.81564 6.50008 1.81564C8.84037 1.81564 10.5539 3.00247 11.7625 5.50091C10.5553 7.99934 8.84182 9.18618 6.50008 9.18618ZM6.44205 2.94734C5.03178 2.94734 3.88848 4.09064 3.88848 5.50091C3.88848 6.91117 5.03178 8.05448 6.44205 8.05448C7.85232 8.05448 8.99562 6.91117 8.99562 5.50091C8.99562 4.09064 7.85232 2.94734 6.44205 2.94734ZM6.44205 7.12591C5.54395 7.12591 4.81705 6.39901 4.81705 5.50091C4.81705 4.6028 5.54395 3.87591 6.44205 3.87591C7.34015 3.87591 8.06705 4.6028 8.06705 5.50091C8.06705 6.39901 7.34015 7.12591 6.44205 7.12591Z" fill="black"/>
</svg>
