<svg width="18" height="19" viewBox="0 0 18 19" fill="none" xmlns="http://www.w3.org/2000/svg">
<path d="M16.2246 4.98981C15.989 4.44425 15.6493 3.94987 15.2244 3.53434C14.7993 3.11757 14.298 2.78637 13.7479 2.55875C13.1774 2.32179 12.5656 2.20049 11.9479 2.20192C11.0813 2.20192 10.2357 2.43922 9.50098 2.88746C9.3252 2.99469 9.1582 3.11246 9 3.24078C8.8418 3.11246 8.6748 2.99469 8.49902 2.88746C7.76426 2.43922 6.91875 2.20192 6.05215 2.20192C5.42812 2.20192 4.82344 2.32145 4.25215 2.55875C3.7002 2.78727 3.20273 3.11598 2.77559 3.53434C2.35019 3.9494 2.01037 4.4439 1.77539 4.98981C1.53105 5.55758 1.40625 6.16051 1.40625 6.78102C1.40625 7.36637 1.52578 7.97633 1.76309 8.59684C1.96172 9.11539 2.24648 9.65328 2.61035 10.1964C3.18691 11.056 3.97969 11.9525 4.96406 12.8613C6.59531 14.3677 8.21074 15.4084 8.2793 15.4506L8.6959 15.7177C8.88047 15.8355 9.11777 15.8355 9.30234 15.7177L9.71895 15.4506C9.7875 15.4066 11.4012 14.3677 13.0342 12.8613C14.0186 11.9525 14.8113 11.056 15.3879 10.1964C15.7518 9.65328 16.0383 9.11539 16.2352 8.59684C16.4725 7.97633 16.592 7.36637 16.592 6.78102C16.5938 6.16051 16.4689 5.55758 16.2246 4.98981Z" fill="white"/>
</svg>
