<svg width="30" height="31" viewBox="0 0 30 31" fill="none" xmlns="http://www.w3.org/2000/svg">
<path d="M18.8839 24.3748C18.4479 24.3748 18.0695 24.0507 18.013 23.6069C17.9519 23.1253 18.2924 22.6854 18.7738 22.6241C21.551 22.2702 24.0381 21.5177 25.7766 20.5046C27.3667 19.5783 28.2421 18.4893 28.2421 17.4383C28.2421 16.2799 27.2177 15.3321 26.358 14.7407C25.9581 14.4656 25.857 13.9186 26.1321 13.5185C26.4072 13.1186 26.9545 13.0175 27.3543 13.2926C29.0851 14.4832 30 15.9167 30 17.4385C30 19.1657 28.8457 20.7511 26.6617 22.0235C24.6959 23.1688 22.0452 23.9795 18.996 24.3679C18.9583 24.3725 18.9207 24.3748 18.8839 24.3748Z" fill="#262626"/>
<path d="M14.7857 23.1159L12.442 20.7721C12.0987 20.4288 11.5423 20.4288 11.1989 20.7721C10.8558 21.1152 10.8558 21.6718 11.1989 22.0149L11.8837 22.6998C9.25802 22.4285 6.87262 21.8172 5.02555 20.9289C2.94891 19.9303 1.75781 18.6579 1.75781 17.4385C1.75781 16.4041 2.61062 15.3291 4.159 14.4113C4.57671 14.1639 4.7145 13.6246 4.46708 13.2071C4.21943 12.7894 3.68018 12.6516 3.2627 12.8991C0.566024 14.4976 0 16.2499 0 17.4385C0 19.3885 1.51428 21.1907 4.26383 22.5132C6.39792 23.5393 9.15846 24.2266 12.166 24.4926L11.1989 25.4596C10.8558 25.8027 10.8558 26.3593 11.1989 26.7027C11.3706 26.8741 11.5956 26.9599 11.8206 26.9599C12.0453 26.9599 12.2703 26.8741 12.442 26.7027L14.7857 24.3589C15.1288 24.0156 15.1288 23.459 14.7857 23.1159Z" fill="#262626"/>
<path d="M9.20493 15.6791V15.4676C9.20493 14.7217 8.74832 14.577 8.13606 14.577C7.75749 14.577 7.63504 14.2431 7.63504 13.9091C7.63504 13.575 7.75749 13.241 8.13606 13.241C8.55903 13.241 9.00443 13.1854 9.00443 12.2836C9.00443 11.638 8.63708 11.4821 8.18046 11.4821C7.63504 11.4821 7.35672 11.6157 7.35672 12.0499C7.35672 12.4283 7.18963 12.6844 6.54396 12.6844C5.74242 12.6844 5.64239 12.5173 5.64239 11.9829C5.64239 11.1147 6.26564 9.99023 8.18046 9.99023C9.59449 9.99023 10.6631 10.5022 10.6631 12.0053C10.6631 12.8178 10.3626 13.575 9.80598 13.8311C10.4629 14.076 10.9415 14.5658 10.9415 15.4676V15.6791C10.9415 17.5049 9.68352 18.1952 8.12484 18.1952C6.21002 18.1952 5.47531 17.0263 5.47531 16.0911C5.47531 15.59 5.6868 15.4564 6.29906 15.4564C7.01156 15.4564 7.18963 15.6122 7.18963 16.0354C7.18963 16.5587 7.67967 16.6811 8.18046 16.6811C8.9376 16.6811 9.20493 16.4028 9.20493 15.6791Z" fill="#262626"/>
<path d="M17.6992 15.4676V15.5678C17.6992 17.4827 16.5078 18.1952 14.9716 18.1952C13.4353 18.1952 12.2328 17.4827 12.2328 15.5678V12.6176C12.2328 10.7027 13.4685 9.99023 15.0718 9.99023C16.9532 9.99023 17.6992 11.1591 17.6992 12.0831C17.6992 12.6176 17.443 12.7844 16.8864 12.7844C16.4078 12.7844 15.9846 12.662 15.9846 12.15C15.9846 11.727 15.5394 11.5043 15.0162 11.5043C14.3593 11.5043 13.9695 11.8494 13.9695 12.6176V13.6194C14.3259 13.2298 14.8269 13.1296 15.3614 13.1296C16.6303 13.1296 17.6992 13.6862 17.6992 15.4676ZM13.9695 15.6903C13.9695 16.4584 14.3481 16.7924 14.9716 16.7924C15.5951 16.7924 15.9624 16.4584 15.9624 15.6903V15.59C15.9624 14.7773 15.5951 14.4656 14.9604 14.4656C14.3593 14.4656 13.9695 14.7551 13.9695 15.4898V15.6903Z" fill="#262626"/>
<path d="M19.0461 15.5678V12.6176C19.0461 10.7027 20.2372 9.99023 21.7737 9.99023C23.31 9.99023 24.5123 10.7027 24.5123 12.6176V15.5678C24.5123 17.4827 23.31 18.1952 21.7737 18.1952C20.2372 18.1952 19.0461 17.4827 19.0461 15.5678ZM22.7755 12.6176C22.7755 11.8494 22.3972 11.5043 21.7737 11.5043C21.1502 11.5043 20.7829 11.8494 20.7829 12.6176V15.5678C20.7829 16.336 21.1502 16.6811 21.7737 16.6811C22.3972 16.6811 22.7755 16.336 22.7755 15.5678V12.6176Z" fill="#262626"/>
<path d="M26.6221 9.98192C25.168 9.98192 23.9854 8.79906 23.9854 7.34521C23.9854 5.89136 25.168 4.7085 26.6221 4.7085C28.076 4.7085 29.2588 5.89136 29.2588 7.34521C29.2588 8.79906 28.076 9.98192 26.6221 9.98192ZM26.6221 6.46631C26.1373 6.46631 25.7432 6.86067 25.7432 7.34521C25.7432 7.82998 26.1373 8.22411 26.6221 8.22411C27.1066 8.22411 27.501 7.82998 27.501 7.34521C27.501 6.86067 27.1066 6.46631 26.6221 6.46631Z" fill="#262626"/>
</svg>
