<svg width="17" height="24" viewBox="0 0 17 24" fill="none" xmlns="http://www.w3.org/2000/svg">
<path d="M15.5101 9.82986L10.903 9.1603L8.84352 4.9851C8.78727 4.87079 8.69473 4.77825 8.58042 4.722C8.29372 4.58046 7.94534 4.69841 7.80199 4.9851L5.74251 9.1603L1.13546 9.82986C1.00844 9.848 0.892313 9.90788 0.803402 9.99861C0.695913 10.1091 0.636682 10.2577 0.638723 10.4118C0.640764 10.566 0.703911 10.713 0.814289 10.8206L4.14755 14.0704L3.36005 18.6593C3.34159 18.766 3.3534 18.8758 3.39415 18.9762C3.43491 19.0766 3.50297 19.1635 3.59062 19.2272C3.67828 19.2909 3.78201 19.3287 3.89007 19.3364C3.99813 19.3441 4.10619 19.3214 4.20199 19.2708L8.32276 17.1043L12.4435 19.2708C12.556 19.3307 12.6867 19.3506 12.8119 19.3288C13.1276 19.2744 13.3399 18.975 13.2855 18.6593L12.498 14.0704L15.8312 10.8206C15.9219 10.7317 15.9818 10.6155 16 10.4885C16.049 10.171 15.8276 9.87704 15.5101 9.82986Z" fill="#FADB14"/>
</svg>
