<svg width="15" height="15" viewBox="0 0 15 15" fill="none" xmlns="http://www.w3.org/2000/svg">
<g clip-path="url(#clip0_2104_46693)">
<rect width="14" height="14" transform="translate(0.5 0.399902)" fill="white" fill-opacity="0.01"/>
<path d="M13.2516 1.80811H1.7485C1.36569 1.80811 1.12662 2.22529 1.31881 2.55811L4.95319 8.73623V12.4956C4.95319 12.7722 5.17506 12.9956 5.45006 12.9956H9.55006C9.82506 12.9956 10.0469 12.7722 10.0469 12.4956V8.73623L13.6829 2.55811C13.8735 2.22529 13.6344 1.80811 13.2516 1.80811ZM8.92819 11.8706H6.07194V9.43311H8.92975V11.8706H8.92819ZM9.07819 8.17373L8.92975 8.43311H6.07037L5.92194 8.17373L2.8235 2.93311H12.1766L9.07819 8.17373Z" fill="white"/>
</g>
<defs>
<clipPath id="clip0_2104_46693">
<rect width="14" height="14" fill="white" transform="translate(0.5 0.399902)"/>
</clipPath>
</defs>
</svg>
