<svg width="20" height="20" viewBox="0 0 20 20" fill="none" xmlns="http://www.w3.org/2000/svg">
<g clip-path="url(#clip0_1402_52782)">
<path d="M8.78588 2.87841C9.55019 2.49626 10.4498 2.49626 11.2141 2.87841L19.6453 7.09401C20.1456 7.34413 20.1456 8.05801 19.6453 8.30813L11.2141 12.5237C10.4498 12.9059 9.55019 12.9059 8.78588 12.5237L0.354691 8.30813C-0.145554 8.05801 -0.145554 7.34413 0.354692 7.09401L8.78588 2.87841Z" fill="#717171"/>
<path fill-rule="evenodd" clip-rule="evenodd" d="M19.8098 11.8263C19.9776 12.1615 19.8419 12.5692 19.5067 12.737L10.3153 17.337C10.1245 17.4325 9.89994 17.4327 9.70897 17.3376L0.494528 12.7493C0.158982 12.5823 0.022416 12.1748 0.189499 11.8392C0.356582 11.5037 0.764043 11.3671 1.09959 11.5342L9.56387 15.749C9.84522 15.8891 10.1761 15.8887 10.4572 15.7481L18.8991 11.5231C19.2343 11.3553 19.6421 11.4911 19.8098 11.8263Z" fill="#717171"/>
</g>
<defs>
<clipPath id="clip0_1402_52782">
<rect width="20" height="20" fill="white"/>
</clipPath>
</defs>
</svg>
