<svg width="12" height="24" viewBox="0 0 12 24" fill="none" xmlns="http://www.w3.org/2000/svg">
<path d="M10.9846 21.41L10.6492 22.7808C9.64322 23.1779 8.83961 23.4801 8.24121 23.6879C7.64216 23.8963 6.94611 24 6.15304 24C4.93515 24 3.98786 23.7017 3.31224 23.1091C2.63662 22.5141 2.2987 21.7602 2.2987 20.8456C2.2987 20.4915 2.32322 20.1274 2.3742 19.7563C2.4256 19.3849 2.50734 18.9665 2.61919 18.4989L3.87644 14.0489C3.98829 13.6228 4.08337 13.2191 4.15951 12.8373C4.23673 12.4578 4.27394 12.1087 4.27394 11.7945C4.27394 11.2262 4.15628 10.8287 3.92204 10.6052C3.6878 10.3824 3.24083 10.2692 2.57725 10.2692C2.25224 10.2692 1.91819 10.3213 1.57769 10.4219C1.23568 10.523 0.943364 10.6207 0.697937 10.7115L1.03414 9.33956C1.85775 9.00422 2.64501 8.71706 3.39806 8.47874C4.15112 8.23976 4.86267 8.12017 5.53571 8.12017C6.74521 8.12017 7.67852 8.41249 8.33392 8.99712C8.98932 9.58219 9.31692 10.3406 9.31692 11.2752C9.31692 11.4686 9.29541 11.8093 9.24916 12.2963C9.20399 12.7844 9.11989 13.2315 8.99728 13.6383L7.74541 18.0704C7.64281 18.4264 7.55053 18.8333 7.4703 19.2913C7.38749 19.7462 7.34791 20.0938 7.34791 20.327C7.34791 20.9155 7.47912 21.3173 7.74218 21.5309C8.00719 21.7445 8.46362 21.8507 9.11193 21.8507C9.41629 21.8507 9.7626 21.7967 10.1474 21.6907C10.5311 21.5847 10.811 21.4915 10.9846 21.41ZM11.3021 2.80273C11.3021 3.57493 11.011 4.23442 10.4262 4.77668C9.84283 5.32088 9.13989 5.5932 8.31757 5.5932C7.49267 5.5932 6.78801 5.32088 6.198 4.77668C5.60906 4.23421 5.31394 3.57493 5.31394 2.80273C5.31394 2.03203 5.60906 1.37147 6.198 0.82232C6.78693 0.274035 7.49289 0 8.31757 0C9.13968 0 9.84283 0.27468 10.4262 0.82232C11.0115 1.37147 11.3021 2.03225 11.3021 2.80273Z" fill="black"/>
</svg>
