<svg width="15" height="14" viewBox="0 0 15 14" fill="none" xmlns="http://www.w3.org/2000/svg">
<g clip-path="url(#clip0_1701_50472)">
<path d="M6.75009 7C6.75009 7.19891 6.82911 7.38968 6.96976 7.53033C7.11041 7.67098 7.30118 7.75 7.50009 7.75C7.699 7.75 7.88977 7.67098 8.03042 7.53033C8.17107 7.38968 8.25009 7.19891 8.25009 7C8.25009 6.80109 8.17107 6.61032 8.03042 6.46967C7.88977 6.32902 7.699 6.25 7.50009 6.25C7.30118 6.25 7.11041 6.32902 6.96976 6.46967C6.82911 6.61032 6.75009 6.80109 6.75009 7ZM9.87509 7C9.87509 7.19891 9.95411 7.38968 10.0948 7.53033C10.2354 7.67098 10.4262 7.75 10.6251 7.75C10.824 7.75 11.0148 7.67098 11.1554 7.53033C11.2961 7.38968 11.3751 7.19891 11.3751 7C11.3751 6.80109 11.2961 6.61032 11.1554 6.46967C11.0148 6.32902 10.824 6.25 10.6251 6.25C10.4262 6.25 10.2354 6.32902 10.0948 6.46967C9.95411 6.61032 9.87509 6.80109 9.87509 7ZM3.62509 7C3.62509 7.19891 3.70411 7.38968 3.84476 7.53033C3.98541 7.67098 4.17618 7.75 4.37509 7.75C4.574 7.75 4.76477 7.67098 4.90542 7.53033C5.04607 7.38968 5.12509 7.19891 5.12509 7C5.12509 6.80109 5.04607 6.61032 4.90542 6.46967C4.76477 6.32902 4.574 6.25 4.37509 6.25C4.17618 6.25 3.98541 6.32902 3.84476 6.46967C3.70411 6.61032 3.62509 6.80109 3.62509 7ZM13.9563 4.2875C13.6032 3.44844 13.097 2.69531 12.4517 2.04844C11.8109 1.40531 11.0501 0.894096 10.2126 0.54375C9.35321 0.182813 8.44071 0 7.50009 0H7.46884C6.52196 0.0046875 5.60478 0.192188 4.74228 0.560938C3.9119 0.914877 3.15831 1.427 2.52353 2.06875C1.88446 2.71406 1.3829 3.46406 1.03603 4.3C0.676651 5.16563 0.495401 6.08594 0.500089 7.03281C0.505391 8.11792 0.762107 9.18704 1.25009 10.1562V12.5312C1.25009 12.7219 1.32581 12.9047 1.46061 13.0395C1.5954 13.1743 1.77821 13.25 1.96884 13.25H4.3454C5.31461 13.738 6.38373 13.9947 7.46884 14H7.50165C8.43759 14 9.3454 13.8188 10.2001 13.4641C11.0334 13.1179 11.7913 12.6126 12.4313 11.9766C13.0767 11.3375 13.5845 10.5906 13.9392 9.75781C14.3079 8.89531 14.4954 7.97813 14.5001 7.03125C14.5048 6.07969 14.3204 5.15625 13.9563 4.2875ZM11.5954 11.1313C10.5001 12.2156 9.04696 12.8125 7.50009 12.8125H7.47353C6.53134 12.8078 5.5954 12.5734 4.76884 12.1328L4.63759 12.0625H2.43759V9.8625L2.36728 9.73125C1.92665 8.90469 1.69228 7.96875 1.68759 7.02656C1.68134 5.46875 2.27665 4.00625 3.36884 2.90469C4.45946 1.80312 5.91728 1.19375 7.47509 1.1875H7.50165C8.2829 1.1875 9.04071 1.33906 9.75478 1.63906C10.4517 1.93125 11.0767 2.35156 11.6142 2.88906C12.1501 3.425 12.572 4.05156 12.8642 4.74844C13.1673 5.47031 13.3188 6.23594 13.3157 7.02656C13.3063 8.58281 12.6954 10.0406 11.5954 11.1313Z" fill="#1890FF"/>
</g>
<defs>
<clipPath id="clip0_1701_50472">
<rect width="14" height="14" fill="white" transform="translate(0.5)"/>
</clipPath>
</defs>
</svg>
