<svg width="32" height="34" viewBox="0 0 32 34" fill="none" xmlns="http://www.w3.org/2000/svg">
<g filter="url(#filter0_d_84_15240)">
<path d="M19.75 18.375C19.3047 18.375 18.8937 18.5313 18.5719 18.7922L15.3344 16.45C15.3886 16.1524 15.3886 15.8476 15.3344 15.55L18.5719 13.2078C18.8937 13.4688 19.3047 13.625 19.75 13.625C20.7844 13.625 21.625 12.7844 21.625 11.75C21.625 10.7156 20.7844 9.875 19.75 9.875C18.7156 9.875 17.875 10.7156 17.875 11.75C17.875 11.9313 17.9 12.1047 17.9484 12.2703L14.8734 14.4969C14.4172 13.8922 13.6922 13.5 12.875 13.5C11.4937 13.5 10.375 14.6188 10.375 16C10.375 17.3813 11.4937 18.5 12.875 18.5C13.6922 18.5 14.4172 18.1078 14.8734 17.5031L17.9484 19.7297C17.9 19.8953 17.875 20.0703 17.875 20.25C17.875 21.2844 18.7156 22.125 19.75 22.125C20.7844 22.125 21.625 21.2844 21.625 20.25C21.625 19.2156 20.7844 18.375 19.75 18.375ZM19.75 10.9375C20.1984 10.9375 20.5625 11.3016 20.5625 11.75C20.5625 12.1984 20.1984 12.5625 19.75 12.5625C19.3016 12.5625 18.9375 12.1984 18.9375 11.75C18.9375 11.3016 19.3016 10.9375 19.75 10.9375ZM12.875 17.375C12.1172 17.375 11.5 16.7578 11.5 16C11.5 15.2422 12.1172 14.625 12.875 14.625C13.6328 14.625 14.25 15.2422 14.25 16C14.25 16.7578 13.6328 17.375 12.875 17.375ZM19.75 21.0625C19.3016 21.0625 18.9375 20.6984 18.9375 20.25C18.9375 19.8016 19.3016 19.4375 19.75 19.4375C20.1984 19.4375 20.5625 19.8016 20.5625 20.25C20.5625 20.6984 20.1984 21.0625 19.75 21.0625Z" fill="#1890FF"/>
<rect x="0.5" y="0.5" width="31" height="31" rx="3.5" stroke="#1890FF"/>
</g>
<defs>
<filter id="filter0_d_84_15240" x="0" y="0" width="32" height="34" filterUnits="userSpaceOnUse" color-interpolation-filters="sRGB">
<feFlood flood-opacity="0" result="BackgroundImageFix"/>
<feColorMatrix in="SourceAlpha" type="matrix" values="0 0 0 0 0 0 0 0 0 0 0 0 0 0 0 0 0 0 127 0" result="hardAlpha"/>
<feOffset dy="2"/>
<feColorMatrix type="matrix" values="0 0 0 0 0 0 0 0 0 0 0 0 0 0 0 0 0 0 0.016 0"/>
<feBlend mode="normal" in2="BackgroundImageFix" result="effect1_dropShadow_84_15240"/>
<feBlend mode="normal" in="SourceGraphic" in2="effect1_dropShadow_84_15240" result="shape"/>
</filter>
</defs>
</svg>
