<svg width="12" height="11" viewBox="0 0 12 11" fill="none" xmlns="http://www.w3.org/2000/svg">
<path d="M10.2502 0.585938H1.79104C1.10917 0.585938 0.554688 1.14024 0.554688 1.82291V9.59739C0.554688 10.2793 1.10917 10.833 1.79104 10.833H10.2502C10.932 10.833 11.4859 10.2793 11.4859 9.59739V1.82291C11.486 1.14024 10.9321 0.585938 10.2502 0.585938ZM7.6234 2.42555C8.2828 2.42555 8.81756 2.96035 8.81756 3.61971C8.81756 4.27907 8.28276 4.81387 7.6234 4.81387C6.96382 4.81387 6.42924 4.27907 6.42924 3.61971C6.42924 2.96035 6.96382 2.42555 7.6234 2.42555ZM9.86246 9.69012H6.02021H2.34915C2.01934 9.69012 1.87246 9.4515 2.02113 9.15711L4.07053 5.0979C4.21902 4.80355 4.50203 4.77728 4.70244 5.03917L6.76319 7.73224C6.9636 7.99416 7.3139 8.01645 7.54575 7.78178L8.04989 7.27128C8.28155 7.03661 8.62289 7.06567 8.81196 7.33576L10.1174 9.20047C10.3061 9.47097 10.1923 9.69012 9.86246 9.69012Z" fill="white"/>
</svg>
