<svg width="14" height="23" viewBox="0 0 14 23" fill="none" xmlns="http://www.w3.org/2000/svg">
<path d="M8.89075 1.34143V22.3414C8.89075 22.5571 8.71563 22.7322 8.5 22.7322H1C0.8964 22.7321 0.797069 22.6909 0.72381 22.6176C0.650552 22.5444 0.609352 22.445 0.609253 22.3414V1.34143C0.609253 1.12581 0.784378 0.950684 1 0.950684H8.5C8.71563 0.950684 8.89075 1.12581 8.89075 1.34143ZM8.10925 2.45068V1.73218H1.39075V21.9507H8.10925V21.2322H7C6.89933 21.2278 6.80425 21.1847 6.73457 21.1119C6.66489 21.0391 6.626 20.9422 6.626 20.8414C6.626 20.7407 6.66489 20.6438 6.73457 20.571C6.80425 20.4982 6.89933 20.4551 7 20.4507H8.10925V19.7322H5.5C5.39933 19.7278 5.30425 19.6847 5.23457 19.6119C5.16489 19.5391 5.126 19.4422 5.126 19.3414C5.126 19.2407 5.16489 19.1438 5.23457 19.071C5.30425 18.9982 5.39933 18.9551 5.5 18.9507H8.10925V18.2322H7C6.89933 18.2278 6.80425 18.1847 6.73457 18.1119C6.66489 18.0391 6.626 17.9422 6.626 17.8414C6.626 17.7407 6.66489 17.6438 6.73457 17.571C6.80425 17.4982 6.89933 17.4551 7 17.4507H8.10925V16.7322H5.5C5.39933 16.7278 5.30425 16.6847 5.23457 16.6119C5.16489 16.5391 5.126 16.4422 5.126 16.3414C5.126 16.2407 5.16489 16.1438 5.23457 16.071C5.30425 15.9982 5.39933 15.9551 5.5 15.9507H8.10925V15.2322H7C6.89933 15.2278 6.80425 15.1847 6.73457 15.1119C6.66489 15.0391 6.626 14.9422 6.626 14.8414C6.626 14.7407 6.66489 14.6438 6.73457 14.571C6.80425 14.4982 6.89933 14.4551 7 14.4507H8.10925V13.7322H5.5C5.39933 13.7278 5.30425 13.6847 5.23457 13.6119C5.16489 13.5391 5.126 13.4422 5.126 13.3414C5.126 13.2407 5.16489 13.1438 5.23457 13.071C5.30425 12.9982 5.39933 12.9551 5.5 12.9507H8.10925V12.2322H7C6.89933 12.2278 6.80425 12.1847 6.73457 12.1119C6.66489 12.0391 6.626 11.9422 6.626 11.8414C6.626 11.7407 6.66489 11.6438 6.73457 11.571C6.80425 11.4982 6.89933 11.4551 7 11.4507H8.10925V10.7322H5.5C5.39933 10.7278 5.30425 10.6847 5.23457 10.6119C5.16489 10.5391 5.126 10.4422 5.126 10.3414C5.126 10.2407 5.16489 10.1438 5.23457 10.071C5.30425 9.99819 5.39933 9.9551 5.5 9.95068H8.10925V9.23218H7C6.89933 9.22777 6.80425 9.18468 6.73457 9.11188C6.66489 9.03908 6.626 8.9422 6.626 8.84143C6.626 8.74067 6.66489 8.64378 6.73457 8.57099C6.80425 8.49819 6.89933 8.4551 7 8.45068H8.10925V7.73218H5.5C5.39933 7.72777 5.30425 7.68468 5.23457 7.61188C5.16489 7.53908 5.126 7.4422 5.126 7.34143C5.126 7.24067 5.16489 7.14378 5.23457 7.07099C5.30425 6.99819 5.39933 6.9551 5.5 6.95068H8.10925V6.23218H7C6.89933 6.22777 6.80425 6.18468 6.73457 6.11188C6.66489 6.03908 6.626 5.9422 6.626 5.84143C6.626 5.74067 6.66489 5.64378 6.73457 5.57099C6.80425 5.49819 6.89933 5.4551 7 5.45068H8.10925V4.73218H5.5C5.39933 4.72777 5.30425 4.68468 5.23457 4.61188C5.16489 4.53908 5.126 4.4422 5.126 4.34143C5.126 4.24067 5.16489 4.14378 5.23457 4.07099C5.30425 3.99819 5.39933 3.9551 5.5 3.95068H8.10925V3.23218H7C6.89933 3.22777 6.80425 3.18468 6.73457 3.11188C6.66489 3.03908 6.626 2.9422 6.626 2.84143C6.626 2.74067 6.66489 2.64379 6.73457 2.57099C6.80425 2.49819 6.89933 2.4551 7 2.45068H8.10925ZM11.1093 2.28456L10.2764 3.11781C10.203 3.19095 10.1036 3.23202 10 3.23202C9.89639 3.23202 9.79701 3.19095 9.72363 3.11781C9.65049 3.04443 9.60942 2.94504 9.60942 2.84143C9.60942 2.73783 9.65049 2.63844 9.72363 2.56506L11.2236 1.06506C11.297 0.991917 11.3964 0.950847 11.5 0.950847C11.6036 0.950847 11.703 0.991917 11.7764 1.06506L13.2764 2.56506C13.3495 2.63844 13.3906 2.73783 13.3906 2.84143C13.3906 2.94504 13.3495 3.04443 13.2764 3.11781C13.203 3.19095 13.1036 3.23202 13 3.23202C12.8964 3.23202 12.797 3.19095 12.7236 3.11781L11.8908 2.28456V21.3983L12.7236 20.5651C12.797 20.4919 12.8964 20.4508 13 20.4508C13.1036 20.4508 13.203 20.4919 13.2764 20.5651C13.3495 20.6384 13.3906 20.7378 13.3906 20.8414C13.3906 20.945 13.3495 21.0444 13.2764 21.1178L11.7764 22.6178C11.703 22.691 11.6036 22.732 11.5 22.732C11.3964 22.732 11.297 22.691 11.2236 22.6178L9.72363 21.1178C9.65049 21.0444 9.60942 20.945 9.60942 20.8414C9.60942 20.7378 9.65049 20.6384 9.72363 20.5651C9.79701 20.4919 9.89639 20.4508 10 20.4508C10.1036 20.4508 10.203 20.4919 10.2764 20.5651L11.1093 21.3983V2.28456Z" fill="black"/>
</svg>
