<svg width="14" height="14" viewBox="0 0 14 14" fill="none" xmlns="http://www.w3.org/2000/svg">
<g clip-path="url(#clip0_1757_33865)">
<rect width="14" height="14" fill="white" fill-opacity="0.01"/>
<g clip-path="url(#clip1_1757_33865)">
<path d="M10.5022 0.000244141C9.57375 0.000241186 8.68315 0.360431 8.02577 1.00179C7.36839 1.64315 6.99789 2.51332 6.99552 3.4215C7.04449 4.03225 7.21786 4.62726 7.50543 5.1715C7.81147 5.8355 8.15183 6.48384 8.52523 7.114C9.26772 8.36525 10.0281 9.41525 10.0281 9.41525L10.5022 10.089L10.9764 9.41525C10.9764 9.41525 11.7278 8.36525 12.4703 7.114C12.8437 6.48384 13.1841 5.8355 13.4901 5.1715C13.7777 4.62726 13.951 4.03225 14 3.4215C13.9976 2.51484 13.6284 1.64597 12.9729 1.00486C12.3175 0.363751 11.4292 0.00255412 10.5022 0.000244141ZM4.64281 1.10275L0 3.04525V14.0002L4.6786 12.014L9.34824 13.764L14 11.8215V6.84275C13.6243 7.54275 13.2128 8.20774 12.8281 8.80274V11.069L9.91182 12.2853V11.3578L9.01725 10.1415C8.91885 10.019 8.8115 9.86151 8.70415 9.69526V12.3203L5.20639 11.034V2.5465L5.84152 2.78274C5.89533 2.40044 6.00061 2.02679 6.15463 1.6715L4.64281 1.10275ZM10.5022 1.10275C10.8084 1.10275 11.1116 1.16187 11.3944 1.27675C11.6771 1.39162 11.9339 1.55999 12.15 1.77217C12.3661 1.98435 12.5373 2.23617 12.6536 2.5132C12.77 2.79023 12.8293 3.087 12.8281 3.38649C12.7719 3.84505 12.6389 4.29144 12.4345 4.70775C12.1398 5.33679 11.8114 5.95015 11.4505 6.54525C10.9674 7.3415 10.7617 7.63026 10.5022 8.02401C10.2339 7.63026 10.0281 7.3415 9.554 6.54525C9.19311 5.95015 8.86463 5.33679 8.56997 4.70775C8.35976 4.293 8.2236 3.84613 8.1674 3.38649C8.18605 2.79382 8.44055 2.23169 8.87666 1.81983C9.31277 1.40797 9.89603 1.17894 10.5022 1.1815V1.10275ZM4.07925 2.52901V10.999L1.16295 12.2152V3.8065L4.07925 2.52901ZM10.5022 2.52901C10.3253 2.52901 10.1524 2.58031 10.0052 2.67646C9.85813 2.77261 9.74347 2.90927 9.67576 3.06915C9.60805 3.22904 9.59033 3.40496 9.62484 3.57469C9.65936 3.74443 9.74456 3.90034 9.86967 4.02271C9.99478 4.14508 10.1542 4.22842 10.3277 4.26218C10.5012 4.29595 10.6811 4.27861 10.8446 4.21238C11.008 4.14616 11.1477 4.03403 11.246 3.89013C11.3443 3.74624 11.3968 3.57707 11.3968 3.40401C11.3876 3.17806 11.2892 2.96438 11.1225 2.80779C10.9557 2.65119 10.7334 2.56381 10.5022 2.56399V2.52901Z" fill="#1890FF"/>
</g>
</g>
<defs>
<clipPath id="clip0_1757_33865">
<rect width="14" height="14" fill="white"/>
</clipPath>
<clipPath id="clip1_1757_33865">
<rect width="14" height="14" fill="white"/>
</clipPath>
</defs>
</svg>
