<svg width="38" height="48" viewBox="0 0 38 48" fill="none" xmlns="http://www.w3.org/2000/svg">
<path d="M21.202 23.8446L17.0341 29.1589L14.8324 26.3518C14.7923 26.3006 14.741 26.2591 14.6826 26.2306C14.6241 26.2022 14.5599 26.1873 14.4949 26.1873C14.4298 26.1873 14.3656 26.2022 14.3071 26.2306C14.2487 26.2591 14.1974 26.3006 14.1574 26.3518L8.81092 33.1661C8.76146 33.2292 8.73077 33.305 8.72236 33.3848C8.71395 33.4646 8.72816 33.5452 8.76337 33.6172C8.79857 33.6893 8.85335 33.7501 8.92145 33.7925C8.98954 33.8349 9.0682 33.8573 9.14842 33.8571H28.8574C29.2163 33.8571 29.4145 33.4446 29.1949 33.1661L21.8824 23.8446C21.8417 23.7933 21.79 23.7519 21.7311 23.7234C21.6722 23.6949 21.6076 23.6801 21.5422 23.6801C21.4767 23.6801 21.4121 23.6949 21.3532 23.7234C21.2943 23.7519 21.2426 23.7933 21.202 23.8446ZM10.8574 20.25C10.8574 20.8183 11.0831 21.3634 11.485 21.7652C11.8868 22.1671 12.4319 22.3929 13.0002 22.3929C13.5685 22.3929 14.1136 22.1671 14.5154 21.7652C14.9173 21.3634 15.1431 20.8183 15.1431 20.25C15.1431 19.6817 14.9173 19.1366 14.5154 18.7348C14.1136 18.3329 13.5685 18.1071 13.0002 18.1071C12.4319 18.1071 11.8868 18.3329 11.485 18.7348C11.0831 19.1366 10.8574 19.6817 10.8574 20.25ZM37.3538 12.0321L25.8252 0.503572C25.5038 0.182143 25.0699 0 24.6145 0H1.85735C0.909138 0 0.143066 0.766071 0.143066 1.71429V46.2857C0.143066 47.2339 0.909138 48 1.85735 48H36.1431C37.0913 48 37.8574 47.2339 37.8574 46.2857V13.2482C37.8574 12.7929 37.6752 12.3536 37.3538 12.0321ZM33.9038 14.0357H23.8216V3.95357L33.9038 14.0357ZM34.0002 44.1429H4.00021V3.85714H20.1788V15.4286C20.1788 16.0253 20.4158 16.5976 20.8378 17.0196C21.2597 17.4415 21.832 17.6786 22.4288 17.6786H34.0002V44.1429Z" fill="#1D4279"/>
</svg>
