<svg width="31" height="31" viewBox="0 0 31 31" fill="none" xmlns="http://www.w3.org/2000/svg">
<g clip-path="url(#clip0_841_10949)">
<path d="M3.00002 5.49997C1.61873 5.49997 0.5 4.38124 0.5 3.00002C0.5 1.61879 1.61873 0.5 3.00002 0.5C4.38131 0.5 5.50003 1.61873 5.50003 3.00002C5.50003 4.38131 4.38124 5.49997 3.00002 5.49997ZM3.00002 1.74998C2.31249 1.74998 1.75004 2.31249 1.75004 2.99995C1.75004 3.68742 2.31255 4.24993 3.00002 4.24993C3.68748 4.24993 4.24999 3.68742 4.24999 2.99995C4.24999 2.31249 3.68748 1.74998 3.00002 1.74998Z" fill="#1D4279"/>
<path d="M3.00002 30.5C1.61873 30.5 0.5 29.3812 0.5 28C0.5 26.6188 1.61873 25.5 3.00002 25.5C4.38131 25.5 5.50003 26.6187 5.50003 28C5.49997 29.3812 4.38124 30.5 3.00002 30.5ZM3.00002 26.75C2.31249 26.75 1.75004 27.3125 1.75004 28C1.75004 28.6875 2.31255 29.25 3.00002 29.25C3.68748 29.25 4.24999 28.6874 4.24999 28C4.24999 27.3125 3.68748 26.75 3.00002 26.75Z" fill="#1D4279"/>
<path d="M28 21.125C26.6188 21.125 25.5 20.0063 25.5 18.625C25.5 17.2438 26.6187 16.125 28 16.125C29.3812 16.125 30.5 17.2437 30.5 18.625C30.5 20.0063 29.3812 21.125 28 21.125ZM28 17.375C27.3125 17.375 26.75 17.9375 26.75 18.625C26.75 19.3125 27.3125 19.875 28 19.875C28.6875 19.875 29.25 19.3124 29.25 18.625C29.25 17.9375 28.6875 17.375 28 17.375Z" fill="#1D4279"/>
<path d="M18.625 30.5C17.2437 30.5 16.125 29.3813 16.125 28C16.125 26.6188 17.2437 25.5 18.625 25.5C20.0062 25.5 21.125 26.6187 21.125 28C21.125 29.3812 20.0063 30.5 18.625 30.5ZM18.625 26.75C17.9374 26.75 17.375 27.3125 17.375 28C17.375 28.6875 17.9375 29.25 18.625 29.25C19.3125 29.25 19.8749 28.6874 19.8749 28C19.875 27.3125 19.3125 26.75 18.625 26.75Z" fill="#1D4279"/>
<path d="M28 5.49997C26.6188 5.49997 25.5 4.38124 25.5 2.99995C25.5 1.61866 26.6188 0.5 28 0.5C29.3812 0.5 30.5 1.61873 30.5 3.00002C30.5 4.38131 29.3812 5.49997 28 5.49997ZM28 1.74998C27.3125 1.74998 26.75 2.31249 26.75 2.99995C26.75 3.68742 27.3125 4.24993 28 4.24993C28.6875 4.24993 29.25 3.68742 29.25 2.99995C29.25 2.31249 28.6875 1.74998 28 1.74998Z" fill="#1D4279"/>
<path d="M4.87498 2.375H26.125V3.62498H4.87498V2.375Z" fill="#1D4279"/>
<path d="M2.37503 4.87497H3.62501V26.1249H2.37503V4.87497Z" fill="#1D4279"/>
<path d="M4.87498 27.375H16.75V28.625H4.87498V27.375Z" fill="#1D4279"/>
<path d="M27.375 4.87497H28.625V16.7499H27.375V4.87497Z" fill="#1D4279"/>
<path d="M19.25 26.125H18V21.75C18 19.6812 19.6812 18 21.75 18H26.125V19.25H21.75C20.3687 19.25 19.25 20.3687 19.25 21.75V26.125Z" fill="#1D4279"/>
<g clip-path="url(#clip1_841_10949)">
<path d="M11.3 5.89999C10.107 5.90158 8.96334 6.37619 8.11977 7.21976C7.2762 8.06333 6.80159 9.20701 6.8 10.4C6.8 13.6306 10.9925 17.6769 11.1706 17.8475C11.2053 17.8812 11.2517 17.9 11.3 17.9C11.3483 17.9 11.3947 17.8812 11.4294 17.8475C11.6075 17.6769 15.8 13.6306 15.8 10.4C15.7984 9.20701 15.3238 8.06333 14.4802 7.21976C13.6367 6.37619 12.493 5.90158 11.3 5.89999ZM11.3 12.4625C10.8921 12.4625 10.4933 12.3415 10.1541 12.1149C9.81496 11.8883 9.55061 11.5662 9.3945 11.1893C9.2384 10.8124 9.19755 10.3977 9.27713 9.99762C9.35672 9.59753 9.55315 9.23003 9.8416 8.94159C10.13 8.65314 10.4975 8.45671 10.8976 8.37712C11.2977 8.29754 11.7124 8.33839 12.0893 8.49449C12.4662 8.6506 12.7883 8.91495 13.0149 9.25413C13.2415 9.59331 13.3625 9.99207 13.3625 10.4C13.3622 10.9469 13.1448 11.4713 12.758 11.858C12.3713 12.2448 11.8469 12.4622 11.3 12.4625Z" fill="#EDA749"/>
</g>
</g>
<defs>
<clipPath id="clip0_841_10949">
<rect width="30" height="30" fill="white" transform="translate(0.5 0.5)"/>
</clipPath>
<clipPath id="clip1_841_10949">
<rect width="12" height="12" fill="white" transform="translate(5.3 5.89999)"/>
</clipPath>
</defs>
</svg>
