<svg width="31" height="31" viewBox="0 0 31 31" fill="none" xmlns="http://www.w3.org/2000/svg">
<path d="M28.1561 1.4375H10.9749C10.1994 1.4375 9.5686 2.0683 9.5686 2.84375V11.9265C9.5686 12.1853 9.77849 12.3952 10.0374 12.3952C10.2962 12.3952 10.5061 12.1853 10.5061 11.9265V2.84375C10.5061 2.58534 10.7164 2.375 10.9749 2.375H28.1561C28.4145 2.375 28.6248 2.58534 28.6248 2.84375V23.7565C28.6248 24.0149 28.4145 24.2252 28.1561 24.2252H23.4942C23.2354 24.2252 23.0255 24.4351 23.0255 24.694C23.0255 24.9528 23.2354 25.1627 23.4942 25.1627H28.1561C28.9316 25.1627 29.5623 24.5319 29.5623 23.7565V2.84375C29.5623 2.0683 28.9316 1.4375 28.1561 1.4375Z" fill="#1D4279"/>
<path d="M23.5876 18.8872C23.9062 18.1807 23.5908 17.3462 22.8841 17.0271L13.1529 12.6376C12.7849 12.4717 12.3635 12.4717 11.9964 12.6376L2.26547 17.0271C1.55891 17.3462 1.24328 18.1807 1.56188 18.8872C1.91739 19.6911 2.89929 19.9303 3.63601 19.4946V28.1563C3.63601 28.9317 4.2668 29.5625 5.04226 29.5625H20.1073C20.8827 29.5625 21.5135 28.9317 21.5135 28.1563V19.4945C22.2313 19.9342 23.2499 19.6836 23.5876 18.8872ZM20.576 28.1563C20.576 28.4147 20.3657 28.625 20.1073 28.625H5.04226C4.78385 28.625 4.57351 28.4147 4.57351 28.1563V19.0717L12.5745 15.4622L20.576 19.0716V28.1563ZM22.733 18.5018C22.6341 18.7337 22.3407 18.8449 22.113 18.7364L12.7673 14.5206C12.6446 14.4652 12.5045 14.4652 12.3818 14.5206L3.0368 18.7364C2.80059 18.8421 2.52273 18.7371 2.41653 18.5018C2.31033 18.2663 2.41562 17.9882 2.65114 17.8818L12.3818 13.4923C12.5045 13.4369 12.6448 13.4369 12.7675 13.4923L22.4984 17.8818C22.7341 17.988 22.8392 18.2663 22.733 18.5018Z" fill="#EDA749"/>
<path d="M12.106 19.2468V19.7961C11.2996 20.0057 10.6997 20.7334 10.6997 21.6045C10.6997 22.6384 11.5409 23.4795 12.5747 23.4795C13.0918 23.4795 13.5122 23.9 13.5122 24.417C13.5122 24.9341 13.0918 25.3545 12.5747 25.3545C12.0577 25.3545 11.6372 24.9341 11.6372 24.417C11.6372 24.1581 11.4274 23.9483 11.1685 23.9483C10.9096 23.9483 10.6997 24.1581 10.6997 24.417C10.6997 25.2881 11.2996 26.0158 12.106 26.2254V26.7747C12.106 27.0336 12.3159 27.2435 12.5747 27.2435C12.8336 27.2435 13.0435 27.0336 13.0435 26.7747V26.2254C13.8499 26.0158 14.4497 25.2881 14.4497 24.417C14.4497 23.3831 13.6086 22.542 12.5747 22.542C12.0577 22.542 11.6372 22.1216 11.6372 21.6045C11.6372 21.0875 12.0577 20.667 12.5747 20.667C13.0918 20.667 13.5122 21.0875 13.5122 21.6045C13.5122 21.8634 13.7221 22.0733 13.981 22.0733C14.2399 22.0733 14.4497 21.8634 14.4497 21.6045C14.4497 20.7334 13.8499 20.0057 13.0435 19.7961V19.2468C13.0435 18.9879 12.8336 18.778 12.5747 18.778C12.3159 18.778 12.106 18.9879 12.106 19.2468Z" fill="#EDA749"/>
<path d="M12.938 5.1875H26.193C26.4519 5.1875 26.6617 4.97762 26.6617 4.71875C26.6617 4.45988 26.4519 4.25 26.193 4.25H12.938C12.6791 4.25 12.4692 4.45988 12.4692 4.71875C12.4692 4.97762 12.6791 5.1875 12.938 5.1875Z" fill="#1D4279"/>
<path d="M12.938 8.31564H26.193C26.4519 8.31564 26.6617 8.10576 26.6617 7.84689C26.6617 7.58803 26.4519 7.37814 26.193 7.37814H12.938C12.6791 7.37814 12.4692 7.58803 12.4692 7.84689C12.4692 8.10576 12.6791 8.31564 12.938 8.31564Z" fill="#1D4279"/>
<path d="M12.938 11.4438H26.193C26.4519 11.4438 26.6617 11.2339 26.6617 10.975C26.6617 10.7161 26.4519 10.5063 26.193 10.5063H12.938C12.6791 10.5063 12.4692 10.7161 12.4692 10.975C12.4692 11.2339 12.6791 11.4438 12.938 11.4438Z" fill="#1D4279"/>
<path d="M26.193 13.6344H20.7953C20.5364 13.6344 20.3265 13.8443 20.3265 14.1031C20.3265 14.362 20.5364 14.5719 20.7953 14.5719H26.193C26.4518 14.5719 26.6617 14.362 26.6617 14.1031C26.6617 13.8443 26.4518 13.6344 26.193 13.6344Z" fill="#1D4279"/>
</svg>
