<svg width="31" height="31" viewBox="0 0 31 31" fill="none" xmlns="http://www.w3.org/2000/svg">
<g clip-path="url(#clip0_696_11233)">
<path d="M29.875 0.500427H9.87533C9.53018 0.500427 9.25026 0.780117 9.25026 1.12549V29.2501H4.87525V27.3751H7.37529C7.58128 27.3751 7.77422 27.2737 7.89072 27.1041C8.00745 26.9343 8.03308 26.718 7.95916 26.5258L4.83405 18.4008C4.74158 18.1589 4.5095 17.9991 4.25041 17.9991C3.99132 17.9991 3.75923 18.1589 3.66654 18.4008L0.541657 26.5258C0.467729 26.718 0.493135 26.9343 0.609863 27.1041C0.726591 27.2737 0.919307 27.3751 1.1253 27.3751H3.62534V29.2501H0.500459V30.5H30.5V1.12549C30.5 0.780117 30.2201 0.500427 29.875 0.500427ZM4.25041 20.3664L6.46527 26.125H2.03532L4.25041 20.3664ZM17.3752 29.2501V25.5002C17.3752 24.1193 18.4944 23.0001 19.875 23.0001C21.2559 23.0001 22.3751 24.1193 22.3751 25.5002V29.2501H17.3752ZM23.625 29.2501V25.5002C23.625 23.429 21.9462 21.7502 19.875 21.7502C17.8041 21.7502 16.1251 23.429 16.1251 25.5002V29.2501H10.5002V28H14.8752V26.7501H10.5002V25.5002H14.8752V24.25H10.5002V23.0001H14.8752V21.7502H10.5002V1.75033H29.2499V21.7502H24.8751V23.0001H29.2499V24.25H24.8751V25.5002H29.2499V26.7501H24.8751V28H29.2499V29.2501H23.625Z" fill="#1D4279"/>
<path d="M21.75 7.37525H24.2501C24.5952 7.37525 24.8751 7.09556 24.8751 6.75041V4.25037C24.8751 3.90522 24.5952 3.62531 24.2501 3.62531H21.75C21.4049 3.62531 21.1252 3.90522 21.1252 4.25037V6.75041C21.1252 7.09556 21.4049 7.37525 21.75 7.37525ZM22.3751 4.87544H23.625V6.12535H22.3751V4.87544Z" fill="#1D4279"/>
<path d="M18.0001 3.62531H15.5003C15.1551 3.62531 14.8752 3.90522 14.8752 4.25037V6.75041C14.8752 7.09556 15.1551 7.37525 15.5003 7.37525H18.0001C18.3454 7.37525 18.6251 7.09556 18.6251 6.75041V4.25037C18.6251 3.90522 18.3454 3.62531 18.0001 3.62531ZM17.3752 6.12535H16.1251V4.87544H17.3752V6.12535Z" fill="#1D4279"/>
<path d="M21.75 13.6253H24.2501C24.5952 13.6253 24.8751 13.3453 24.8751 13.0002V10.5004C24.8751 10.155 24.5952 9.87531 24.2501 9.87531H21.75C21.4049 9.87531 21.1252 10.155 21.1252 10.5004V13.0002C21.1252 13.3453 21.4049 13.6253 21.75 13.6253ZM22.3751 11.1252H23.625V12.3753H22.3751V11.1252Z" fill="#1D4279"/>
<path d="M18.0001 9.87531H15.5003C15.1551 9.87531 14.8752 10.155 14.8752 10.5004V13.0002C14.8752 13.3453 15.1551 13.6253 15.5003 13.6253H18.0001C18.3454 13.6253 18.6251 13.3453 18.6251 13.0002V10.5004C18.6251 10.155 18.3454 9.87531 18.0001 9.87531ZM17.3752 12.3753H16.1251V11.1252H17.3752V12.3753Z" fill="#1D4279"/>
<path d="M24.8751 16.7501C24.8751 16.405 24.5952 16.1253 24.2501 16.1253H21.75C21.4049 16.1253 21.1252 16.405 21.1252 16.7501V19.2502C21.1252 19.5953 21.4049 19.8753 21.75 19.8753H24.2501C24.5952 19.8753 24.8751 19.5953 24.8751 19.2502V16.7501ZM23.625 18.6251H22.3751V17.3752H23.625V18.6251Z" fill="#1D4279"/>
<path d="M18.0001 16.1253H15.5003C15.1551 16.1253 14.8752 16.405 14.8752 16.7501V19.2502C14.8752 19.5953 15.1551 19.8753 15.5003 19.8753H18.0001C18.3454 19.8753 18.6251 19.5953 18.6251 19.2502V16.7501C18.6251 16.405 18.3454 16.1253 18.0001 16.1253ZM17.3752 18.6251H16.1251V17.3752H17.3752V18.6251Z" fill="#1D4279"/>
<path d="M12.35 11.6C12.35 14.3338 10.1338 16.55 7.40001 16.55C4.6662 16.55 2.45001 14.3338 2.45001 11.6C2.45001 8.86618 4.6662 6.64999 7.40001 6.64999C10.1338 6.64999 12.35 8.86618 12.35 11.6Z" fill="white" stroke="#EDA749" stroke-width="1.5"/>
<path d="M7.285 8.37655C7.28501 8.37602 7.28503 8.3754 7.28504 8.37469C7.28516 8.3685 7.28514 8.35662 7.28403 8.34122C7.28159 8.30731 7.27508 8.27345 7.26514 8.24812C7.26153 8.23892 7.25854 8.23347 7.2567 8.23057C7.24759 8.22705 7.22456 8.22082 7.17941 8.22082C7.1318 8.22082 7.10721 8.22733 7.09724 8.2311C7.09572 8.23378 7.09352 8.2382 7.0909 8.24499C7.08172 8.26882 7.0757 8.30146 7.07371 8.33482C7.07281 8.34989 7.07295 8.36151 7.07315 8.36752C7.07317 8.36812 7.07319 8.36865 7.07321 8.3691L7.11596 8.78402L6.71174 8.91211C6.19644 9.0754 5.827 9.55014 5.82524 10.1104L5.82524 10.1104C5.82438 10.378 5.87878 10.5644 5.95538 10.7052C6.03324 10.8484 6.15024 10.9741 6.31641 11.0967C6.48648 11.2222 6.69434 11.3346 6.94517 11.4573C7.01926 11.4936 7.09942 11.5318 7.18299 11.5716C7.36562 11.6586 7.56459 11.7534 7.75239 11.8528L7.75313 11.8532C8.0901 12.0322 8.32524 12.3804 8.32524 12.7912C8.32524 13.3892 7.83933 13.8268 7.28838 13.8455L7.28772 13.8455C7.01564 13.8545 6.77102 13.8086 6.56427 13.6964C6.35227 13.5813 6.21588 13.4155 6.13543 13.2478C6.05837 13.0872 6.03621 12.9334 6.03085 12.8279C6.02808 12.7735 6.02953 12.727 6.03197 12.6918C6.03213 12.6895 6.0323 12.6871 6.03248 12.6849C6.02512 12.6346 5.98163 12.5958 5.92941 12.5958C5.87205 12.5958 5.82524 12.6426 5.82524 12.7V12.7301L5.82232 12.7552C5.82211 12.758 5.82169 12.7643 5.82135 12.7738C5.82062 12.7939 5.82032 12.8277 5.82313 12.8715C5.82883 12.9602 5.84687 13.0836 5.89543 13.2175C5.98651 13.4686 6.19532 13.7927 6.7379 13.9969L7.10897 14.1366L7.07372 14.5247C7.0737 14.5252 7.07368 14.5258 7.07367 14.5265C7.07353 14.5327 7.07353 14.5445 7.0746 14.5599C7.07696 14.5937 7.08338 14.6273 7.09318 14.6524C7.09661 14.6612 7.09945 14.6664 7.10124 14.6693C7.11049 14.6729 7.1338 14.6791 7.17941 14.6791C7.22574 14.6791 7.24951 14.6728 7.25901 14.6691C7.26071 14.6663 7.26331 14.6614 7.26644 14.6533C7.27602 14.6287 7.2823 14.5954 7.28453 14.5618C7.28553 14.5465 7.28548 14.5348 7.28532 14.5287C7.2853 14.528 7.28529 14.5274 7.28527 14.5269L7.24605 14.1149L7.64707 13.9879C8.16368 13.8242 8.53357 13.3489 8.53357 12.7912C8.53357 12.315 8.32674 11.9372 7.81377 11.6501L7.8135 11.6499C7.61894 11.5409 7.43333 11.4539 7.25542 11.3735C7.22527 11.3599 7.19457 11.3461 7.1636 11.3322C7.02101 11.2683 6.87256 11.2018 6.74521 11.1341C6.58987 11.0515 6.41037 10.9396 6.27074 10.7726C6.11659 10.5881 6.03357 10.3643 6.03357 10.1087C6.03357 9.50362 6.52545 9.08239 7.06122 9.05485L7.285 8.37655ZM7.285 8.37655L7.25035 8.76935L7.62758 8.90551C8.13721 9.08945 8.34904 9.40761 8.4479 9.67264C8.49992 9.8121 8.52177 9.94212 8.5303 10.0366C8.53452 10.0832 8.53533 10.1195 8.53526 10.1417C8.53523 10.1527 8.53497 10.1601 8.53484 10.1633M7.285 8.37655L8.53484 10.1633M8.53484 10.1633L8.53477 10.1648C8.53474 10.1653 8.53476 10.165 8.53482 10.1638L8.53505 10.1607L8.53499 10.1616L8.53488 10.1631L8.53484 10.1633ZM8.32565 10.2093C8.32604 10.2008 8.32636 10.1913 8.32655 10.181C8.32718 10.1464 8.32636 10.1007 8.32129 10.0473C8.31145 9.94377 8.28397 9.79405 8.20586 9.63851C8.12485 9.47719 7.99034 9.3128 7.78041 9.19828C7.57364 9.08548 7.33034 9.04096 7.06159 9.05483L8.32565 10.2093ZM8.32565 10.2093C8.32538 10.2062 8.32524 10.2031 8.32524 10.2H7.80441M8.32565 10.2093L7.17941 15.2C7.87253 15.2 7.80441 14.4844 7.80441 14.4844M8.32565 10.2093C8.32538 10.2151 8.32509 10.2205 8.32478 10.2254L8.32361 10.2414L8.32305 10.2477L8.32278 10.2505L8.32265 10.2518L8.32259 10.2524C8.32256 10.2527 8.32253 10.253 7.80441 10.2M8.32565 10.2093L8.32255 10.7411M7.80441 10.2C7.80441 10.2 7.87253 9.53436 7.08816 9.57498C6.79441 9.58998 6.55441 9.81436 6.55441 10.1087C6.55441 10.4881 6.87904 10.6337 7.37 10.854C7.42815 10.88 7.48863 10.9072 7.55119 10.9359C7.67656 11.0853 7.83935 11.2023 8.02511 11.2724C8.02513 11.2724 8.02514 11.2724 8.02516 11.2724C8.11041 11.3046 8.20049 11.3269 8.29402 11.3379C8.80562 11.701 9.05441 12.1939 9.05441 12.7912C9.05441 13.5875 8.52628 14.2556 7.80441 14.4844M7.80441 10.2C7.80441 10.3171 7.83667 10.4267 7.89278 10.5204C8.02647 10.5838 8.17112 10.6563 8.32255 10.7411M7.80441 14.4844C7.28592 14.5337 7.28589 14.5335 7.28587 14.5332L7.28592 14.5337L7.80441 14.4844ZM8.46225 10.8241C8.792 10.807 9.05441 10.534 9.05441 10.2L8.46225 10.8241ZM8.46225 10.8241C8.45138 10.8173 8.44043 10.8105 8.42941 10.8037C8.39454 10.7824 8.35892 10.7615 8.32255 10.7411M8.46225 10.8241L8.32255 10.7411M7.26411 14.6667C7.26417 14.6667 7.26342 14.6672 7.26173 14.668C7.26321 14.667 7.26406 14.6666 7.26411 14.6667ZM7.09633 14.6669C7.09639 14.6668 7.09725 14.6672 7.09875 14.6683C7.09703 14.6675 7.09628 14.667 7.09633 14.6669ZM7.07378 14.5229L7.07378 14.5231L7.07378 14.5229ZM7.09176 8.23372C7.09171 8.23366 7.09244 8.23317 7.09409 8.23241C7.09264 8.23339 7.09181 8.23377 7.09176 8.23372ZM7.2615 8.23291C7.26144 8.23297 7.26058 8.23258 7.25907 8.23156C7.2608 8.23234 7.26155 8.23285 7.2615 8.23291ZM7.50878 12.3131C7.68878 12.4087 7.80441 12.5875 7.80441 12.7912C7.80441 13.0856 7.56441 13.315 7.27066 13.325L7.50878 12.3131ZM6.55441 8.41561C5.83253 8.64436 5.30691 9.31248 5.30441 10.1087L7.0725 8.36221L7.07254 8.3627C7.07252 8.36246 7.0725 8.36221 6.55441 8.41561Z" fill="#1D4279" stroke="#EDA749" stroke-width="1.04167"/>
</g>
<defs>
<clipPath id="clip0_696_11233">
<rect width="30" height="30" fill="white" transform="translate(0.5 0.5)"/>
</clipPath>
</defs>
</svg>
