<svg width="16" height="16" viewBox="0 0 20 20" fill="none" xmlns="http://www.w3.org/2000/svg">
<path d="M15.0033 7.6294e-05C13.6768 7.20724e-05 12.4045 0.51463 11.4654 1.43086C10.5263 2.34709 9.99703 3.5902 9.99364 4.8876C10.0636 5.76011 10.3113 6.61012 10.7221 7.38761C11.1593 8.33618 11.6455 9.26239 12.1789 10.1626C13.2396 11.9501 14.3259 13.4501 14.3259 13.4501L15.0033 14.4126L15.6806 13.4501C15.6806 13.4501 16.754 11.9501 17.8147 10.1626C18.3482 9.26239 18.8344 8.33618 19.2716 7.38761C19.6824 6.61012 19.9301 5.76011 20.0001 4.8876C19.9967 3.59236 19.4692 2.35112 18.5328 1.43525C17.5965 0.519374 16.3275 0.00337628 15.0033 7.6294e-05ZM6.63261 1.57509L0 4.35011V20.0002L6.68374 17.1627L13.3547 19.6627L20.0001 16.8877V9.77512C19.4633 10.7751 18.8755 11.7251 18.326 12.5751V15.8126L14.1598 17.5502V16.2252L12.8818 14.4876C12.7413 14.3126 12.5879 14.0877 12.4345 13.8502V17.6002L7.43773 15.7627V3.6376L8.34507 3.97508C8.42193 3.42893 8.57234 2.89515 8.79236 2.38759L6.63261 1.57509ZM15.0033 1.57509C15.4407 1.57509 15.8738 1.65955 16.2777 1.82366C16.6817 1.98777 17.0486 2.22829 17.3573 2.5314C17.666 2.83452 17.9105 3.19427 18.0767 3.59003C18.2429 3.98578 18.3276 4.40974 18.326 4.83759C18.2457 5.49267 18.0557 6.13038 17.7637 6.72511C17.3427 7.62374 16.8735 8.49997 16.3579 9.35013C15.6678 10.4876 15.3739 10.9001 15.0033 11.4626C14.6199 10.9001 14.3259 10.4876 13.6486 9.35013C13.1331 8.49997 12.6638 7.62374 12.2429 6.72511C11.9426 6.13261 11.748 5.49423 11.6678 4.83759C11.6944 3.99091 12.058 3.18787 12.681 2.5995C13.304 2.01112 14.1372 1.68393 15.0033 1.68759V1.57509ZM5.82753 3.61261V15.7126L1.66137 17.4501V5.43761L5.82753 3.61261ZM15.0033 3.61261C14.7505 3.61261 14.5034 3.6859 14.2933 3.82326C14.0831 3.96061 13.9193 4.15584 13.8226 4.38425C13.7258 4.61266 13.7005 4.86397 13.7498 5.10645C13.7991 5.34893 13.9209 5.57167 14.0996 5.74648C14.2783 5.9213 14.506 6.04035 14.7539 6.08859C15.0018 6.13682 15.2588 6.11205 15.4923 6.01744C15.7258 5.92283 15.9254 5.76264 16.0658 5.55708C16.2062 5.35152 16.2812 5.10984 16.2812 4.86261C16.268 4.53983 16.1275 4.23458 15.8893 4.01086C15.6511 3.78715 15.3335 3.66232 15.0033 3.66258V3.61261Z" fill="#666666"/>
</svg>
