<svg width="132" height="38" viewBox="0 0 132 38" fill="none" xmlns="http://www.w3.org/2000/svg">
<g clip-path="url(#clip0_179850_154775)">
<circle cx="15" cy="15" r="12" fill="#EDA749"/>
<path d="M27.5524 23.1962C27.4964 23.1699 27.4804 23.1665 27.4712 23.1573C27.0884 22.7802 26.5456 22.4648 26.3685 22.0088C26.1891 21.5471 26.7342 21.1049 26.9479 20.6501C30.6413 12.7923 25.9388 3.5998 17.4 2.00448C10.0783 0.636579 3.0011 5.6728 1.93375 13.0106C0.924688 19.9278 5.27522 26.3297 12.1193 27.8724C15.6573 28.6701 19.0113 28.0713 22.0888 26.116C22.4213 25.9045 22.619 25.8965 22.875 26.2085C23.1504 26.5434 23.4727 26.8439 23.7961 27.1353C24.0166 27.3342 24.0166 27.4656 23.8167 27.6941C21.9551 29.8094 20.1072 31.9373 18.2548 34.0606C17.3669 35.0788 16.4789 36.0958 15.5921 37.1152C15.1636 37.6077 14.8448 37.6146 14.4128 37.1209C10.7925 32.9738 7.1425 28.8518 3.56334 24.6703C-3.66468 16.2229 0.668708 2.99756 11.485 0.416023C19.6558 -1.5347 27.8472 3.56323 29.6345 11.7604C30.5224 15.8355 29.7808 19.6501 27.5524 23.1962Z" fill="#26487C"/>
<path d="M2.8501 14.9683C2.8501 9.22468 6.97093 4.18274 12.5671 3.0811C18.9803 1.81948 25.1855 5.70035 26.766 12.0371C27.6985 15.7762 26.9466 19.224 24.6702 22.3392C24.5787 22.4638 24.3045 22.5712 24.5204 22.7986C24.6987 22.9872 24.8404 23.2329 25.1913 23.0237C25.4724 22.8557 25.7626 22.9906 25.9821 23.2089C27.1271 24.3436 28.2836 25.4681 29.4001 26.6315C30.0206 27.2771 29.9635 28.2622 29.3475 28.8748C28.711 29.5078 27.6928 29.5101 26.998 28.8405C26.1615 28.0337 25.3535 27.1983 24.533 26.3755C24.2565 26.0978 23.9742 25.8247 23.7034 25.5413C23.4497 25.2761 23.3514 24.9504 23.532 24.6236C23.7148 24.2934 23.4165 24.2191 23.284 24.0694C23.1183 23.882 23.0314 24.1128 22.9423 24.1871C20.7036 26.0601 18.1346 27.0829 15.2114 27.1274C9.57873 27.2143 4.76881 23.5711 3.25807 18.1086C2.97352 17.0824 2.86153 16.0311 2.8501 14.9683ZM26.2015 15.0631C26.166 8.77557 21.1264 3.74849 14.8949 3.78734C8.67937 3.82505 3.66032 8.90584 3.68889 15.1306C3.71746 21.3107 8.80736 26.3424 15.0069 26.3184C21.179 26.2955 26.2357 21.2113 26.2015 15.0631Z" fill="#26487C"/>
<path d="M16.7953 18.543C16.6833 18.3647 16.5176 18.3304 16.3828 18.2596C13.8527 16.9385 11.3237 15.6152 8.78563 14.309C8.15139 13.9821 7.8257 13.533 7.85427 12.7925C7.89198 11.8063 7.87484 10.8166 7.85998 9.82814C7.85198 9.27504 8.07597 8.86249 8.55022 8.61222C10.4998 7.58715 12.4562 6.57694 14.4103 5.56215C14.8149 5.35188 15.2171 5.37131 15.6171 5.57929C17.5072 6.56208 19.3997 7.54144 21.2875 8.5288C21.7629 8.77793 22.0109 9.17219 22.0075 9.72529C21.9995 10.9458 22.0109 12.1663 22.0041 13.3868C22.0018 13.9147 21.7046 14.0964 21.235 13.8541C20.0488 13.245 18.866 12.6279 17.6878 12.004C17.3964 11.8497 17.105 11.7766 16.7736 11.7811C15.8011 11.7937 14.8286 11.7857 13.8207 11.7857C13.887 11.9617 14.0447 11.98 14.1578 12.0383C16.4753 13.2348 18.7906 14.4347 21.1161 15.6129C21.7286 15.9226 22.0292 16.3625 22.0132 17.0585C21.9892 18.0893 21.9938 19.1224 22.0109 20.1531C22.0212 20.7771 21.7515 21.1988 21.2098 21.4799C19.3711 22.4353 17.5347 23.3929 15.7005 24.3574C15.224 24.6077 14.7692 24.6088 14.2915 24.3574C12.4059 23.3655 10.5158 22.3838 8.62793 21.3976C8.12282 21.1336 7.85198 20.7348 7.85884 20.1417C7.8737 18.9795 7.85998 17.8173 7.86341 16.654C7.8657 16.0974 8.15825 15.9169 8.65192 16.1728C10.5935 17.1796 12.5362 18.1864 14.4698 19.2103C14.8457 19.4092 15.1703 19.4115 15.5325 19.2023C15.9428 18.9704 16.3691 18.7658 16.7953 18.543ZM21.4041 11.3263C21.4041 10.8612 21.3858 10.395 21.4098 9.93099C21.4327 9.46816 21.2578 9.18476 20.835 8.96877C19.066 8.06712 17.3073 7.14147 15.5543 6.2101C15.1703 6.00555 14.8355 6.00555 14.4492 6.2101C12.6185 7.18147 10.7798 8.13797 8.93876 9.08991C8.6005 9.26475 8.46108 9.50702 8.46794 9.88871C8.48508 10.8475 8.50108 11.8086 8.46222 12.7662C8.44165 13.285 8.65535 13.5593 9.09189 13.7844C11.8483 15.2061 14.5955 16.6448 17.3461 18.0767C17.5301 18.1727 17.7175 18.2618 17.7175 18.5098C17.7175 18.759 17.5278 18.8458 17.3438 18.9418C16.8684 19.1909 16.3862 19.4275 15.9234 19.6983C15.3006 20.0629 14.7155 20.048 14.0744 19.7029C12.3396 18.767 10.5821 17.8733 8.84048 16.9511C8.54222 16.7934 8.45994 16.8151 8.46679 17.1762C8.48736 18.135 8.48965 19.0949 8.46451 20.0537C8.45308 20.4788 8.63021 20.7291 8.98904 20.9131C10.8563 21.8776 12.7213 22.8455 14.5829 23.8203C14.8675 23.9689 15.1269 23.97 15.408 23.8226C17.233 22.8707 19.058 21.9187 20.8876 20.9759C21.2521 20.7885 21.4144 20.5234 21.4075 20.1086C21.3915 19.1201 21.3824 18.1316 21.4121 17.1442C21.427 16.6368 21.2281 16.3568 20.7813 16.1306C18.1061 14.7729 15.4445 13.389 12.7773 12.0166C12.5453 11.8977 12.3202 11.7709 12.4116 11.4623C12.4928 11.188 12.7328 11.1732 12.9785 11.1732C14.2424 11.1778 15.5074 11.1846 16.7713 11.1709C17.2227 11.1652 17.6261 11.2738 18.0204 11.4829C18.9929 12.0006 19.9722 12.5045 20.9493 13.0142C21.4018 13.2508 21.4018 13.2519 21.403 12.7639C21.4052 12.2863 21.4041 11.8063 21.4041 11.3263Z" fill="#26487C"/>
<path d="M15.8723 18.5145C15.366 18.9499 14.9192 18.9602 14.3501 18.6436C12.7308 17.7443 11.0726 16.9146 9.43046 16.0564C9.09449 15.8815 8.97793 15.4667 9.19048 15.1685C9.30933 15.0005 9.42589 15.1536 9.52303 15.2039C11.1035 16.0232 12.6805 16.8506 14.2587 17.6746C14.7843 17.95 15.31 18.222 15.8723 18.5145Z" fill="#EDA749"/>
<path d="M21.404 11.3266C21.404 11.8066 21.4051 12.2854 21.404 12.7654C21.4029 13.2522 21.4029 13.2522 20.9503 13.0156C19.9744 12.5059 18.9939 12.002 18.0214 11.4843C17.6271 11.2752 17.2237 11.1666 16.7724 11.1723C15.5084 11.1872 14.2434 11.1803 12.9795 11.1746C12.7327 11.1735 12.4938 11.1883 12.4127 11.4637C12.3213 11.7723 12.5464 11.898 12.7784 12.018C15.4456 13.3905 18.1082 14.7744 20.7823 16.132C21.2292 16.3594 21.4291 16.6382 21.4131 17.1456C21.3834 18.133 21.3926 19.1226 21.4086 20.11C21.4154 20.5237 21.252 20.7888 20.8886 20.9774C19.059 21.9202 17.234 22.8709 15.409 23.824C15.1279 23.9703 14.8685 23.9703 14.5839 23.8217C12.7224 22.8469 10.8574 21.8779 8.99009 20.9145C8.6324 20.7294 8.45527 20.4803 8.46556 20.0551C8.4907 19.0963 8.48841 18.1364 8.46784 17.1776C8.45984 16.8176 8.54326 16.7948 8.84153 16.9525C10.5831 17.8747 12.3407 18.7684 14.0754 19.7043C14.7154 20.0494 15.3005 20.0643 15.9244 19.6997C16.3872 19.4289 16.8695 19.1923 17.3449 18.9432C17.5277 18.8472 17.7174 18.7604 17.7186 18.5112C17.7186 18.2633 17.5312 18.173 17.3472 18.0781C14.5965 16.6462 11.8493 15.2075 9.09294 13.7859C8.6564 13.5607 8.4427 13.2865 8.46327 12.7676C8.50212 11.81 8.48613 10.8489 8.46898 9.89013C8.46213 9.50844 8.6004 9.26617 8.93981 9.09133C10.7808 8.13939 12.6195 7.18288 14.4502 6.21152C14.8365 6.00697 15.1702 6.00697 15.5553 6.21152C17.3095 7.14289 19.067 8.06854 20.836 8.97019C21.2589 9.18618 21.4349 9.46958 21.4109 9.93241C21.3857 10.3952 21.404 10.8615 21.404 11.3266Z" fill="#FCFDFF"/>
</g>
<path d="M44.6719 21.5229C44.6719 21.269 44.6328 21.0412 44.5547 20.8394C44.4831 20.631 44.3464 20.4422 44.1445 20.2729C43.9427 20.0972 43.6595 19.9246 43.2949 19.7554C42.9303 19.5861 42.4583 19.4103 41.8789 19.228C41.2344 19.0197 40.6224 18.7853 40.043 18.5249C39.4701 18.2645 38.9622 17.9618 38.5195 17.6167C38.0833 17.2651 37.7383 16.8582 37.4844 16.396C37.237 15.9338 37.1133 15.3966 37.1133 14.7847C37.1133 14.1922 37.2435 13.6551 37.5039 13.1733C37.7643 12.6851 38.1289 12.2684 38.5977 11.9233C39.0664 11.5718 39.6198 11.3016 40.2578 11.1128C40.9023 10.924 41.6087 10.8296 42.377 10.8296C43.4251 10.8296 44.3398 11.0184 45.1211 11.396C45.9023 11.7736 46.5078 12.2912 46.9375 12.9487C47.3737 13.6063 47.5918 14.3582 47.5918 15.2046H44.6816C44.6816 14.7879 44.5938 14.4233 44.418 14.1108C44.2487 13.7918 43.9883 13.5412 43.6367 13.3589C43.2917 13.1766 42.8555 13.0854 42.3281 13.0854C41.8203 13.0854 41.3971 13.1636 41.0586 13.3198C40.7201 13.4696 40.4661 13.6746 40.2969 13.9351C40.1276 14.189 40.043 14.4754 40.043 14.7944C40.043 15.0353 40.1016 15.2534 40.2188 15.4487C40.3424 15.644 40.5247 15.8263 40.7656 15.9956C41.0065 16.1649 41.3027 16.3244 41.6543 16.4741C42.0059 16.6239 42.4128 16.7703 42.875 16.9136C43.6497 17.1479 44.3301 17.4116 44.916 17.7046C45.5085 17.9976 46.0033 18.3263 46.4004 18.6909C46.7975 19.0555 47.097 19.4689 47.2988 19.9312C47.5007 20.3934 47.6016 20.9175 47.6016 21.5034C47.6016 22.1219 47.4811 22.6753 47.2402 23.1636C46.9993 23.6519 46.651 24.0653 46.1953 24.4038C45.7396 24.7424 45.196 24.9995 44.5645 25.1753C43.9329 25.3511 43.2266 25.439 42.4453 25.439C41.7422 25.439 41.0488 25.3478 40.3652 25.1655C39.6816 24.9767 39.0599 24.6935 38.5 24.3159C37.9466 23.9383 37.5039 23.4565 37.1719 22.8706C36.8398 22.2847 36.6738 21.5913 36.6738 20.7905H39.6133C39.6133 21.2332 39.6816 21.6076 39.8184 21.9136C39.9551 22.2196 40.1471 22.467 40.3945 22.6558C40.6484 22.8446 40.9479 22.9813 41.293 23.0659C41.6445 23.1506 42.0286 23.1929 42.4453 23.1929C42.9531 23.1929 43.3698 23.1213 43.6953 22.978C44.0273 22.8348 44.2715 22.6362 44.4277 22.3823C44.5905 22.1284 44.6719 21.842 44.6719 21.5229ZM54.2812 25.439C53.4609 25.439 52.7253 25.3088 52.0742 25.0483C51.4232 24.7814 50.8698 24.4136 50.4141 23.9448C49.9648 23.4761 49.6198 22.9325 49.3789 22.314C49.138 21.689 49.0176 21.0249 49.0176 20.3218V19.9312C49.0176 19.1304 49.1315 18.3979 49.3594 17.7339C49.5872 17.0698 49.9128 16.4937 50.3359 16.0054C50.7656 15.5171 51.2865 15.1427 51.8984 14.8823C52.5104 14.6154 53.2005 14.4819 53.9688 14.4819C54.7174 14.4819 55.3815 14.6056 55.9609 14.853C56.5404 15.1004 57.0254 15.452 57.416 15.9077C57.8132 16.3634 58.1126 16.9103 58.3145 17.5483C58.5163 18.1799 58.6172 18.883 58.6172 19.6577V20.8296H50.2188V18.9546H55.8535V18.7397C55.8535 18.3491 55.7819 18.0008 55.6387 17.6948C55.502 17.3823 55.2936 17.1349 55.0137 16.9526C54.7337 16.7703 54.3757 16.6792 53.9395 16.6792C53.5684 16.6792 53.2493 16.7606 52.9824 16.9233C52.7155 17.0861 52.4974 17.314 52.3281 17.6069C52.1654 17.8999 52.0417 18.245 51.957 18.6421C51.8789 19.0327 51.8398 19.4624 51.8398 19.9312V20.3218C51.8398 20.745 51.8984 21.1356 52.0156 21.4937C52.1393 21.8517 52.3118 22.161 52.5332 22.4214C52.7611 22.6818 53.0345 22.8836 53.3535 23.0269C53.679 23.1701 54.0469 23.2417 54.457 23.2417C54.9648 23.2417 55.4368 23.144 55.873 22.9487C56.3158 22.7469 56.6966 22.4442 57.0156 22.0405L58.3828 23.5249C58.1615 23.8439 57.8587 24.1499 57.4746 24.4429C57.097 24.7358 56.6413 24.9767 56.1074 25.1655C55.5736 25.3478 54.9648 25.439 54.2812 25.439Z" fill="#264275"/>
<path d="M70.4102 22.9585V25.2437H63.252V22.9585H70.4102ZM64.1992 11.0249V25.2437H61.2695V11.0249H64.1992ZM77.6172 22.8608V18.1538C77.6172 17.8153 77.5618 17.5256 77.4512 17.2847C77.3405 17.0373 77.168 16.8452 76.9336 16.7085C76.7057 16.5718 76.4095 16.5034 76.0449 16.5034C75.7324 16.5034 75.4622 16.5588 75.2344 16.6694C75.0065 16.7736 74.8307 16.9266 74.707 17.1284C74.5833 17.3237 74.5215 17.5549 74.5215 17.8218H71.709C71.709 17.3726 71.8132 16.9461 72.0215 16.5425C72.2298 16.1388 72.5326 15.784 72.9297 15.478C73.3268 15.1655 73.7988 14.9214 74.3457 14.7456C74.8991 14.5698 75.5176 14.4819 76.2012 14.4819C77.0215 14.4819 77.7507 14.6187 78.3887 14.8921C79.0267 15.1655 79.528 15.5757 79.8926 16.1226C80.2637 16.6694 80.4492 17.353 80.4492 18.1733V22.6948C80.4492 23.2743 80.485 23.7495 80.5566 24.1206C80.6283 24.4852 80.7324 24.8042 80.8691 25.0776V25.2437H78.0273C77.8906 24.9572 77.7865 24.5991 77.7148 24.1694C77.6497 23.7332 77.6172 23.297 77.6172 22.8608ZM77.9883 18.8081L78.0078 20.3999H76.4355C76.0645 20.3999 75.7422 20.4422 75.4688 20.5269C75.1953 20.6115 74.9707 20.7319 74.7949 20.8882C74.6191 21.0379 74.4889 21.2137 74.4043 21.4155C74.3262 21.6174 74.2871 21.8387 74.2871 22.0796C74.2871 22.3205 74.3424 22.5386 74.4531 22.7339C74.5638 22.9227 74.7233 23.0724 74.9316 23.1831C75.14 23.2873 75.3841 23.3394 75.6641 23.3394C76.0872 23.3394 76.4551 23.2547 76.7676 23.0854C77.0801 22.9162 77.321 22.7078 77.4902 22.4604C77.666 22.2131 77.7572 21.9787 77.7637 21.7573L78.5059 22.9487C78.4017 23.2157 78.2585 23.4924 78.0762 23.7788C77.9004 24.0653 77.6758 24.3354 77.4023 24.5894C77.1289 24.8368 76.8001 25.0418 76.416 25.2046C76.0319 25.3608 75.5762 25.439 75.0488 25.439C74.3783 25.439 73.7695 25.3055 73.2227 25.0386C72.6823 24.7651 72.2526 24.3908 71.9336 23.9155C71.6211 23.4338 71.4648 22.8869 71.4648 22.2749C71.4648 21.7215 71.569 21.23 71.7773 20.8003C71.9857 20.3706 72.2917 20.0093 72.6953 19.7163C73.1055 19.4168 73.6165 19.1922 74.2285 19.0425C74.8405 18.8862 75.5501 18.8081 76.3574 18.8081H77.9883ZM85.3711 16.9331V25.2437H82.5586V14.6772H85.1953L85.3711 16.9331ZM84.9609 19.5894H84.1992C84.1992 18.8081 84.3001 18.105 84.502 17.48C84.7038 16.8485 84.987 16.3114 85.3516 15.8687C85.7161 15.4194 86.1491 15.0776 86.6504 14.8433C87.1582 14.6024 87.7246 14.4819 88.3496 14.4819C88.8444 14.4819 89.2969 14.5535 89.707 14.6968C90.1172 14.84 90.4688 15.0679 90.7617 15.3804C91.0612 15.6929 91.2891 16.1063 91.4453 16.6206C91.6081 17.1349 91.6895 17.7632 91.6895 18.5054V25.2437H88.8574V18.4956C88.8574 18.0269 88.7923 17.6623 88.6621 17.4019C88.5319 17.1414 88.3398 16.9591 88.0859 16.855C87.8385 16.7443 87.5326 16.689 87.168 16.689C86.7904 16.689 86.4616 16.7638 86.1816 16.9136C85.9082 17.0633 85.6803 17.2716 85.498 17.5386C85.3223 17.799 85.1888 18.105 85.0977 18.4565C85.0065 18.8081 84.9609 19.1857 84.9609 19.5894ZM100.068 22.939V10.2437H102.9V25.2437H100.352L100.068 22.939ZM93.3887 20.0874V19.8823C93.3887 19.075 93.4798 18.3426 93.6621 17.6851C93.8444 17.021 94.1113 16.4513 94.4629 15.9761C94.8145 15.5008 95.2474 15.133 95.7617 14.8726C96.276 14.6121 96.862 14.4819 97.5195 14.4819C98.138 14.4819 98.6784 14.6121 99.1406 14.8726C99.6094 15.133 100.007 15.5041 100.332 15.9858C100.664 16.4611 100.931 17.0243 101.133 17.6753C101.335 18.3198 101.481 19.0262 101.572 19.7944V20.2437C101.481 20.9793 101.335 21.6629 101.133 22.2944C100.931 22.9259 100.664 23.4793 100.332 23.9546C100.007 24.4233 99.6094 24.7879 99.1406 25.0483C98.6719 25.3088 98.125 25.439 97.5 25.439C96.8424 25.439 96.2565 25.3055 95.7422 25.0386C95.2344 24.7716 94.8047 24.3973 94.4531 23.9155C94.1081 23.4338 93.8444 22.8674 93.6621 22.2163C93.4798 21.5653 93.3887 20.8556 93.3887 20.0874ZM96.2012 19.8823V20.0874C96.2012 20.5236 96.2337 20.9305 96.2988 21.3081C96.3704 21.6857 96.4844 22.021 96.6406 22.314C96.8034 22.6004 97.0117 22.825 97.2656 22.9878C97.526 23.144 97.8418 23.2222 98.2129 23.2222C98.6947 23.2222 99.0918 23.1147 99.4043 22.8999C99.7168 22.6785 99.9544 22.3758 100.117 21.9917C100.286 21.6076 100.384 21.1649 100.41 20.6636V19.3843C100.391 18.9741 100.332 18.6063 100.234 18.2808C100.143 17.9487 100.007 17.6655 99.8242 17.4312C99.6484 17.1968 99.4271 17.0145 99.1602 16.8843C98.8997 16.7541 98.5905 16.689 98.2324 16.689C97.8678 16.689 97.5553 16.7736 97.2949 16.9429C97.0345 17.1056 96.8229 17.3302 96.6602 17.6167C96.5039 17.9032 96.3867 18.2417 96.3086 18.6323C96.237 19.0164 96.2012 19.4331 96.2012 19.8823ZM105.234 23.8862C105.234 23.4696 105.378 23.1213 105.664 22.8413C105.957 22.5614 106.344 22.4214 106.826" fill="#264275"/>
<defs>
<clipPath id="clip0_179850_154775">
<rect width="30" height="37.4877" fill="white"/>
</clipPath>
</defs>
</svg>
