<svg width="29" height="29" viewBox="0 0 29 29" fill="none" xmlns="http://www.w3.org/2000/svg">
<g clip-path="url(#clip0_108_53300)">
<path d="M16.2498 13.1879C16.2498 12.9558 16.1576 12.7332 15.9935 12.5691C15.8294 12.4051 15.6068 12.3129 15.3748 12.3129C15.1427 12.3129 14.9201 12.4051 14.756 12.5691C14.5919 12.7332 14.4998 12.9558 14.4998 13.1879V14.5004C14.4998 14.7324 14.5919 14.955 14.756 15.1191C14.9201 15.2832 15.1427 15.3754 15.3748 15.3754C15.6068 15.3754 15.8294 15.2832 15.9935 15.1191C16.1576 14.955 16.2498 14.7324 16.2498 14.5004V13.1879Z" fill="#EDA749"/>
<path d="M15.3749 17.1254C15.1428 17.1254 14.9203 17.2176 14.7562 17.3817C14.5921 17.5458 14.4999 17.7683 14.4999 18.0004V19.3129C14.4999 19.5449 14.5921 19.7675 14.7562 19.9316C14.9203 20.0957 15.1428 20.1879 15.3749 20.1879C15.6069 20.1879 15.8295 20.0957 15.9936 19.9316C16.1577 19.7675 16.2499 19.5449 16.2499 19.3129V18.0004C16.2499 17.7683 16.1577 17.5458 15.9936 17.3817C15.8295 17.2176 15.6069 17.1254 15.3749 17.1254Z" fill="#EDA749"/>
<path d="M16.2498 8.37543C16.2498 8.14336 16.1576 7.9208 15.9935 7.75671C15.8294 7.59261 15.6068 7.50043 15.3748 7.50043C15.1427 7.50043 14.9201 7.59261 14.756 7.75671C14.5919 7.9208 14.4998 8.14336 14.4998 8.37543V9.68793C14.4998 9.91999 14.5919 10.1426 14.756 10.3066C14.9201 10.4707 15.1427 10.5629 15.3748 10.5629C15.6068 10.5629 15.8294 10.4707 15.9935 10.3066C16.1576 10.1426 16.2498 9.91999 16.2498 9.68793V8.37543Z" fill="#EDA749"/>
<path d="M11.8749 17.1249C11.6428 17.1249 11.4203 17.2171 11.2562 17.3812C11.0921 17.5453 10.9999 17.7679 10.9999 17.9999V19.3124C10.9993 19.4277 11.0215 19.542 11.0652 19.6486C11.1089 19.7553 11.1733 19.8523 11.2546 19.934C11.3359 20.0157 11.4326 20.0805 11.539 20.1248C11.6455 20.169 11.7596 20.1918 11.8749 20.1918C11.9902 20.1918 12.1043 20.169 12.2107 20.1248C12.3172 20.0805 12.4138 20.0157 12.4951 19.934C12.5764 19.8523 12.6408 19.7553 12.6845 19.6486C12.7282 19.542 12.7504 19.4277 12.7499 19.3124V17.9999C12.7499 17.7679 12.6577 17.5453 12.4936 17.3812C12.3295 17.2171 12.1069 17.125 11.8749 17.1249Z" fill="#EDA749"/>
<path d="M12.7499 13.1875C12.7504 13.0722 12.7282 12.958 12.6845 12.8513C12.6408 12.7446 12.5764 12.6477 12.4951 12.5659C12.4138 12.4842 12.3172 12.4194 12.2107 12.3751C12.1043 12.3309 11.9902 12.3081 11.8749 12.3081C11.7596 12.3081 11.6455 12.3309 11.539 12.3751C11.4326 12.4194 11.3359 12.4842 11.2546 12.5659C11.1733 12.6477 11.1089 12.7446 11.0652 12.8513C11.0215 12.958 10.9993 13.0722 10.9999 13.1875V14.5C10.9993 14.6153 11.0215 14.7295 11.0652 14.8362C11.1089 14.9428 11.1733 15.0398 11.2546 15.1215C11.3359 15.2032 11.4326 15.2681 11.539 15.3123C11.6455 15.3566 11.7596 15.3794 11.8749 15.3794C11.9902 15.3794 12.1043 15.3566 12.2107 15.3123C12.3172 15.2681 12.4138 15.2032 12.4951 15.1215C12.5764 15.0398 12.6408 14.9428 12.6845 14.8362C12.7282 14.7295 12.7504 14.6153 12.7499 14.5V13.1875Z" fill="#EDA749"/>
<path d="M12.7499 8.37498C12.7504 8.25971 12.7282 8.14546 12.6845 8.03879C12.6408 7.93213 12.5764 7.83515 12.4951 7.75344C12.4138 7.67172 12.3172 7.60688 12.2107 7.56263C12.1043 7.51838 11.9902 7.49561 11.8749 7.49561C11.7596 7.49561 11.6455 7.51838 11.539 7.56263C11.4326 7.60688 11.3359 7.67172 11.2546 7.75344C11.1733 7.83515 11.1089 7.93213 11.0652 8.03879C11.0215 8.14546 10.9993 8.25971 10.9999 8.37498V9.68748C10.9993 9.80275 11.0215 9.917 11.0652 10.0237C11.1089 10.1303 11.1733 10.2273 11.2546 10.309C11.3359 10.3907 11.4326 10.4556 11.539 10.4998C11.6455 10.5441 11.7596 10.5669 11.8749 10.5669C11.9902 10.5669 12.1043 10.5441 12.2107 10.4998C12.3172 10.4556 12.4138 10.3907 12.4951 10.309C12.5764 10.2273 12.6408 10.1303 12.6845 10.0237C12.7282 9.917 12.7504 9.80275 12.7499 9.68748V8.37498Z" fill="#EDA749"/>
<path d="M4.87499 19.3124C5.10705 19.3124 5.3296 19.2202 5.4937 19.0561C5.65779 18.892 5.74998 18.6695 5.74999 18.4374V17.1249C5.75056 17.0096 5.72836 16.8954 5.68464 16.7887C5.64093 16.6821 5.57657 16.5851 5.49526 16.5034C5.41396 16.4217 5.3173 16.3568 5.21086 16.3126C5.10441 16.2683 4.99027 16.2455 4.875 16.2455C4.75972 16.2455 4.64559 16.2683 4.53914 16.3126C4.4327 16.3568 4.33604 16.4217 4.25474 16.5034C4.17343 16.5851 4.10907 16.6821 4.06536 16.7887C4.02164 16.8954 3.99943 17.0096 4.00001 17.1249V18.4374C4.00002 18.6695 4.09221 18.892 4.25629 19.0561C4.42038 19.2202 4.64293 19.3124 4.87499 19.3124Z" fill="#EDA749"/>
<path d="M10.5624 3.125H16.6873C16.9194 3.125 17.1419 3.03281 17.306 2.86872C17.4701 2.70462 17.5623 2.48206 17.5623 2.25C17.5623 2.01794 17.4701 1.79538 17.306 1.63128C17.1419 1.46719 16.9194 1.375 16.6873 1.375H10.5624C10.3303 1.375 10.1078 1.46719 9.94366 1.63128C9.77957 1.79538 9.68738 2.01794 9.68738 2.25C9.68738 2.48206 9.77957 2.70462 9.94366 2.86872C10.1078 3.03281 10.3303 3.125 10.5624 3.125Z" fill="#EDA749"/>
<path d="M27.8878 25.4201L28.016 25.356C28.2229 25.2518 28.3801 25.0699 28.453 24.85C28.526 24.6301 28.5088 24.3903 28.4052 24.1831C28.3016 23.9759 28.12 23.8182 27.9004 23.7446C27.6807 23.6711 27.4408 23.6876 27.2333 23.7906L27.0382 23.8882L23.992 18.3955C24.6536 17.8855 25.1548 17.1962 25.4358 16.4095C25.7167 15.6228 25.7657 14.7719 25.5769 13.9582C25.388 13.1445 24.9693 12.4022 24.3705 11.8197C23.7717 11.2372 23.0182 10.839 22.1996 10.6726V7.95049C22.1996 7.71843 22.1074 7.49587 21.9433 7.33177C21.7792 7.16768 21.5566 7.07549 21.3246 7.07549C21.0925 7.07549 20.8699 7.16768 20.7058 7.33177C20.5417 7.49587 20.4496 7.71843 20.4496 7.95049V10.6729C19.6313 10.8397 18.8782 11.238 18.2799 11.8205C17.6815 12.403 17.2631 13.1451 17.0744 13.9585C16.8856 14.772 16.9346 15.6225 17.2153 16.4089C17.4961 17.1954 17.9969 17.8846 18.6581 18.3946L15.7227 23.6874H12.7499V22.8124C12.7504 22.6971 12.7282 22.5829 12.6845 22.4762C12.6408 22.3696 12.5764 22.2726 12.4951 22.1909C12.4138 22.1091 12.3172 22.0443 12.2107 22.0001C12.1043 21.9558 11.9901 21.933 11.8749 21.933C11.7596 21.933 11.6454 21.9558 11.539 22.0001C11.4326 22.0443 11.3359 22.1091 11.2546 22.1909C11.1733 22.2726 11.1089 22.3696 11.0652 22.4762C11.0215 22.5829 10.9993 22.6971 10.9999 22.8124V23.6874H9.24987V5.75H17.9998V9.25C17.9992 9.36527 18.0214 9.47952 18.0651 9.58619C18.1088 9.69285 18.1732 9.78983 18.2545 9.87154C18.3358 9.95326 18.4325 10.0181 18.5389 10.0623C18.6454 10.1066 18.7595 10.1294 18.8748 10.1294C18.9901 10.1294 19.1042 10.1066 19.2106 10.0623C19.3171 10.0181 19.4137 9.95326 19.495 9.87154C19.5763 9.78983 19.6407 9.69285 19.6844 9.58619C19.7281 9.47952 19.7503 9.36527 19.7498 9.25V4.875C19.7498 4.64294 19.6576 4.42038 19.4935 4.25629C19.3294 4.0922 19.1068 4.00001 18.8748 4H8.37491C8.14284 4.00001 7.92029 4.0922 7.7562 4.25629C7.59211 4.42038 7.49992 4.64294 7.49991 4.875V9.25H1.375C1.14294 9.25001 0.920384 9.3422 0.756292 9.50629C0.592199 9.67038 0.500009 9.89294 0.5 10.125L0.5 24.5624C0.50001 24.7945 0.592201 25.017 0.756293 25.1811C0.920385 25.3452 1.14294 25.4374 1.375 25.4374H14.7522L14.2597 26.3254C14.1473 26.5284 14.1201 26.7676 14.1841 26.9906C14.248 27.2136 14.3979 27.402 14.6007 27.5146C14.8036 27.6271 15.0428 27.6545 15.2658 27.5907C15.4889 27.5269 15.6774 27.3772 15.7901 27.1744L20.2305 19.1678C20.9477 19.3581 21.7021 19.3582 22.4193 19.1681L26.8595 27.1744C26.9721 27.3771 27.1607 27.5269 27.3837 27.5907C27.6068 27.6545 27.846 27.6271 28.0489 27.5146C28.2517 27.402 28.4016 27.2136 28.4655 26.9906C28.5295 26.7676 28.5022 26.5284 28.3899 26.3254L27.8878 25.4201ZM2.25 11H7.49991V23.6874H5.62855C5.70719 23.555 5.7491 23.404 5.74994 23.2499V21.9374C5.75051 21.8221 5.72831 21.7079 5.68459 21.6012C5.64088 21.4946 5.57652 21.3976 5.49521 21.3159C5.4139 21.2342 5.31725 21.1693 5.21081 21.1251C5.10436 21.0808 4.99022 21.058 4.87495 21.058C4.75967 21.058 4.64553 21.0808 4.53909 21.1251C4.43265 21.1693 4.33599 21.2342 4.25468 21.3159C4.17338 21.3976 4.10902 21.4946 4.0653 21.6012C4.02159 21.7079 3.99938 21.8221 3.99996 21.9374V23.2499C4.0008 23.404 4.0427 23.555 4.12135 23.6874H2.25V11ZM18.7116 14.9483C18.7116 14.4313 18.8649 13.9259 19.1521 13.496C19.4394 13.0662 19.8477 12.7311 20.3253 12.5333C20.803 12.3354 21.3286 12.2837 21.8357 12.3846C22.3428 12.4855 22.8086 12.7344 23.1741 13.1C23.5397 13.4656 23.7887 13.9314 23.8895 14.4385C23.9903 14.9456 23.9385 15.4712 23.7406 15.9489C23.5428 16.4265 23.2077 16.8348 22.7778 17.122C22.3479 17.4092 21.8425 17.5625 21.3254 17.5624C20.6324 17.5616 19.968 17.2859 19.478 16.7959C18.988 16.3058 18.7123 15.6414 18.7116 14.9483Z" fill="#1D4279"/>
<path d="M4.875 14.5C5.35825 14.5 5.75 14.1082 5.75 13.625C5.75 13.1418 5.35825 12.75 4.875 12.75C4.39175 12.75 4 13.1418 4 13.625C4 14.1082 4.39175 14.5 4.875 14.5Z" fill="#EDA749"/>
</g>
<defs>
<clipPath id="clip0_108_53300">
<rect width="28" height="28" fill="white" transform="translate(0.5 0.5)"/>
</clipPath>
</defs>
</svg>
