<svg width="29" height="36" viewBox="0 0 29 36" fill="none" xmlns="http://www.w3.org/2000/svg">
<g clip-path="url(#clip0_696_62030)">
<circle cx="14.0071" cy="14.5071" r="11.2057" fill="#EDA749"/>
<path d="M25.7286 22.1608C25.6763 22.1362 25.6613 22.133 25.6528 22.1245C25.2953 21.7723 24.7884 21.4778 24.623 21.052C24.4555 20.6209 24.9645 20.2079 25.164 19.7832C28.613 12.4456 24.2218 3.86152 16.2482 2.3718C9.41111 1.09444 2.80239 5.79731 1.8057 12.6494C0.863422 19.1087 4.92598 25.0868 11.317 26.5275C14.6208 27.2723 17.7528 26.7132 20.6266 24.8873C20.9372 24.6899 21.1218 24.6824 21.3608 24.9737C21.618 25.2864 21.9189 25.567 22.2209 25.8392C22.4269 26.0248 22.4269 26.1476 22.2401 26.361C20.5018 28.3363 18.7762 30.3233 17.0464 32.306C16.2173 33.2568 15.3881 34.2066 14.56 35.1585C14.1598 35.6184 13.8621 35.6248 13.4587 35.1638C10.0781 31.2912 6.66966 27.442 3.32742 23.5374C-3.42216 15.6491 0.624385 3.29914 10.7247 0.888485C18.3547 -0.933114 26.0039 3.82737 27.6729 11.4819C28.502 15.2873 27.8095 18.8494 25.7286 22.1608Z" fill="#26487C"/>
<path d="M2.66141 14.4775C2.66141 9.11408 6.50947 4.40588 11.7352 3.37716C17.7239 2.19904 23.5184 5.82303 24.9943 11.7403C25.865 15.232 25.1629 18.4515 23.0371 21.3605C22.9518 21.4768 22.6957 21.5771 22.8973 21.7895C23.0638 21.9656 23.1961 22.195 23.5237 21.9997C23.7863 21.8429 24.0573 21.9688 24.2622 22.1726C25.3315 23.2323 26.4114 24.2823 27.454 25.3687C28.0334 25.9716 27.9801 26.8915 27.4049 27.4635C26.8105 28.0547 25.8597 28.0568 25.2109 27.4314C24.4297 26.6781 23.6753 25.898 22.9091 25.1296C22.6508 24.8703 22.3873 24.6153 22.1343 24.3506C21.8974 24.1031 21.8057 23.7989 21.9743 23.4937C22.145 23.1853 21.8665 23.116 21.7427 22.9762C21.588 22.8011 21.5069 23.0167 21.4236 23.0861C19.3331 24.8351 16.9342 25.7902 14.2045 25.8318C8.94465 25.9129 4.45311 22.5109 3.04237 17.41C2.77666 16.4517 2.67208 15.4699 2.66141 14.4775ZM24.4671 14.5661C24.434 8.69469 19.728 4.00037 13.9089 4.03665C8.10482 4.07186 3.418 8.81635 3.44468 14.629C3.47136 20.4001 8.22434 25.0987 14.0135 25.0763C19.7771 25.0549 24.4991 20.3073 24.4671 14.5661Z" fill="#26487C"/>
<path d="M15.6836 17.8156C15.579 17.6491 15.4243 17.6171 15.2984 17.5509C12.9357 16.3173 10.5742 15.0816 8.20409 13.8618C7.61183 13.5566 7.3077 13.1372 7.33438 12.4457C7.3696 11.5248 7.35359 10.6007 7.33972 9.67759C7.33225 9.1611 7.5414 8.77586 7.98426 8.54216C9.80478 7.58494 11.6317 6.64159 13.4565 5.69398C13.8343 5.49762 14.2099 5.51577 14.5834 5.70998C16.3484 6.62772 18.1156 7.54225 19.8785 8.46426C20.3224 8.69689 20.554 9.06506 20.5508 9.58155C20.5433 10.7212 20.554 11.8609 20.5476 13.0006C20.5454 13.4937 20.268 13.6633 19.8294 13.4371C18.7217 12.8683 17.6172 12.2921 16.517 11.7094C16.2449 11.5654 15.9728 11.4971 15.6633 11.5013C14.7552 11.5131 13.8471 11.5056 12.9059 11.5056C12.9677 11.6699 13.115 11.687 13.2207 11.7414C15.3848 12.8587 17.5468 13.9792 19.7184 15.0794C20.2904 15.3686 20.571 15.7795 20.5561 16.4294C20.5337 17.3919 20.5379 18.3566 20.554 19.3192C20.5636 19.9018 20.3117 20.2956 19.8059 20.5581C18.0889 21.4502 16.374 22.3445 14.6613 23.2451C14.2163 23.4788 13.7916 23.4799 13.3455 23.2451C11.5847 22.3189 9.81972 21.4022 8.05682 20.4813C7.58515 20.2348 7.33225 19.8623 7.33865 19.3085C7.35252 18.2232 7.33972 17.1379 7.34292 16.0516C7.34505 15.5319 7.61824 15.3633 8.07923 15.6023C9.89228 16.5425 11.7064 17.4826 13.512 18.4388C13.8631 18.6245 14.1661 18.6266 14.5044 18.4313C14.8875 18.2147 15.2855 18.0237 15.6836 17.8156ZM19.9873 11.0766C19.9873 10.6423 19.9702 10.2069 19.9926 9.77363C20.014 9.34144 19.8507 9.0768 19.4559 8.87511C17.804 8.03314 16.1617 7.16876 14.5247 6.29904C14.1661 6.10803 13.8535 6.10803 13.4928 6.29904C11.7832 7.20611 10.0662 8.0993 8.34708 8.98822C8.03121 9.15149 7.90102 9.37773 7.90743 9.73415C7.92343 10.6295 7.93837 11.5269 7.90209 12.4212C7.88288 12.9057 8.08244 13.1618 8.49008 13.372C11.064 14.6995 13.6294 16.0431 16.1979 17.3802C16.3697 17.4698 16.5448 17.553 16.5448 17.7846C16.5448 18.0173 16.3676 18.0984 16.1958 18.188C15.7519 18.4206 15.3016 18.6415 14.8694 18.8944C14.2878 19.2349 13.7414 19.221 13.1428 18.8987C11.5229 18.0247 9.88161 17.1902 8.25531 16.329C7.97679 16.1818 7.89996 16.2021 7.90636 16.5393C7.92557 17.4346 7.9277 18.331 7.90423 19.2263C7.89355 19.6233 8.05896 19.857 8.39404 20.0288C10.1377 20.9295 11.8793 21.8333 13.6176 22.7436C13.8833 22.8823 14.1256 22.8834 14.3881 22.7457C16.0923 21.8568 17.7965 20.9679 19.505 20.0875C19.8454 19.9125 19.9969 19.6649 19.9905 19.2775C19.9756 18.3545 19.967 17.4314 19.9948 16.5094C20.0087 16.0356 19.823 15.7741 19.4057 15.5628C16.9076 14.2951 14.4222 13.0028 11.9316 11.7212C11.7149 11.6102 11.5047 11.4917 11.5901 11.2036C11.6659 10.9475 11.8899 10.9336 12.1194 10.9336C13.2996 10.9379 14.4809 10.9443 15.6612 10.9315C16.0827 10.9261 16.4594 11.0275 16.8275 11.2228C17.7357 11.7062 18.6502 12.1768 19.5626 12.6528C19.9852 12.8737 19.9852 12.8747 19.9862 12.4191C19.9884 11.973 19.9873 11.5248 19.9873 11.0766Z" fill="#26487C"/>
<path d="M14.8213 17.789C14.3486 18.1956 13.9313 18.2052 13.3999 17.9096C11.8878 17.0697 10.3394 16.295 8.80593 15.4936C8.4922 15.3303 8.38335 14.9429 8.58184 14.6644C8.69282 14.5075 8.80167 14.6505 8.89237 14.6975C10.3682 15.4626 11.8408 16.2352 13.3145 17.0046C13.8054 17.2618 14.2963 17.5158 14.8213 17.789Z" fill="#EDA749"/>
<path d="M19.9873 11.0766C19.9873 11.5248 19.9884 11.9719 19.9873 12.4201C19.9862 12.8747 19.9862 12.8747 19.5637 12.6538C18.6523 12.1779 17.7367 11.7073 16.8286 11.2239C16.4604 11.0286 16.0838 10.9272 15.6622 10.9326C14.482 10.9464 13.3007 10.94 12.1204 10.9347C11.8899 10.9336 11.6669 10.9475 11.5911 11.2047C11.5058 11.4928 11.716 11.6102 11.9326 11.7222C14.4233 13.0039 16.9097 14.2962 19.4068 15.5639C19.824 15.7763 20.0108 16.0367 19.9958 16.5105C19.9681 17.4325 19.9766 18.3566 19.9916 19.2786C19.998 19.6649 19.8454 19.9125 19.506 20.0886C17.7976 20.969 16.0934 21.8568 14.3892 22.7468C14.1266 22.8834 13.8844 22.8834 13.6187 22.7447C11.8803 21.8344 10.1388 20.9295 8.3951 20.0299C8.06109 19.857 7.89568 19.6244 7.90529 19.2274C7.92876 18.3321 7.92663 17.4357 7.90742 16.5403C7.89995 16.2042 7.97785 16.1829 8.25637 16.3301C9.88267 17.1913 11.5239 18.0258 13.1438 18.8998C13.7414 19.2221 14.2878 19.2359 14.8704 18.8955C15.3026 18.6426 15.7529 18.4217 16.1969 18.1891C16.3676 18.0994 16.5448 18.0183 16.5458 17.7857C16.5458 17.5541 16.3708 17.4698 16.199 17.3813C13.6304 16.0441 11.0651 14.7006 8.49114 13.3731C8.0835 13.1629 7.88394 12.9068 7.90315 12.4223C7.93943 11.528 7.92449 10.6306 7.90849 9.73523C7.90209 9.37881 8.03121 9.15258 8.34814 8.9893C10.0673 8.10038 11.7843 7.20719 13.4938 6.30012C13.8545 6.10911 14.1661 6.10911 14.5257 6.30012C16.1638 7.16984 17.805 8.03422 19.4569 8.87619C19.8518 9.07788 20.0161 9.34253 19.9937 9.77471C19.9702 10.2069 19.9873 10.6423 19.9873 11.0766Z" fill="#FCFDFF"/>
</g>
<defs>
<clipPath id="clip0_696_62030">
<rect width="28.0142" height="35.0063" fill="white" transform="translate(0 0.5)"/>
</clipPath>
</defs>
</svg>
