<svg width="16" height="16" viewBox="0 0 20 18" fill="none" xmlns="http://www.w3.org/2000/svg">
<path d="M10.0375 17.2814L9.5625 17.7564C9.69183 17.8759 9.86143 17.9422 10.0375 17.9422C10.2136 17.9422 10.3832 17.8759 10.5125 17.7564L10.0375 17.2814ZM10.0375 3.90639L9.5625 4.38139C9.6889 4.50658 9.8596 4.57682 10.0375 4.57682C10.2154 4.57682 10.3861 4.50658 10.5125 4.38139L10.0375 3.90639ZM10.475 16.8064L2.5375 8.85638L1.6 9.79388L9.55 17.7814L10.475 16.8064ZM17.475 8.85638L9.525 16.8064L10.475 17.7564L18.425 9.79388L17.475 8.85638ZM8.2375 3.13139L9.4875 4.38139L10.4375 3.43138L9.1875 2.18138L8.2375 3.13139ZM10.475 4.38139L11.725 3.13139L10.7875 2.19389L9.5375 3.44389L10.475 4.38139ZM14.6125 0.631393C13.2042 0.643583 11.8572 1.20933 10.8625 2.20641L11.8 3.14391C12.5598 2.38539 13.5889 1.95844 14.6625 1.95639L14.6125 0.631393ZM18.6625 6.00638C18.6547 6.54261 18.5401 7.07195 18.3255 7.56342C18.1109 8.0549 17.8005 8.49869 17.4125 8.86889L18.3625 9.80639C19.3619 8.81325 19.928 7.46527 19.9375 6.05639L18.6625 6.00638ZM20 6.00638C20 5.29947 19.8606 4.59953 19.5897 3.94659C19.3188 3.29365 18.9217 2.70053 18.4213 2.20126C17.9208 1.70198 17.3268 1.30632 16.6733 1.03693C16.0197 0.76755 15.3194 0.629749 14.6125 0.631393V1.95639C15.6866 1.95639 16.7168 2.38309 17.4763 3.14261C18.2358 3.90213 18.6625 4.93225 18.6625 6.00638H20ZM5.375 1.95639C5.90703 1.95467 6.4341 2.05877 6.92552 2.26263C7.41695 2.4665 7.86292 2.76608 8.2375 3.14391L9.1875 2.20641C8.68663 1.70631 8.09212 1.30981 7.43796 1.03957C6.78379 0.76932 6.08279 0.630615 5.375 0.631393V1.95639ZM1.3375 6.00638C1.33586 5.47511 1.43907 4.94875 1.64124 4.45746C1.84341 3.96616 2.14055 3.51961 2.51563 3.14337C2.89071 2.76713 3.33635 2.46861 3.82702 2.26492C4.31769 2.06124 4.84374 1.95639 5.375 1.95639V0.631393C3.94946 0.631393 2.58231 1.19767 1.5743 2.20568C0.566293 3.21369 0 4.58084 0 6.00638H1.3375ZM2.5375 8.85638C1.78471 8.09381 1.36258 7.06544 1.3625 5.9939H0.0375003C0.0469896 7.40278 0.613143 8.75077 1.6125 9.7439L2.5375 8.85638Z" fill="#666666"/>
</svg>
