<svg width="18" height="17" viewBox="0 0 18 17" fill="none" xmlns="http://www.w3.org/2000/svg">
<path d="M17.7497 0.638794H0.249746C0.151532 0.638794 0.0711746 0.719151 0.0711746 0.817365V2.24594C0.0711746 2.34415 0.151532 2.42451 0.249746 2.42451H17.7497C17.848 2.42451 17.9283 2.34415 17.9283 2.24594V0.817365C17.9283 0.719151 17.848 0.638794 17.7497 0.638794ZM17.7497 14.5674H0.249746C0.151532 14.5674 0.0711746 14.6477 0.0711746 14.7459V16.1745C0.0711746 16.2727 0.151532 16.3531 0.249746 16.3531H17.7497C17.848 16.3531 17.9283 16.2727 17.9283 16.1745V14.7459C17.9283 14.6477 17.848 14.5674 17.7497 14.5674ZM17.7497 7.60308H0.249746C0.151532 7.60308 0.0711746 7.68344 0.0711746 7.78165V9.21022C0.0711746 9.30844 0.151532 9.38879 0.249746 9.38879H17.7497C17.848 9.38879 17.9283 9.30844 17.9283 9.21022V7.78165C17.9283 7.68344 17.848 7.60308 17.7497 7.60308Z" fill="#1D4279"/>
</svg>
