<svg width="31" height="31" viewBox="0 0 31 31" fill="none" xmlns="http://www.w3.org/2000/svg">
<g clip-path="url(#clip0_841_10930)">
<path d="M12.1063 23.3054H5.25112C4.87626 23.3054 4.57239 23.6093 4.57239 23.9842C4.57239 24.359 4.87626 24.6629 5.25112 24.6629H12.1063C12.4812 24.6629 12.7851 24.359 12.7851 23.9842C12.7851 23.6093 12.4812 23.3054 12.1063 23.3054Z" fill="#EDA749"/>
<path d="M22.3552 23.3054H15.5C15.1251 23.3054 14.8213 23.6093 14.8213 23.9842C14.8213 24.359 15.1251 24.6629 15.5 24.6629H22.3552C22.73 24.6629 23.0339 24.359 23.0339 23.9842C23.0339 23.6093 22.73 23.3054 22.3552 23.3054Z" fill="#EDA749"/>
<path d="M22.3552 6.3371H5.25112C4.87626 6.3371 4.57239 6.64097 4.57239 7.01583C4.57239 7.39069 4.87626 7.69456 5.25112 7.69456H22.3552C22.73 7.69456 23.0339 7.39069 23.0339 7.01583C23.0339 6.64097 22.73 6.3371 22.3552 6.3371Z" fill="#EDA749"/>
<path d="M22.3552 9.73077H15.5C15.1251 9.73077 14.8213 10.0346 14.8213 10.4095C14.8213 10.7844 15.1251 11.0882 15.5 11.0882H22.3552C22.73 11.0882 23.0339 10.7844 23.0339 10.4095C23.0339 10.0346 22.73 9.73077 22.3552 9.73077Z" fill="#EDA749"/>
<path d="M22.3552 13.1245H15.5C15.1251 13.1245 14.8213 13.4283 14.8213 13.8032C14.8213 14.178 15.1251 14.4819 15.5 14.4819H22.3552C22.73 14.4819 23.0339 14.178 23.0339 13.8032C23.0339 13.4283 22.73 13.1245 22.3552 13.1245Z" fill="#EDA749"/>
<path d="M22.3552 16.5181H15.5C15.1251 16.5181 14.8213 16.822 14.8213 17.1968C14.8213 17.5717 15.1251 17.8756 15.5 17.8756H22.3552C22.73 17.8756 23.0339 17.5717 23.0339 17.1968C23.0339 16.822 22.73 16.5181 22.3552 16.5181Z" fill="#EDA749"/>
<path d="M22.3552 19.9118H15.5C15.1251 19.9118 14.8213 20.2156 14.8213 20.5905C14.8213 20.9654 15.1251 21.2692 15.5 21.2692H22.3552C22.73 21.2692 23.0339 20.9654 23.0339 20.5905C23.0339 20.2156 22.73 19.9118 22.3552 19.9118Z" fill="#EDA749"/>
<path d="M12.1063 19.9118H5.25112C4.87626 19.9118 4.57239 20.2156 4.57239 20.5905C4.57239 20.9654 4.87626 21.2692 5.25112 21.2692H12.1063C12.4812 21.2692 12.7851 20.9654 12.7851 20.5905C12.7851 20.2156 12.4812 19.9118 12.1063 19.9118Z" fill="#EDA749"/>
<path d="M12.1063 9.73077H5.25112C4.87626 9.73077 4.57239 10.0346 4.57239 10.4095V17.2647C4.57239 17.6396 4.87626 17.9434 5.25112 17.9434H12.1063C12.4812 17.9434 12.7851 17.6396 12.7851 17.2647V10.4095C12.7851 10.0346 12.4812 9.73077 12.1063 9.73077ZM11.4276 16.586H5.92985V11.0882H11.4276V16.586Z" fill="#EDA749"/>
<path d="M29.1425 5.65837H27.1063V3.62218C27.1063 2.87367 26.4974 2.26471 25.7489 2.26471H1.85747C1.10896 2.26471 0.5 2.87367 0.5 3.62218V25.3416C0.5 27.2129 2.0224 28.7353 3.89367 28.7353H27.1063C28.9776 28.7353 30.5 27.2129 30.5 25.3416V7.01584C30.5 6.26733 29.891 5.65837 29.1425 5.65837ZM29.1425 25.3416C29.1425 26.4644 28.2291 27.3778 27.1063 27.3778H3.89367C2.77091 27.3778 1.85747 26.4644 1.85747 25.3416V3.62218H25.7489V24.3235C25.7489 25.2592 26.5101 26.0204 27.4457 26.0204C27.8205 26.0204 28.1244 25.7165 28.1244 25.3416C28.1244 24.9668 27.8205 24.6629 27.4457 24.6629C27.2586 24.6629 27.1063 24.5107 27.1063 24.3235V7.01584H29.1425V25.3416Z" fill="#1D4279"/>
</g>
<defs>
<clipPath id="clip0_841_10930">
<rect width="30" height="30" fill="white" transform="translate(0.5 0.5)"/>
</clipPath>
</defs>
</svg>
