<svg width="14" height="14" viewBox="0 0 14 14" fill="none" xmlns="http://www.w3.org/2000/svg">
<path fill-rule="evenodd" clip-rule="evenodd" d="M6.85938 1.5C3.82181 1.5 1.35938 3.96243 1.35938 7C1.35938 10.0375 3.82181 12.5 6.85938 12.5C9.89691 12.5 12.3594 10.0375 12.3594 7C12.3594 3.96243 9.89691 1.5 6.85938 1.5ZM0.359375 7C0.359375 3.41015 3.26952 0.5 6.85938 0.5C10.4492 0.5 13.3594 3.41015 13.3594 7C13.3594 10.5899 10.4492 13.5 6.85938 13.5C3.26952 13.5 0.359375 10.5899 0.359375 7ZM6.85938 3.16665C7.13551 3.16665 7.35938 3.39051 7.35938 3.66665V3.67331C7.35938 3.94945 7.13551 4.17331 6.85938 4.17331C6.58324 4.17331 6.35938 3.94945 6.35938 3.67331V3.66665C6.35938 3.39051 6.58324 3.16665 6.85938 3.16665ZM6.85938 5.16667C7.13551 5.16667 7.35938 5.39053 7.35938 5.66667V10.3333C7.35938 10.6095 7.13551 10.8333 6.85938 10.8333C6.58324 10.8333 6.35938 10.6095 6.35938 10.3333V5.66667C6.35938 5.39053 6.58324 5.16667 6.85938 5.16667Z" fill="#2C2C2C"/>
</svg>
