<svg width="15" height="14" viewBox="0 0 15 14" fill="none" xmlns="http://www.w3.org/2000/svg">
<path d="M1.57463 1.73419L2.61115 0.423242C2.74321 0.290604 2.90017 0.185364 3.07303 0.113569C3.24588 0.041774 3.43121 0.00483795 3.61838 0.00488285C3.99983 0.00488285 4.35842 0.154297 4.62736 0.423242L6.64182 2.4377C6.77446 2.56975 6.8797 2.72672 6.95149 2.89957C7.02329 3.07242 7.06022 3.25775 7.06018 3.44492C7.06018 3.82637 6.91076 4.18496 6.64182 4.45391L5.22678 6.14688C5.57159 6.90689 5.90916 7.66547 6.50001 8.25488C7.08936 8.84716 7.92251 9.26112 8.68264 9.60802L10.5493 7.87735C10.6813 7.74471 10.8383 7.63947 11.0111 7.56768C11.184 7.49588 11.3693 7.45894 11.5565 7.45899C11.9379 7.45899 12.2965 7.6084 12.5655 7.87735L14.5817 9.89004C14.7145 10.0223 14.8198 10.1796 14.8916 10.3528C14.9634 10.5259 15.0003 10.7116 15 10.899C15 11.2805 14.8506 11.6391 14.5817 11.908L13.0971 13.2549C12.6682 13.6856 12.0758 13.9299 11.4676 13.9299C11.3393 13.9299 11.2162 13.9193 11.0949 13.8983C8.72541 13.508 6.37522 12.2477 4.47854 10.3527C2.58361 8.45958 1.32502 6.11114 0.929514 3.73458C0.809983 3.0086 1.0508 2.26153 1.57463 1.73419Z" fill="white"/>
</svg>
