<svg width="31" height="31" viewBox="0 0 31 31" fill="none" xmlns="http://www.w3.org/2000/svg">
<g clip-path="url(#clip0_696_11173)">
<path d="M21.125 16.8469H9.87502V10.5969H7.375V8.4719L15.5 1.65314L23.6249 8.4719V10.5969H21.1249L21.125 16.8469ZM11.125 15.5969H19.875V9.34691H22.375V9.05938L15.5 3.29063L8.62498 9.05938V9.34691H11.125V15.5969Z" fill="#EDA749"/>
<path d="M3.02498 21.8469H0.5V20.5969H2.23123L5.73127 13.0969H8.62497V14.3469H6.52502L3.02498 21.8469Z" fill="#1D4279"/>
<path d="M0.5 28.0969H30.5V29.3468H0.5V28.0969Z" fill="#1D4279"/>
<path d="M30.5 21.8469H27.975L24.4812 14.3469H22.375V13.0969H25.275L28.7687 20.5969H30.5V21.8469Z" fill="#1D4279"/>
<path d="M24.4563 21.8469H6.54999L7.8625 17.2531L9.06249 17.5969L8.20626 20.5969H22.8L21.9438 17.5969L23.1438 17.2531L24.4563 21.8469Z" fill="#1D4279"/>
<path d="M3.625 24.3469H5.50003V25.5969H3.625V24.3469Z" fill="#1D4279"/>
<path d="M7.375 24.3469H9.25003V25.5969H7.375V24.3469Z" fill="#1D4279"/>
<path d="M11.125 24.3469H13V25.5969H11.125V24.3469Z" fill="#1D4279"/>
<path d="M14.875 24.3469H16.75V25.5969H14.875V24.3469Z" fill="#1D4279"/>
<path d="M18.625 24.3469H20.5V25.5969H18.625V24.3469Z" fill="#1D4279"/>
<path d="M22.375 24.3469H24.25V25.5969H22.375V24.3469Z" fill="#1D4279"/>
<path d="M26.125 24.3469H28V25.5969H26.125V24.3469Z" fill="#1D4279"/>
</g>
<defs>
<clipPath id="clip0_696_11173">
<rect width="30" height="30" fill="white" transform="translate(0.5 0.5)"/>
</clipPath>
</defs>
</svg>
