<svg width="15" height="15" viewBox="0 0 15 15" fill="none" xmlns="http://www.w3.org/2000/svg">
<g clip-path="url(#clip0_1572_41742)">
<path d="M13.7048 2.27233L12.8236 2.96139C11.622 1.42545 9.75325 0.439514 7.65482 0.439514C4.03138 0.439514 1.09857 3.3692 1.09388 6.9942C1.08919 10.6223 4.02825 13.5645 7.65482 13.5645C10.4876 13.5645 12.9017 11.7676 13.8204 9.25045C13.8439 9.18483 13.8095 9.11139 13.7439 9.08951L12.8579 8.78483C12.8271 8.77424 12.7932 8.77616 12.7638 8.79018C12.7343 8.80419 12.7114 8.82919 12.7001 8.85983C12.672 8.93795 12.6408 9.01608 12.6079 9.09264C12.3376 9.73326 11.9501 10.3083 11.4564 10.802C10.9666 11.2927 10.3867 11.6842 9.74857 11.9551C9.08763 12.2348 8.38294 12.377 7.65794 12.377C6.93138 12.377 6.22825 12.2348 5.56732 11.9551C4.92853 11.6854 4.34844 11.2937 3.8595 10.802C3.36841 10.3123 2.97729 9.73173 2.70794 9.09264C2.42825 8.43014 2.28607 7.72702 2.28607 7.00045C2.28607 6.27389 2.42825 5.57077 2.70794 4.90826C2.97825 4.26764 3.36575 3.69264 3.8595 3.19889C4.35325 2.70514 4.92825 2.31764 5.56732 2.04576C6.22825 1.76608 6.93294 1.62389 7.65794 1.62389C8.3845 1.62389 9.08763 1.76608 9.74857 2.04576C10.3874 2.31552 10.9674 2.7072 11.4564 3.19889C11.6111 3.35358 11.7564 3.51764 11.8908 3.68951L10.9501 4.42389C10.9315 4.43829 10.9173 4.45764 10.9092 4.47974C10.9012 4.50183 10.8995 4.52576 10.9043 4.54877C10.9092 4.57179 10.9205 4.59295 10.9369 4.60983C10.9533 4.62672 10.9741 4.63863 10.997 4.6442L13.7408 5.31608C13.8189 5.33483 13.8954 5.27545 13.8954 5.19576L13.9079 2.3692C13.9064 2.26608 13.7861 2.20826 13.7048 2.27233Z" fill="black" fill-opacity="0.85"/>
</g>
<defs>
<clipPath id="clip0_1572_41742">
<rect width="14" height="14" fill="white" transform="translate(0.5 0.00201416)"/>
</clipPath>
</defs>
</svg>
