<svg width="14" height="15" viewBox="0 0 14 15" fill="none" xmlns="http://www.w3.org/2000/svg">
<path d="M1 1.33334V5.33334M1 5.33334H5M1 5.33334L2.76022 3.75379C3.68089 2.83474 4.87534 2.23977 6.1636 2.05854C7.4518 1.8773 8.76407 2.11962 9.9026 2.74896C11.0411 3.37832 11.9443 4.36062 12.476 5.54786C13.0077 6.73508 13.1391 8.06294 12.8504 9.33134C12.5617 10.5997 11.8687 11.74 10.8755 12.5803C9.88247 13.4205 8.64313 13.9153 7.34433 13.9901C6.0456 14.0648 4.75768 13.7155 3.67472 12.9947C2.59177 12.2739 1.77241 11.2207 1.34012 9.99381" stroke="#2C2C2C" stroke-width="1.26667" stroke-linecap="round" stroke-linejoin="round"/>
</svg>
