<svg width="10" height="11" viewBox="0 0 10 11" fill="none" xmlns="http://www.w3.org/2000/svg">
<g clip-path="url(#clip0_267_67303)">
<g clip-path="url(#clip1_267_67303)">
<mask id="path-1-inside-1_267_67303" fill="white">
<path d="M10 5.5C10 8.26142 7.76142 10.5 5 10.5C2.23858 10.5 0 8.26142 0 5.5C0 2.73858 2.23858 0.5 5 0.5C7.76142 0.5 10 2.73858 10 5.5ZM0.5 5.5C0.5 7.98528 2.51472 10 5 10C7.48528 10 9.5 7.98528 9.5 5.5C9.5 3.01472 7.48528 1 5 1C2.51472 1 0.5 3.01472 0.5 5.5Z"/>
</mask>
<path d="M10 5.5C10 8.26142 7.76142 10.5 5 10.5C2.23858 10.5 0 8.26142 0 5.5C0 2.73858 2.23858 0.5 5 0.5C7.76142 0.5 10 2.73858 10 5.5ZM0.5 5.5C0.5 7.98528 2.51472 10 5 10C7.48528 10 9.5 7.98528 9.5 5.5C9.5 3.01472 7.48528 1 5 1C2.51472 1 0.5 3.01472 0.5 5.5Z" stroke="#F5F5F5" stroke-width="12" mask="url(#path-1-inside-1_267_67303)"/>
<path d="M10 5.5C10 8.26142 7.76142 10.5 5 10.5C2.23858 10.5 0 8.26142 0 5.5C0 2.73858 2.23858 0.5 5 0.5C7.76142 0.5 10 2.73858 10 5.5ZM0.5 5.5C0.5 7.98528 2.51472 10 5 10C7.48528 10 9.5 7.98528 9.5 5.5C9.5 3.01472 7.48528 1 5 1C2.51472 1 0.5 3.01472 0.5 5.5Z" fill="#52C41A"/>
</g>
<path d="M7.67889 3.34375H7.21081C7.14518 3.34375 7.08291 3.37388 7.04273 3.42545L4.28179 6.92299L2.95791 5.24554C2.93788 5.22011 2.91235 5.19955 2.88324 5.1854C2.85413 5.17125 2.82219 5.16388 2.78983 5.16384H2.32175C2.27688 5.16384 2.2521 5.2154 2.27956 5.25022L4.11371 7.57388C4.19943 7.68237 4.36416 7.68237 4.45054 7.57388L7.72108 3.42946C7.74853 3.39531 7.72376 3.34375 7.67889 3.34375Z" fill="#52C41A"/>
</g>
<defs>
<clipPath id="clip0_267_67303">
<rect width="10" height="10" fill="white" transform="translate(0 0.5)"/>
</clipPath>
<clipPath id="clip1_267_67303">
<rect width="10" height="10" fill="white" transform="translate(0 0.5)"/>
</clipPath>
</defs>
</svg>
