<svg width="10" height="11" viewBox="0 0 10 11" fill="none" xmlns="http://www.w3.org/2000/svg">
<g clip-path="url(#clip0_274_67728)">
<g clip-path="url(#clip1_274_67728)">
<mask id="path-1-inside-1_274_67728" fill="white">
<path d="M10 5.5C10 8.26142 7.76142 10.5 5 10.5C2.23858 10.5 0 8.26142 0 5.5C0 2.73858 2.23858 0.5 5 0.5C7.76142 0.5 10 2.73858 10 5.5ZM0.5 5.5C0.5 7.98528 2.51472 10 5 10C7.48528 10 9.5 7.98528 9.5 5.5C9.5 3.01472 7.48528 1 5 1C2.51472 1 0.5 3.01472 0.5 5.5Z"/>
</mask>
<path d="M10 5.5C10 8.26142 7.76142 10.5 5 10.5C2.23858 10.5 0 8.26142 0 5.5C0 2.73858 2.23858 0.5 5 0.5C7.76142 0.5 10 2.73858 10 5.5ZM0.5 5.5C0.5 7.98528 2.51472 10 5 10C7.48528 10 9.5 7.98528 9.5 5.5C9.5 3.01472 7.48528 1 5 1C2.51472 1 0.5 3.01472 0.5 5.5Z" stroke="#F5F5F5" stroke-width="12" mask="url(#path-1-inside-1_274_67728)"/>
<path d="M10 5.5C10 8.26142 7.76142 10.5 5 10.5C2.23858 10.5 0 8.26142 0 5.5C0 2.73858 2.23858 0.5 5 0.5C7.76142 0.5 10 2.73858 10 5.5ZM0.5 5.5C0.5 7.98528 2.51472 10 5 10C7.48528 10 9.5 7.98528 9.5 5.5C9.5 3.01472 7.48528 1 5 1C2.51472 1 0.5 3.01472 0.5 5.5Z" fill="#F5222D"/>
</g>
<path d="M5.34665 5.49969L7.10446 3.40437C7.13393 3.36955 7.10915 3.31665 7.06361 3.31665H6.52924C6.49777 3.31665 6.46763 3.33071 6.44687 3.35482L4.9971 5.08317L3.54732 3.35482C3.52723 3.33071 3.4971 3.31665 3.46495 3.31665H2.93058C2.88504 3.31665 2.86027 3.36955 2.88973 3.40437L4.64754 5.49969L2.88973 7.595C2.88313 7.60276 2.8789 7.61225 2.87753 7.62235C2.87616 7.63245 2.87772 7.64272 2.88202 7.65196C2.88633 7.6612 2.89319 7.669 2.90179 7.67446C2.9104 7.67991 2.92039 7.68278 2.93058 7.68272H3.46495C3.49643 7.68272 3.52656 7.66866 3.54732 7.64455L4.9971 5.9162L6.44687 7.64455C6.46696 7.66866 6.4971 7.68272 6.52924 7.68272H7.06361C7.10915 7.68272 7.13393 7.62982 7.10446 7.595L5.34665 5.49969Z" fill="#F5222D"/>
</g>
<defs>
<clipPath id="clip0_274_67728">
<rect width="10" height="10" fill="white" transform="translate(0 0.5)"/>
</clipPath>
<clipPath id="clip1_274_67728">
<rect width="10" height="10" fill="white" transform="translate(0 0.5)"/>
</clipPath>
</defs>
</svg>
