<svg width="31" height="31" viewBox="0 0 31 31" fill="none" xmlns="http://www.w3.org/2000/svg">
<g clip-path="url(#clip0_841_11215)">
<path d="M27.7383 2.375H14.5586C13.0359 2.375 11.7969 3.61394 11.7969 5.13669V13.5914L9.34972 12.3744C9.26709 12.3332 9.18309 12.2943 9.0984 12.2574C9.81686 11.5074 10.2598 10.4911 10.2598 9.37306C10.2598 7.07166 8.3875 5.19917 6.08609 5.19917C3.78445 5.19917 1.9122 7.07166 1.9122 9.37306C1.9122 10.6237 2.46587 11.747 3.34019 12.5126C1.73001 13.4185 0.5 15.1857 0.5 17.375V20.1992C0.5 21.415 1.28941 22.4498 2.38278 22.8176V27.7305C2.38278 28.2158 2.77623 28.6094 3.26169 28.6094H8.91004C9.39549 28.6094 9.78894 28.2158 9.78894 27.7305V17.8554L12.6028 19.2621C13.6797 19.8005 15.1404 19.4796 15.801 18.2539H18.9522L15.6154 27.43C15.4494 27.8862 15.6849 28.3906 16.1411 28.5563C16.6625 28.7461 17.1262 28.419 17.2674 28.0308L20.8226 18.2539H21.4388L25.0304 28.0336C25.1668 28.4046 25.6271 28.7507 26.1586 28.5554C26.614 28.3881 26.848 27.8832 26.6804 27.4275L23.3113 18.2539H27.7383C29.2315 18.2539 30.5 17.0493 30.5 15.4922V5.13669C30.5 3.57938 29.2315 2.375 27.7383 2.375ZM3.67001 9.37306C3.67001 8.04074 4.75377 6.95699 6.08586 6.95699C7.41818 6.95699 8.50194 8.04074 8.50194 9.37306C8.50194 10.7052 7.41818 11.7889 6.08586 11.7889C4.75377 11.7889 3.67001 10.7052 3.67001 9.37306ZM14.2988 17.3141C14.2965 17.3205 14.2943 17.3272 14.2922 17.3338C14.2322 17.5011 14.0967 17.6421 13.9308 17.7103C13.7552 17.7817 13.5577 17.7742 13.389 17.6899C11.7177 16.8538 9.3028 15.6474 9.3028 15.6474C8.71961 15.3558 8.03113 15.7806 8.03113 16.4336V26.8516H4.14059V22.082C4.14059 21.5967 3.74692 21.203 3.26169 21.203C2.70802 21.203 2.25781 20.7528 2.25781 20.1992V17.375C2.25781 15.2274 4.00647 13.547 6.08586 13.547H6.86246C7.4516 13.547 8.04005 13.6852 8.5658 13.9477C8.5658 13.9477 12.9253 16.1157 14.0356 16.6687C14.2734 16.7868 14.3865 17.0642 14.2988 17.3141ZM28.7422 15.4922C28.7422 15.7607 28.638 16.0127 28.4485 16.2022C28.262 16.389 28.0031 16.4961 27.7383 16.4961H15.9921C15.9905 16.4913 15.9894 16.4865 15.9877 16.4819L18.169 12.1196C18.386 11.6855 18.2102 11.1577 17.776 10.9404C17.342 10.7235 16.814 10.8992 16.5968 11.3334L14.7365 15.0539C14.3897 14.8811 13.9866 14.6804 13.5547 14.4657V5.13669C13.5547 4.58325 14.0049 4.13281 14.5586 4.13281H27.7383C28.0031 4.13281 28.262 4.23993 28.4488 4.42715C28.638 4.61621 28.7422 4.86821 28.7422 5.13669V15.4922Z" fill="#1D4279"/>
<path d="M25.8555 6.14056H16.4414C15.9559 6.14056 15.5625 6.53401 15.5625 7.01947C15.5625 7.50493 15.9559 7.89838 16.4414 7.89838H25.8555C26.3408 7.89838 26.7345 7.50493 26.7345 7.01947C26.7345 6.53401 26.341 6.14056 25.8555 6.14056Z" fill="#EDA749"/>
<path d="M25.8555 9.43555H21.1483C20.6631 9.43555 20.2694 9.82899 20.2694 10.3145C20.2694 10.7999 20.6631 11.1934 21.1483 11.1934H25.8555C26.3408 11.1934 26.7344 10.7999 26.7344 10.3145C26.7344 9.82899 26.341 9.43555 25.8555 9.43555Z" fill="#EDA749"/>
<path d="M25.8555 12.7305H21.1483C20.6631 12.7305 20.2694 13.124 20.2694 13.6094C20.2694 14.0947 20.6631 14.4883 21.1483 14.4883H25.8555C26.3408 14.4883 26.7344 14.0947 26.7344 13.6094C26.7344 13.124 26.341 12.7305 25.8555 12.7305Z" fill="#EDA749"/>
</g>
<defs>
<clipPath id="clip0_841_11215">
<rect width="30" height="30" fill="white" transform="translate(0.5 0.5)"/>
</clipPath>
</defs>
</svg>
