<svg width="20" height="21" viewBox="0 0 20 21" fill="none" xmlns="http://www.w3.org/2000/svg">
<path d="M13.4785 7.41211C13.5938 7.41211 13.709 7.41602 13.8223 7.42188C13.3457 4.9082 10.7305 2.98633 7.57422 2.98633C4.08203 2.98633 1.25 5.3418 1.25 8.24805C1.25 9.83203 2.10156 11.2598 3.43555 12.2246C3.49057 12.2635 3.53544 12.315 3.56637 12.3748C3.59731 12.4346 3.61339 12.501 3.61328 12.5684C3.61328 12.6152 3.60352 12.6582 3.5918 12.7031C3.48438 13.0996 3.31445 13.7344 3.30664 13.7637C3.29297 13.8145 3.27344 13.8652 3.27344 13.918C3.27344 14.0332 3.36719 14.1289 3.48438 14.1289C3.5293 14.1289 3.56641 14.1113 3.60547 14.0898L4.99023 13.291C5.09375 13.2305 5.20508 13.1934 5.32617 13.1934C5.38867 13.1934 5.45117 13.2031 5.51172 13.2207C6.1582 13.4062 6.85547 13.5098 7.57617 13.5098C7.69336 13.5098 7.80859 13.5078 7.92383 13.502C7.78516 13.0918 7.71094 12.6602 7.71094 12.2129C7.71094 9.56055 10.293 7.41211 13.4785 7.41211ZM9.68359 5.72266C10.1484 5.72266 10.5273 6.09961 10.5273 6.56445C10.5273 7.0293 10.1504 7.40625 9.68359 7.40625C9.21875 7.40625 8.83984 7.0293 8.83984 6.56445C8.83984 6.09961 9.21875 5.72266 9.68359 5.72266ZM5.4668 7.40625C5.00195 7.40625 4.62305 7.0293 4.62305 6.56445C4.62305 6.09961 5 5.72266 5.4668 5.72266C5.93359 5.72266 6.31055 6.09961 6.31055 6.56445C6.31055 7.0293 5.93164 7.40625 5.4668 7.40625ZM16.9277 15.5234C18.0391 14.7188 18.748 13.5312 18.748 12.209C18.748 9.78711 16.3887 7.82422 13.4766 7.82422C10.5664 7.82422 8.20508 9.78711 8.20508 12.209C8.20508 14.6309 10.5645 16.5938 13.4766 16.5938C14.0781 16.5938 14.6602 16.5078 15.1973 16.3535C15.248 16.3379 15.2988 16.3301 15.3516 16.3301C15.4531 16.3301 15.5449 16.3613 15.6309 16.4102L16.7852 17.0742C16.8184 17.0938 16.8496 17.1074 16.8867 17.1074C16.9099 17.1076 16.9328 17.1032 16.9543 17.0945C16.9757 17.0858 16.9953 17.0729 17.0117 17.0566C17.028 17.0402 17.0409 17.0207 17.0496 16.9992C17.0583 16.9778 17.0627 16.9548 17.0625 16.9316C17.0625 16.8887 17.0449 16.8457 17.0352 16.8027C17.0293 16.7793 16.8867 16.25 16.7969 15.918C16.7871 15.8809 16.7793 15.8438 16.7793 15.8066C16.7813 15.6914 16.8398 15.5879 16.9277 15.5234ZM11.7227 11.5098C11.334 11.5098 11.0195 11.1953 11.0195 10.8086C11.0195 10.4219 11.334 10.1074 11.7227 10.1074C12.1113 10.1074 12.4258 10.4219 12.4258 10.8086C12.4258 11.1953 12.1094 11.5098 11.7227 11.5098ZM15.2363 11.5098C14.8477 11.5098 14.5332 11.1953 14.5332 10.8086C14.5332 10.4219 14.8477 10.1074 15.2363 10.1074C15.625 10.1074 15.9395 10.4219 15.9395 10.8086C15.9385 10.9946 15.8641 11.1727 15.7324 11.3041C15.6007 11.4354 15.4223 11.5094 15.2363 11.5098Z" fill="white"/>
</svg>
