<svg width="30" height="22" viewBox="0 0 30 22" fill="none" xmlns="http://www.w3.org/2000/svg">
<path d="M29.3819 3.63976C29.0361 2.35459 28.0228 1.34156 26.7379 0.995496C24.3902 0.353027 14.9997 0.353027 14.9997 0.353027C14.9997 0.353027 5.60941 0.353027 3.26178 0.971006C2.00156 1.31684 0.963588 2.35482 0.61775 3.63976C0 5.98716 0 10.8555 0 10.8555C0 10.8555 0 15.7482 0.61775 18.0712C0.963817 19.3561 1.97684 20.3693 3.26201 20.7154C5.63413 21.3579 14.9999 21.3579 14.9999 21.3579C14.9999 21.3579 24.3902 21.3579 26.7379 20.7399C28.023 20.3941 29.0361 19.3808 29.3821 18.0959C29.9999 15.7482 29.9999 10.8802 29.9999 10.8802C29.9999 10.8802 30.0246 5.98716 29.3819 3.63976Z" fill="#262626"/>
</svg>
