<svg width="30" height="31" viewBox="0 0 30 31" fill="none" xmlns="http://www.w3.org/2000/svg">
<path d="M29.3819 8.63976C29.0361 7.35459 28.0228 6.34156 26.7379 5.9955C24.3902 5.35303 14.9997 5.35303 14.9997 5.35303C14.9997 5.35303 5.60941 5.35303 3.26178 5.97101C2.00156 6.31684 0.963588 7.35482 0.61775 8.63976C0 10.9872 0 15.8555 0 15.8555C0 15.8555 0 20.7482 0.61775 23.0712C0.963817 24.3561 1.97684 25.3693 3.26201 25.7154C5.63413 26.3579 14.9999 26.3579 14.9999 26.3579C14.9999 26.3579 24.3902 26.3579 26.7379 25.7399C28.023 25.3941 29.0361 24.3808 29.3821 23.0959C29.9999 20.7482 29.9999 15.8802 29.9999 15.8802C29.9999 15.8802 30.0246 10.9872 29.3819 8.63976Z" fill="#262626"/>
<path d="M12.0098 20.3529L19.8186 15.8554L12.0098 11.3579V20.3529Z" fill="white"/>
</svg>
