<svg width="25" height="24" viewBox="0 0 25 24" fill="none" xmlns="http://www.w3.org/2000/svg">
<path d="M5.04049 20.9869C4.95084 20.9869 4.89107 20.8969 5.04049 20.792C5.1039 20.7337 5.17414 20.6834 5.24967 20.6421C5.96492 20.214 6.56506 19.6171 6.99783 18.9032C7.09227 18.7977 7.16373 18.6736 7.20766 18.5389C7.25159 18.4041 7.26702 18.2616 7.25295 18.1205C7.23889 17.9795 7.19566 17.8429 7.126 17.7195C7.05634 17.5961 6.96179 17.4887 6.84841 17.4041C4.92348 15.4438 3.80532 12.8279 3.71671 10.0775C3.6281 7.32718 4.57554 4.64428 6.37028 2.56338C7.15849 1.63793 8.0922 0.847982 9.13447 0.224819C9.13447 0.224819 9.28389 0.224832 9.29883 0.0749258C9.31377 -0.0749805 9.29882 0.0749258 9.20917 0.0749258C7.44607 0.0749258 5.69792 0.0749258 3.93482 0.0749258C3.07338 0.110027 2.26095 0.48633 1.67559 1.12138C1.09023 1.75644 0.779701 2.59843 0.81205 3.4628C0.81205 9.18923 0.81205 14.9306 0.81205 20.6571C0.782751 21.4938 1.07763 22.3094 1.63479 22.9327C2.19196 23.5559 2.96811 23.9385 3.80035 24C5.2945 24 6.65417 24 8.07361 24H21.521C22.3757 23.9764 23.1866 23.6151 23.777 22.9946C24.3675 22.3741 24.6897 21.5448 24.6736 20.6871V17.4341C24.6953 17.3556 24.6953 17.2727 24.6736 17.1942C24.569 17.1942 24.5392 17.2842 24.4794 17.3441C23.4833 18.4085 22.2908 19.2688 20.9681 19.8775C19.4525 20.6086 17.8041 21.0216 16.1239 21.0912C14.4436 21.1608 12.7669 20.8855 11.1964 20.2823C10.9046 20.1902 10.5917 20.1902 10.2999 20.2823L8.98505 20.6721C7.73744 21.1277 6.39134 21.2415 5.08531 21.0018L5.04049 20.9869ZM8.82069 11.7227L9.01494 11.4528C9.70225 10.5534 10.3746 9.63896 11.0619 8.72453C11.2726 8.46378 11.4484 8.17652 11.5849 7.87005C11.6209 7.79188 11.6401 7.70699 11.6413 7.62089C11.6425 7.53479 11.6256 7.44941 11.5918 7.37026C11.558 7.29111 11.508 7.21996 11.445 7.16144C11.382 7.10293 11.3075 7.05835 11.2263 7.03058C11.0632 7.00109 10.8963 7.00109 10.7332 7.03058H7.93915C7.81007 7.01585 7.67974 7.01585 7.55066 7.03058C7.40826 7.07571 7.28856 7.17396 7.21627 7.30507C7.14398 7.43618 7.12462 7.59013 7.16219 7.73514C7.18397 7.83579 7.23323 7.92836 7.30448 8.00249C7.37573 8.07663 7.46615 8.12939 7.56561 8.15488C7.69337 8.18491 7.82633 8.18491 7.95409 8.15488H9.64248C9.64248 8.15488 9.79189 8.15488 9.83671 8.15488C9.79056 8.22258 9.74068 8.28765 9.6873 8.34977C8.88046 9.42909 8.08857 10.5084 7.26678 11.5877C7.15976 11.7082 7.08893 11.8566 7.06249 12.0158C7.03605 12.175 7.05507 12.3384 7.11736 12.4872C7.18781 12.6214 7.29648 12.7315 7.42951 12.8036C7.56254 12.8757 7.71393 12.9064 7.86443 12.8919C8.10825 12.9069 8.35276 12.9069 8.59658 12.8919H11.1217C11.2881 12.8919 11.4477 12.8256 11.5654 12.7075C11.6831 12.5894 11.7492 12.4293 11.7492 12.2623C11.7492 12.0953 11.6831 11.9352 11.5654 11.8171C11.4477 11.699 11.2881 11.6327 11.1217 11.6327L8.82069 11.7227ZM14.7973 8.82945C14.5317 8.55291 14.176 8.38113 13.7949 8.34537C13.4138 8.30961 13.0325 8.41223 12.7204 8.63457C12.3248 8.88206 12.0122 9.24291 11.8231 9.67048C11.634 10.0981 11.577 10.5727 11.6596 11.0331C11.6639 11.4732 11.8021 11.9014 12.0558 12.2604C12.3095 12.6194 12.6665 12.8921 13.079 13.0418C13.3426 13.1509 13.6318 13.182 13.9124 13.1316C14.193 13.0811 14.4534 12.9511 14.6628 12.757C14.7824 12.6521 14.8272 12.682 14.9168 12.757C14.997 12.8703 15.1123 12.9538 15.2448 12.9944C15.3772 13.0351 15.5193 13.0307 15.649 12.9819C15.7762 12.9333 15.8858 12.8471 15.9632 12.7346C16.0406 12.6222 16.0821 12.4889 16.0823 12.3523V8.99435C16.0804 8.89607 16.0566 8.79945 16.0127 8.71156C15.9688 8.62368 15.9059 8.54674 15.8286 8.48639C15.7512 8.42604 15.6614 8.38381 15.5657 8.36276C15.47 8.34171 15.3708 8.34239 15.2754 8.36475C15.0735 8.4225 14.902 8.55694 14.7973 8.73951V8.82945ZM18.4131 10.8682C18.396 11.1837 18.4475 11.4991 18.5643 11.7926C18.681 12.086 18.8602 12.3504 19.0891 12.5673C19.3181 12.7842 19.5915 12.9484 19.8902 13.0485C20.1889 13.1486 20.5058 13.1821 20.8187 13.1468C21.1171 13.117 21.4065 13.0278 21.6701 12.8845C21.9337 12.7412 22.1662 12.5467 22.354 12.3122C22.5418 12.0777 22.6811 11.808 22.7639 11.5189C22.8466 11.2298 22.8711 10.927 22.8358 10.6283C22.8426 10.3215 22.7859 10.0166 22.6692 9.73293C22.5525 9.44923 22.3784 9.19291 22.1579 8.98017C21.9375 8.76743 21.6754 8.60289 21.3883 8.49696C21.1012 8.39103 20.7953 8.34601 20.49 8.36475C19.9028 8.42541 19.3632 8.71607 18.9883 9.17357C18.6134 9.63107 18.4336 10.2185 18.4878 10.8082L18.4131 10.8682ZM17.95 9.77387C17.95 8.9194 17.95 8.06494 17.95 7.19548C17.9642 7.10156 17.958 7.00565 17.9319 6.91434C17.9058 6.82302 17.8603 6.73845 17.7986 6.66641C17.7369 6.59436 17.6604 6.53653 17.5743 6.49689C17.4883 6.45725 17.3947 6.43673 17.3 6.43673C17.2053 6.43673 17.1117 6.45725 17.0257 6.49689C16.9396 6.53653 16.8631 6.59436 16.8014 6.66641C16.7397 6.73845 16.6942 6.82302 16.6681 6.91434C16.642 7.00565 16.6358 7.10156 16.65 7.19548C16.65 7.45032 16.65 7.70515 16.65 7.95999V12.3223C16.6414 12.474 16.6799 12.6247 16.7601 12.7536C16.8404 12.8824 16.9586 12.9831 17.0983 13.0418C17.1857 13.0663 17.2772 13.0723 17.3671 13.0595C17.457 13.0467 17.5432 13.0153 17.6204 12.9675C17.6976 12.9196 17.7641 12.8562 17.8156 12.7813C17.8672 12.7063 17.9028 12.6215 17.9201 12.5321C17.9284 12.4675 17.9284 12.402 17.9201 12.3373C17.9201 11.4828 17.9201 10.6283 17.9201 9.77387H17.95Z" fill="#096DD9"/>
<path d="M8.01386 23.9848C6.51971 23.9848 5.16003 23.9848 3.74059 23.9848C2.90964 23.927 2.13355 23.5476 1.57603 22.9268C1.01852 22.3059 0.72317 21.492 0.752283 20.6568C0.752283 14.9154 0.752283 9.18902 0.752283 3.4476C0.736294 3.02034 0.804411 2.59411 0.952743 2.19329C1.10107 1.79247 1.32671 1.42491 1.61674 1.11165C1.90677 0.798387 2.25551 0.545559 2.64301 0.36763C3.03051 0.189701 3.44918 0.0901685 3.87505 0.074707C5.63815 0.074707 7.38631 0.074707 9.1494 0.074707C9.1494 0.074707 9.22412 0.074707 9.23906 0.074707C9.254 0.074707 9.13447 0.194618 9.0747 0.2246C8.03527 0.857819 7.10233 1.65217 6.31053 2.57814C4.51579 4.65904 3.56834 7.34194 3.65695 10.0923C3.74556 12.8427 4.86372 15.4586 6.78865 17.4189C6.90204 17.5035 6.99657 17.6109 7.06623 17.7343C7.13589 17.8577 7.17913 17.9942 7.19319 18.1353C7.20725 18.2764 7.19183 18.4189 7.1479 18.5536C7.10397 18.6884 7.0325 18.8125 6.93807 18.9179C6.49716 19.6254 5.89878 20.2206 5.18991 20.6568L4.98072 20.7918C4.86119 20.8967 4.98072 20.9417 4.98072 20.9866C4.96995 21.031 4.96995 21.0772 4.98072 21.1216C5.57838 21.6912 6.14616 22.2908 6.74382 22.8605L7.56561 23.685C7.80467 23.7299 7.93915 23.7749 8.01386 23.9848Z" fill="white"/>
<path d="M8.01385 23.9851C8.01385 23.7903 7.80466 23.7603 7.70007 23.6404L6.8783 22.8159C6.28064 22.2312 5.71286 21.6466 5.1152 21.077C5.11026 21.0321 5.11026 20.9869 5.1152 20.942C6.42122 21.1817 7.76732 21.0679 9.01493 20.6122L10.3298 20.2225C10.6216 20.1304 10.9345 20.1304 11.2263 20.2225C12.7965 20.8246 14.4723 21.1005 16.152 21.0335C17.8317 20.9665 19.4804 20.558 20.998 19.8327C22.3214 19.2186 23.5138 18.3532 24.5093 17.2843C24.5093 17.2843 24.5989 17.1494 24.7035 17.1494C24.8081 17.1494 24.7035 17.2993 24.7035 17.3893V20.6122C24.7277 21.47 24.4131 22.3027 23.8282 22.9288C23.2433 23.555 22.4355 23.9239 21.5807 23.9552H8.13338L8.01385 23.9851Z" fill="white"/>
<path d="M8.82069 11.6627H11.0918C11.2582 11.6627 11.4179 11.7291 11.5355 11.8472C11.6532 11.9652 11.7193 12.1254 11.7193 12.2923C11.7193 12.4593 11.6532 12.6195 11.5355 12.7375C11.4179 12.8556 11.2582 12.922 11.0918 12.922H8.56669C8.32287 12.937 8.07837 12.937 7.83455 12.922C7.68406 12.9365 7.53266 12.9057 7.39963 12.8336C7.2666 12.7616 7.15794 12.6514 7.08748 12.5172C7.03222 12.3663 7.01832 12.2032 7.04723 12.045C7.07613 11.8868 7.14679 11.7393 7.25184 11.6178L9.67237 8.37979L9.80683 8.18493C9.80683 8.09498 9.6873 8.18493 9.62753 8.18493H7.93915C7.81007 8.19966 7.67974 8.19966 7.55066 8.18493C7.47829 8.16754 7.41017 8.13565 7.35037 8.09121C7.29057 8.04677 7.24033 7.99068 7.20266 7.92629C7.16499 7.8619 7.14066 7.79054 7.13114 7.71649C7.12162 7.64244 7.1271 7.56722 7.14725 7.49535C7.16557 7.3932 7.21368 7.2988 7.28549 7.22409C7.3573 7.14937 7.44958 7.0977 7.55066 7.07561C7.67425 7.05406 7.80061 7.05406 7.9242 7.07561H10.7183C10.8819 7.05357 11.0477 7.05357 11.2113 7.07561C11.294 7.10129 11.3702 7.14469 11.4345 7.20281C11.4989 7.26093 11.5499 7.33239 11.584 7.41222C11.6181 7.49206 11.6345 7.57838 11.632 7.66521C11.6296 7.75204 11.6084 7.83729 11.5699 7.91508C11.4392 8.22456 11.2629 8.5126 11.047 8.76956C10.3746 9.68399 9.6873 10.5984 8.99999 11.4978L8.80576 11.7677L8.82069 11.6627Z" fill="white"/>
<path d="M14.872 8.76937C14.9767 8.58679 15.1482 8.45236 15.3501 8.3946C15.4448 8.3719 15.5433 8.37105 15.6383 8.39213C15.7333 8.41322 15.8223 8.45568 15.8986 8.51632C15.9749 8.57695 16.0364 8.65417 16.0786 8.74215C16.1207 8.83013 16.1424 8.92658 16.142 9.02421C16.142 10.1335 16.142 11.2278 16.142 12.3221C16.144 12.4593 16.1033 12.5936 16.0257 12.7064C15.948 12.8193 15.8372 12.905 15.7087 12.9517C15.5803 12.9996 15.4401 13.0051 15.3083 12.9673C15.1766 12.9296 15.0604 12.8506 14.9766 12.7419C14.8869 12.622 14.8571 12.592 14.7375 12.7419C14.5268 12.9389 14.2637 13.0707 13.9801 13.1212C13.6964 13.1717 13.4043 13.1389 13.1388 13.0267C12.7279 12.8764 12.3729 12.6031 12.1217 12.2439C11.8706 11.8847 11.7353 11.4568 11.7343 11.018C11.6496 10.5575 11.7056 10.0821 11.8949 9.65409C12.0842 9.22609 12.398 8.86545 12.7951 8.61946C13.1072 8.39711 13.4885 8.2945 13.8696 8.33026C14.2507 8.36602 14.6064 8.53779 14.872 8.81434V8.76937ZM13.0342 10.7781C13.032 11.0147 13.1053 11.2459 13.2434 11.4377C13.3074 11.5314 13.3896 11.6111 13.4852 11.672C13.5808 11.7329 13.6877 11.7736 13.7995 11.7919C13.9112 11.8101 14.0255 11.8054 14.1354 11.778C14.2452 11.7506 14.3484 11.7011 14.4387 11.6326C14.5098 11.5791 14.5705 11.513 14.618 11.4377C14.7603 11.2138 14.8359 10.9537 14.8359 10.6882C14.8359 10.4226 14.7603 10.1626 14.618 9.93864C14.5486 9.83492 14.4553 9.74945 14.3461 9.68945C14.2369 9.62945 14.1149 9.59665 13.9905 9.59384C13.4227 9.53388 13.0193 9.9986 13.0342 10.7781ZM18.4878 10.7781C18.4528 10.4744 18.4798 10.1667 18.5673 9.87377C18.6547 9.58087 18.8008 9.30894 18.9966 9.07462C19.1924 8.84031 19.4338 8.64851 19.706 8.51096C19.9782 8.37342 20.2754 8.29303 20.5797 8.27468C20.8843 8.2558 21.1895 8.30082 21.4759 8.40689C21.7622 8.51296 22.0233 8.67776 22.2427 8.89074C22.462 9.10372 22.6346 9.36022 22.7496 9.64389C22.8646 9.92755 22.9194 10.2322 22.9105 10.5383C22.9458 10.8358 22.9219 11.1375 22.8401 11.4257C22.7583 11.7139 22.6203 11.9829 22.434 12.2172C22.2477 12.4515 22.017 12.6463 21.7551 12.7904C21.4932 12.9345 21.2054 13.0251 20.9084 13.0567C20.5948 13.0917 20.2773 13.0581 19.9779 12.9581C19.6785 12.8582 19.4043 12.6942 19.1742 12.4776C18.9441 12.261 18.7636 11.9968 18.6451 11.7034C18.5266 11.41 18.4729 11.0943 18.4878 10.7781ZM19.7878 10.6432C19.7838 10.9196 19.8618 11.1909 20.0119 11.4227C20.0795 11.5146 20.1649 11.5919 20.2629 11.6502C20.3608 11.7084 20.4695 11.7463 20.5823 11.7617C20.6951 11.7771 20.8099 11.7696 20.9198 11.7397C21.0297 11.7098 21.1325 11.6581 21.2221 11.5876C21.2756 11.5415 21.3256 11.4914 21.3716 11.4377C21.5027 11.2098 21.5717 10.9513 21.5717 10.6882C21.5717 10.425 21.5027 10.1665 21.3716 9.93864C21.3045 9.83608 21.2138 9.7512 21.1072 9.69119C21.0006 9.63118 20.8812 9.59779 20.759 9.59384C20.1912 9.54887 19.7878 9.99859 19.7878 10.6732V10.6432ZM18.0247 9.6838C18.0247 10.5383 18.0247 11.3927 18.0247 12.2472C18.0287 12.3378 18.0148 12.4283 17.984 12.5135C17.9531 12.5987 17.9058 12.6769 17.8447 12.7438C17.7836 12.8106 17.71 12.8647 17.6281 12.9029C17.5462 12.9412 17.4575 12.9629 17.3672 12.9667H17.173C17.0319 12.9099 16.9125 12.8096 16.8319 12.6803C16.7513 12.551 16.7138 12.3993 16.7247 12.2472V7.88491C16.7247 7.63006 16.7247 7.37523 16.7247 7.12039C16.7139 7.03036 16.7227 6.93906 16.7503 6.85272C16.7779 6.76638 16.8238 6.68704 16.8848 6.62014C16.9458 6.55324 17.0205 6.50034 17.1038 6.46508C17.187 6.42981 17.2769 6.41302 17.3672 6.41583C17.4581 6.41331 17.5485 6.43017 17.6324 6.46531C17.7163 6.50044 17.7919 6.55306 17.854 6.61966C17.9162 6.68626 17.9635 6.76533 17.9929 6.85165C18.0223 6.93797 18.0332 7.02956 18.0247 7.12039C18.0396 8.00484 18.0247 8.8593 18.0247 9.71377V9.6838Z" fill="white"/>
<path d="M13.0342 10.7781C13.0342 9.99859 13.4227 9.53389 13.9905 9.56387C14.1152 9.57296 14.2364 9.61001 14.345 9.67227C14.4536 9.73453 14.5469 9.82041 14.618 9.92363C14.7491 10.1515 14.8182 10.41 14.8182 10.6732C14.8182 10.9363 14.7491 11.1948 14.618 11.4227C14.5526 11.5169 14.469 11.5969 14.3721 11.6579C14.2752 11.719 14.1671 11.7598 14.0541 11.778C13.9412 11.7962 13.8257 11.7913 13.7147 11.7638C13.6036 11.7362 13.4992 11.6865 13.4077 11.6176C13.3452 11.5597 13.2899 11.4942 13.2434 11.4227C13.1053 11.2308 13.032 10.9997 13.0342 10.7631V10.7781ZM19.7878 10.6732C19.7878 9.99858 20.1912 9.54887 20.759 9.57885C20.8812 9.5828 21.0006 9.61619 21.1072 9.6762C21.2138 9.73621 21.3045 9.82107 21.3716 9.92363C21.5027 10.1515 21.5718 10.41 21.5718 10.6732C21.5718 10.9363 21.5027 11.1948 21.3716 11.4227C21.303 11.5141 21.2165 11.5905 21.1174 11.6472C21.0184 11.7038 20.9088 11.7396 20.7955 11.7522C20.6821 11.7648 20.5674 11.7541 20.4583 11.7206C20.3493 11.6872 20.2482 11.6317 20.1613 11.5576C20.1043 11.5155 20.0539 11.465 20.0119 11.4077C19.8701 11.1888 19.7924 10.9342 19.7878 10.6732Z" fill="#096DD9"/>
<path d="M4.18882 0H21.2819C22.2027 0.0235772 23.0766 0.41227 23.7123 1.08097C24.348 1.74968 24.6937 2.6439 24.6736 3.56778V20.2224C24.6856 20.6811 24.6073 21.1377 24.4432 21.566C24.2792 21.9944 24.0327 22.3861 23.7177 22.7188C23.4027 23.0516 23.0255 23.3188 22.6075 23.5052C22.1896 23.6915 21.7391 23.7935 21.2819 23.8051H4.18882C3.7316 23.7935 3.28114 23.6915 2.8632 23.5052C2.44526 23.3188 2.06801 23.0516 1.75303 22.7188C1.43805 22.3861 1.19151 21.9944 1.02749 21.566C0.863464 21.1377 0.785179 20.6811 0.797104 20.2224V3.61275C0.781166 3.15155 0.856474 2.69175 1.01869 2.25992C1.1809 1.82809 1.4268 1.4328 1.74218 1.09687C2.05755 0.760947 2.43614 0.49105 2.85609 0.302782C3.27603 0.114513 3.729 0.0116064 4.18882 0Z" stroke="white" stroke-width="0.01" stroke-miterlimit="10"/>
</svg>
