<svg width="24" height="25" viewBox="0 0 24 25" fill="none" xmlns="http://www.w3.org/2000/svg">
<g clip-path="url(#clip0_1723_66083)">
<rect width="24" height="24" transform="translate(0 0.241211)" fill="white" fill-opacity="0.01"/>
<path d="M4.29049 21.2281C4.20084 21.2281 4.14107 21.1381 4.29049 21.0332C4.3539 20.9749 4.42414 20.9246 4.49967 20.8833C5.21492 20.4552 5.81506 19.8583 6.24783 19.1444C6.34227 19.0389 6.41373 18.9148 6.45766 18.7801C6.50159 18.6453 6.51702 18.5028 6.50295 18.3617C6.48889 18.2207 6.44566 18.0841 6.376 17.9607C6.30634 17.8374 6.21179 17.7299 6.09841 17.6453C4.17348 15.685 3.05532 13.0691 2.96671 10.3188C2.8781 7.56839 3.82554 4.88549 5.62028 2.80459C6.40849 1.87914 7.3422 1.08919 8.38447 0.466029C8.38447 0.466029 8.53389 0.466043 8.54883 0.316137C8.56377 0.16623 8.54882 0.316137 8.45917 0.316137C6.69607 0.316137 4.94792 0.316137 3.18482 0.316137C2.32338 0.351238 1.51095 0.727541 0.925593 1.36259C0.340234 1.99765 0.0297009 2.83964 0.0620495 3.70401C0.0620495 9.43044 0.0620495 15.1719 0.0620495 20.8983C0.0327512 21.735 0.327626 22.5506 0.884795 23.1739C1.44196 23.7972 2.21811 24.1797 3.05035 24.2412C4.5445 24.2412 5.90417 24.2412 7.32361 24.2412H20.771C21.6257 24.2176 22.4366 23.8563 23.027 23.2358C23.6175 22.6153 23.9397 21.786 23.9236 20.9283V17.6753C23.9453 17.5968 23.9453 17.5139 23.9236 17.4354C23.819 17.4354 23.7892 17.5254 23.7294 17.5854C22.7333 18.6497 21.5408 19.5101 20.2181 20.1188C18.7025 20.8498 17.0541 21.2628 15.3739 21.3324C13.6936 21.402 12.0169 21.1267 10.4464 20.5235C10.1546 20.4314 9.84169 20.4314 9.54991 20.5235L8.23505 20.9133C6.98744 21.3689 5.64134 21.4827 4.33531 21.2431L4.29049 21.2281ZM8.07069 11.9639L8.26494 11.694C8.95225 10.7946 9.62461 9.88017 10.3119 8.96574C10.5226 8.70499 10.6984 8.41773 10.8349 8.11127C10.8709 8.03309 10.8901 7.9482 10.8913 7.8621C10.8925 7.776 10.8756 7.69062 10.8418 7.61147C10.808 7.53232 10.758 7.46117 10.695 7.40265C10.632 7.34414 10.5575 7.29956 10.4763 7.27179C10.3132 7.2423 10.1463 7.2423 9.98321 7.27179H7.18915C7.06007 7.25706 6.92974 7.25706 6.80066 7.27179C6.65826 7.31692 6.53856 7.41517 6.46627 7.54628C6.39398 7.67739 6.37462 7.83134 6.41219 7.97635C6.43397 8.077 6.48323 8.16957 6.55448 8.2437C6.62573 8.31784 6.71615 8.3706 6.81561 8.39609C6.94337 8.42612 7.07633 8.42612 7.20409 8.39609H8.89248C8.89248 8.39609 9.04189 8.39609 9.08671 8.39609C9.04056 8.46379 8.99068 8.52886 8.9373 8.59098C8.13046 9.6703 7.33857 10.7496 6.51678 11.8289C6.40976 11.9494 6.33893 12.0978 6.31249 12.257C6.28605 12.4162 6.30507 12.5796 6.36736 12.7284C6.43781 12.8626 6.54648 12.9727 6.67951 13.0448C6.81254 13.1169 6.96393 13.1476 7.11443 13.1331C7.35825 13.1481 7.60276 13.1481 7.84658 13.1331H10.3717C10.5381 13.1331 10.6977 13.0668 10.8154 12.9487C10.9331 12.8307 10.9992 12.6705 10.9992 12.5035C10.9992 12.3365 10.9331 12.1764 10.8154 12.0583C10.6977 11.9402 10.5381 11.8739 10.3717 11.8739L8.07069 11.9639ZM14.0473 9.07067C13.7817 8.79412 13.426 8.62235 13.0449 8.58659C12.6638 8.55082 12.2825 8.65344 11.9704 8.87578C11.5748 9.12327 11.2622 9.48412 11.0731 9.91169C10.884 10.3393 10.827 10.8139 10.9096 11.2743C10.9139 11.7144 11.0521 12.1426 11.3058 12.5016C11.5595 12.8607 11.9165 13.1333 12.329 13.283C12.5926 13.3921 12.8818 13.4233 13.1624 13.3728C13.443 13.3223 13.7034 13.1923 13.9128 12.9982C14.0324 12.8933 14.0772 12.9233 14.1668 12.9982C14.247 13.1115 14.3623 13.195 14.4948 13.2357C14.6272 13.2763 14.7693 13.2719 14.899 13.2231C15.0262 13.1745 15.1358 13.0883 15.2132 12.9759C15.2906 12.8634 15.3321 12.7301 15.3323 12.5935V9.23556C15.3304 9.13728 15.3066 9.04066 15.2627 8.95277C15.2188 8.86489 15.1559 8.78795 15.0786 8.7276C15.0012 8.66725 14.9114 8.62502 14.8157 8.60397C14.72 8.58292 14.6208 8.5836 14.5254 8.60596C14.3235 8.66371 14.152 8.79815 14.0473 8.98073V9.07067ZM17.6631 11.1094C17.646 11.4249 17.6975 11.7403 17.8143 12.0338C17.931 12.3272 18.1102 12.5916 18.3391 12.8085C18.5681 13.0254 18.8415 13.1896 19.1402 13.2897C19.4389 13.3898 19.7558 13.4233 20.0687 13.388C20.3671 13.3582 20.6565 13.269 20.9201 13.1257C21.1837 12.9825 21.4162 12.7879 21.604 12.5534C21.7918 12.3189 21.9311 12.0493 22.0139 11.7601C22.0966 11.471 22.1211 11.1683 22.0858 10.8695C22.0926 10.5627 22.0359 10.2578 21.9192 9.97414C21.8025 9.69045 21.6284 9.43412 21.4079 9.22138C21.1875 9.00864 20.9254 8.8441 20.6383 8.73817C20.3512 8.63224 20.0453 8.58722 19.74 8.60596C19.1528 8.66663 18.6132 8.95728 18.2383 9.41478C17.8634 9.87228 17.6836 10.4597 17.7378 11.0494L17.6631 11.1094ZM17.2 10.0151C17.2 9.16062 17.2 8.30615 17.2 7.43669C17.2142 7.34277 17.208 7.24686 17.1819 7.15555C17.1558 7.06423 17.1103 6.97967 17.0486 6.90762C16.9869 6.83557 16.9104 6.77774 16.8243 6.7381C16.7383 6.69846 16.6447 6.67794 16.55 6.67794C16.4553 6.67794 16.3617 6.69846 16.2757 6.7381C16.1896 6.77774 16.1131 6.83557 16.0514 6.90762C15.9897 6.97967 15.9442 7.06423 15.9181 7.15555C15.892 7.24686 15.8858 7.34277 15.9 7.43669C15.9 7.69153 15.9 7.94636 15.9 8.20121V12.5635C15.8914 12.7152 15.9299 12.8659 16.0101 12.9948C16.0904 13.1236 16.2086 13.2244 16.3483 13.283C16.4357 13.3075 16.5272 13.3135 16.6171 13.3007C16.707 13.2879 16.7932 13.2565 16.8704 13.2087C16.9476 13.1608 17.0141 13.0974 17.0656 13.0225C17.1172 12.9476 17.1528 12.8627 17.1701 12.7734C17.1784 12.7087 17.1784 12.6432 17.1701 12.5785C17.1701 11.724 17.1701 10.8695 17.1701 10.0151H17.2Z" fill="#FDFEFE"/>
<path d="M7.26386 24.226C5.76971 24.226 4.41003 24.226 2.99059 24.226C2.15964 24.1682 1.38355 23.7889 0.826032 23.168C0.268516 22.5471 -0.02683 21.7332 0.00228318 20.8981C0.00228318 15.1566 0.00228318 9.43023 0.00228318 3.68881C-0.0137064 3.26155 0.0544112 2.83532 0.202743 2.4345C0.351074 2.03368 0.576707 1.66612 0.866739 1.35286C1.15677 1.0396 1.50551 0.78677 1.89301 0.608841C2.28051 0.430912 2.69918 0.331379 3.12505 0.315918C4.88815 0.315918 6.63631 0.315918 8.3994 0.315918C8.3994 0.315918 8.47412 0.315918 8.48906 0.315918C8.504 0.315918 8.38447 0.435829 8.3247 0.465811C7.28527 1.09903 6.35233 1.89339 5.56053 2.81935C3.76579 4.90025 2.81834 7.58315 2.90695 10.3335C2.99556 13.0839 4.11372 15.6998 6.03865 17.6601C6.15204 17.7447 6.24657 17.8521 6.31623 17.9755C6.38589 18.0989 6.42913 18.2355 6.44319 18.3765C6.45725 18.5176 6.44183 18.6601 6.3979 18.7948C6.35397 18.9296 6.2825 19.0537 6.18807 19.1591C5.74716 19.8666 5.14878 20.4618 4.43991 20.8981L4.23072 21.033C4.11119 21.1379 4.23072 21.1829 4.23072 21.2279C4.21995 21.2722 4.21995 21.3184 4.23072 21.3628C4.82838 21.9324 5.39616 22.532 5.99382 23.1017L6.81561 23.9262C7.05467 23.9711 7.18915 24.0161 7.26386 24.226Z" fill="#0180C7"/>
<path d="M7.26385 24.2264C7.26385 24.0315 7.05466 24.0015 6.95007 23.8816L6.1283 23.0571C5.53064 22.4724 4.96286 21.8878 4.3652 21.3182C4.36026 21.2733 4.36026 21.2281 4.3652 21.1833C5.67122 21.4229 7.01732 21.3091 8.26493 20.8535L9.57978 20.4637C9.87157 20.3716 10.1845 20.3716 10.4763 20.4637C12.0465 21.0658 13.7223 21.3417 15.402 21.2747C17.0817 21.2077 18.7304 20.7992 20.248 20.0739C21.5714 19.4598 22.7638 18.5944 23.7593 17.5255C23.7593 17.5255 23.8489 17.3906 23.9535 17.3906C24.0581 17.3906 23.9535 17.5405 23.9535 17.6305V20.8535C23.9777 21.7113 23.6631 22.5439 23.0782 23.1701C22.4933 23.7962 21.6855 24.1651 20.8307 24.1964H7.38338L7.26385 24.2264Z" fill="#0172B1"/>
<path d="M8.07069 11.904H10.3418C10.5082 11.904 10.6679 11.9703 10.7855 12.0884C10.9032 12.2064 10.9693 12.3666 10.9693 12.5336C10.9693 12.7005 10.9032 12.8607 10.7855 12.9788C10.6679 13.0968 10.5082 13.1632 10.3418 13.1632H7.81669C7.57287 13.1782 7.32837 13.1782 7.08455 13.1632C6.93406 13.1777 6.78266 13.1469 6.64963 13.0748C6.5166 13.0028 6.40794 12.8926 6.33748 12.7584C6.28222 12.6075 6.26832 12.4444 6.29723 12.2862C6.32613 12.128 6.39679 11.9805 6.50184 11.859L8.92237 8.621L9.05683 8.42614C9.05683 8.33619 8.9373 8.42614 8.87753 8.42614H7.18915C7.06007 8.44087 6.92974 8.44087 6.80066 8.42614C6.72829 8.40875 6.66017 8.37687 6.60037 8.33242C6.54057 8.28798 6.49033 8.23189 6.45266 8.1675C6.41499 8.10311 6.39066 8.03175 6.38114 7.9577C6.37162 7.88365 6.3771 7.80843 6.39725 7.73656C6.41557 7.63441 6.46368 7.54001 6.53549 7.4653C6.6073 7.39058 6.69958 7.33891 6.80066 7.31682C6.92425 7.29527 7.05061 7.29527 7.1742 7.31682H9.96827C10.1319 7.29478 10.2977 7.29478 10.4613 7.31682C10.544 7.34251 10.6202 7.3859 10.6845 7.44402C10.7489 7.50214 10.7999 7.5736 10.834 7.65344C10.8681 7.73327 10.8845 7.81959 10.882 7.90642C10.8796 7.99325 10.8584 8.0785 10.8199 8.1563C10.6892 8.46577 10.5129 8.75381 10.297 9.01077C9.62461 9.9252 8.9373 10.8396 8.24999 11.7391L8.05576 12.0089L8.07069 11.904Z" fill="#0180C7"/>
<path d="M14.122 9.01058C14.2267 8.82801 14.3982 8.69357 14.6001 8.63582C14.6948 8.61311 14.7933 8.61226 14.8883 8.63335C14.9833 8.65443 15.0723 8.69689 15.1486 8.75753C15.2249 8.81816 15.2864 8.89538 15.3286 8.98336C15.3707 9.07134 15.3924 9.16779 15.392 9.26542C15.392 10.3747 15.392 11.469 15.392 12.5634C15.394 12.7005 15.3533 12.8348 15.2757 12.9476C15.198 13.0605 15.0872 13.1462 14.9587 13.193C14.8303 13.2409 14.6901 13.2463 14.5583 13.2086C14.4266 13.1708 14.3104 13.0918 14.2266 12.9831C14.1369 12.8632 14.1071 12.8332 13.9875 12.9831C13.7768 13.1801 13.5137 13.3119 13.2301 13.3624C12.9464 13.4129 12.6543 13.3801 12.3888 13.2679C11.9779 13.1176 11.6229 12.8443 11.3717 12.4851C11.1206 12.1259 10.9853 11.698 10.9843 11.2592C10.8996 10.7987 10.9556 10.3233 11.1449 9.8953C11.3342 9.4673 11.648 9.10666 12.0451 8.86067C12.3572 8.63832 12.7385 8.53571 13.1196 8.57147C13.5007 8.60723 13.8564 8.779 14.122 9.05555V9.01058ZM12.2842 11.0193C12.282 11.2559 12.3553 11.4871 12.4934 11.6789C12.5574 11.7726 12.6396 11.8523 12.7352 11.9132C12.8308 11.9741 12.9377 12.0149 13.0495 12.0331C13.1612 12.0513 13.2755 12.0466 13.3854 12.0192C13.4952 11.9918 13.5984 11.9423 13.6887 11.8738C13.7598 11.8203 13.8205 11.7542 13.868 11.6789C14.0103 11.455 14.0859 11.1949 14.0859 10.9294C14.0859 10.6638 14.0103 10.4038 13.868 10.1798C13.7986 10.0761 13.7053 9.99066 13.5961 9.93066C13.4869 9.87066 13.3649 9.83786 13.2405 9.83505C12.6727 9.77509 12.2693 10.2398 12.2842 11.0193ZM17.7378 11.0193C17.7028 10.7156 17.7298 10.4079 17.8173 10.115C17.9047 9.82208 18.0508 9.55015 18.2466 9.31583C18.4424 9.08152 18.6838 8.88972 18.956 8.75218C19.2282 8.61463 19.5254 8.53424 19.8297 8.51589C20.1343 8.49701 20.4395 8.54203 20.7259 8.6481C21.0122 8.75417 21.2733 8.91897 21.4927 9.13195C21.712 9.34493 21.8846 9.60143 21.9996 9.8851C22.1146 10.1688 22.1694 10.4734 22.1605 10.7795C22.1958 11.077 22.1719 11.3787 22.0901 11.6669C22.0083 11.9551 21.8703 12.2242 21.684 12.4584C21.4977 12.6927 21.267 12.8876 21.0051 13.0317C20.7432 13.1758 20.4554 13.2663 20.1584 13.2979C19.8448 13.333 19.5273 13.2993 19.2279 13.1993C18.9285 13.0994 18.6543 12.9354 18.4242 12.7188C18.1941 12.5022 18.0136 12.238 17.8951 11.9446C17.7766 11.6512 17.7229 11.3355 17.7378 11.0193ZM19.0378 10.8844C19.0338 11.1608 19.1118 11.4321 19.2619 11.6639C19.3295 11.7558 19.4149 11.8331 19.5129 11.8914C19.6108 11.9496 19.7195 11.9875 19.8323 12.0029C19.9451 12.0183 20.0599 12.0108 20.1698 11.9809C20.2797 11.951 20.3825 11.8993 20.4721 11.8288C20.5256 11.7827 20.5756 11.7326 20.6216 11.6789C20.7527 11.451 20.8217 11.1925 20.8217 10.9294C20.8217 10.6662 20.7527 10.4077 20.6216 10.1798C20.5545 10.0773 20.4638 9.99241 20.3572 9.9324C20.2506 9.87239 20.1312 9.839 20.009 9.83505C19.4412 9.79008 19.0378 10.2398 19.0378 10.9144V10.8844ZM17.2747 9.92501C17.2747 10.7795 17.2747 11.6339 17.2747 12.4884C17.2787 12.579 17.2648 12.6695 17.234 12.7547C17.2031 12.8399 17.1558 12.9181 17.0947 12.985C17.0336 13.0518 16.96 13.1059 16.8781 13.1441C16.7962 13.1824 16.7075 13.2041 16.6172 13.2079H16.423C16.2819 13.1511 16.1625 13.0508 16.0819 12.9215C16.0013 12.7922 15.9638 12.6405 15.9747 12.4884V8.12612C15.9747 7.87128 15.9747 7.61644 15.9747 7.3616C15.9639 7.27158 15.9727 7.18027 16.0003 7.09393C16.0279 7.00759 16.0738 6.92825 16.1348 6.86135C16.1958 6.79445 16.2705 6.74155 16.3538 6.70629C16.437 6.67103 16.5269 6.65423 16.6172 6.65704C16.7081 6.65452 16.7985 6.67138 16.8824 6.70652C16.9663 6.74165 17.0419 6.79427 17.104 6.86087C17.1662 6.92747 17.2135 7.00654 17.2429 7.09286C17.2723 7.17918 17.2832 7.27077 17.2747 7.3616C17.2896 8.24605 17.2747 9.10051 17.2747 9.95498V9.92501Z" fill="#0180C7"/>
<path d="M12.2842 11.0193C12.2842 10.2398 12.6727 9.7751 13.2405 9.80508C13.3652 9.81417 13.4864 9.85122 13.595 9.91348C13.7036 9.97574 13.7969 10.0616 13.868 10.1648C13.9991 10.3927 14.0682 10.6512 14.0682 10.9144C14.0682 11.1775 13.9991 11.436 13.868 11.6639C13.8026 11.7581 13.719 11.8381 13.6221 11.8991C13.5252 11.9602 13.4171 12.001 13.3041 12.0192C13.1912 12.0374 13.0757 12.0326 12.9647 12.005C12.8536 11.9774 12.7492 11.9277 12.6577 11.8588C12.5952 11.8009 12.5399 11.7354 12.4934 11.6639C12.3553 11.4721 12.282 11.2409 12.2842 11.0043V11.0193ZM19.0378 10.9144C19.0378 10.2398 19.4412 9.79008 20.009 9.82006C20.1312 9.82401 20.2506 9.8574 20.3572 9.91741C20.4638 9.97742 20.5545 10.0623 20.6216 10.1648C20.7527 10.3927 20.8218 10.6512 20.8218 10.9144C20.8218 11.1775 20.7527 11.436 20.6216 11.6639C20.553 11.7553 20.4665 11.8317 20.3674 11.8884C20.2684 11.945 20.1588 11.9808 20.0455 11.9934C19.9321 12.006 19.8174 11.9953 19.7083 11.9618C19.5993 11.9284 19.4982 11.8729 19.4113 11.7988C19.3543 11.7567 19.3039 11.7062 19.2619 11.6489C19.1201 11.43 19.0424 11.1754 19.0378 10.9144Z" fill="#FDFEFE"/>
<path d="M3.43882 0.241211H20.5319C21.4527 0.264788 22.3266 0.653481 22.9623 1.32219C23.598 1.99089 23.9437 2.88511 23.9236 3.80899V20.4636C23.9356 20.9223 23.8573 21.3789 23.6932 21.8073C23.5292 22.2356 23.2827 22.6273 22.9677 22.96C22.6527 23.2928 22.2755 23.56 21.8575 23.7464C21.4396 23.9328 20.9891 24.0347 20.5319 24.0464H3.43882C2.9816 24.0347 2.53114 23.9328 2.1132 23.7464C1.69526 23.56 1.31801 23.2928 1.00303 22.96C0.68805 22.6273 0.441511 22.2356 0.277488 21.8073C0.113464 21.3789 0.0351787 20.9223 0.0471043 20.4636V3.85396C0.031166 3.39276 0.106474 2.93296 0.268687 2.50113C0.4309 2.0693 0.676804 1.67401 0.992177 1.33808C1.30755 1.00216 1.68614 0.732261 2.10609 0.543993C2.52603 0.355724 2.979 0.252817 3.43882 0.241211Z" stroke="#0180C7" stroke-width="0.01" stroke-miterlimit="10"/>
</g>
<defs>
<clipPath id="clip0_1723_66083">
<rect width="24" height="24" fill="white" transform="translate(0 0.241211)"/>
</clipPath>
</defs>
</svg>
